<svg width="81" height="17" viewBox="0 0 81 17" fill="none" xmlns="http://www.w3.org/2000/svg">
<path d="M8.9 7.68V10.04H0.42V7.68H8.9ZM11.3802 4V1.42H16.2002V16H13.3202V4H11.3802ZM18.6463 5C18.6463 3.98667 18.9396 3.19333 19.5263 2.62C20.1263 2.04667 20.8929 1.76 21.8263 1.76C22.7596 1.76 23.5196 2.04667 24.1063 2.62C24.7063 3.19333 25.0063 3.98667 25.0063 5C25.0063 6.02667 24.7063 6.82667 24.1063 7.4C23.5196 7.97333 22.7596 8.26 21.8263 8.26C20.8929 8.26 20.1263 7.97333 19.5263 7.4C18.9396 6.82667 18.6463 6.02667 18.6463 5ZM31.4863 2L23.6263 16H20.9063L28.7463 2H31.4863ZM21.8063 3.44C21.0729 3.44 20.7063 3.96 20.7063 5C20.7063 6.05333 21.0729 6.58 21.8063 6.58C22.1663 6.58 22.4463 6.45333 22.6463 6.2C22.8463 5.93333 22.9463 5.53333 22.9463 5C22.9463 3.96 22.5663 3.44 21.8063 3.44ZM27.4263 12.98C27.4263 11.9533 27.7196 11.16 28.3063 10.6C28.9063 10.0267 29.6729 9.74 30.6063 9.74C31.5396 9.74 32.2929 10.0267 32.8663 10.6C33.4529 11.16 33.7463 11.9533 33.7463 12.98C33.7463 14.0067 33.4529 14.8067 32.8663 15.38C32.2929 15.9533 31.5396 16.24 30.6063 16.24C29.6596 16.24 28.8929 15.9533 28.3063 15.38C27.7196 14.8067 27.4263 14.0067 27.4263 12.98ZM30.5863 11.42C29.8263 11.42 29.4463 11.94 29.4463 12.98C29.4463 14.0333 29.8263 14.56 30.5863 14.56C31.3329 14.56 31.7063 14.0333 31.7063 12.98C31.7063 11.94 31.3329 11.42 30.5863 11.42ZM45.7139 7.22H43.7739V16H40.9339V7.22H39.6739V4.92H40.9339V4.36C40.9339 3 41.3206 2 42.0939 1.36C42.8672 0.719999 44.0339 0.42 45.5939 0.46V2.82C44.9139 2.80667 44.4406 2.92 44.1739 3.16C43.9072 3.4 43.7739 3.83333 43.7739 4.46V4.92H45.7139V7.22ZM57.8284 10.22C57.8284 10.62 57.8018 10.98 57.7484 11.3H49.6484C49.7151 12.1 49.9951 12.7267 50.4884 13.18C50.9818 13.6333 51.5884 13.86 52.3084 13.86C53.3484 13.86 54.0884 13.4133 54.5284 12.52H57.5484C57.2284 13.5867 56.6151 14.4667 55.7084 15.16C54.8018 15.84 53.6884 16.18 52.3684 16.18C51.3018 16.18 50.3418 15.9467 49.4884 15.48C48.6484 15 47.9884 14.3267 47.5084 13.46C47.0418 12.5933 46.8084 11.5933 46.8084 10.46C46.8084 9.31333 47.0418 8.30667 47.5084 7.44C47.9751 6.57333 48.6284 5.90667 49.4684 5.44C50.3084 4.97333 51.2751 4.74 52.3684 4.74C53.4218 4.74 54.3618 4.96667 55.1884 5.42C56.0284 5.87333 56.6751 6.52 57.1284 7.36C57.5951 8.18667 57.8284 9.14 57.8284 10.22ZM54.9284 9.42C54.9151 8.7 54.6551 8.12667 54.1484 7.7C53.6418 7.26 53.0218 7.04 52.2884 7.04C51.5951 7.04 51.0084 7.25333 50.5284 7.68C50.0618 8.09333 49.7751 8.67333 49.6684 9.42H54.9284ZM70.1722 10.22C70.1722 10.62 70.1455 10.98 70.0922 11.3H61.9922C62.0589 12.1 62.3389 12.7267 62.8322 13.18C63.3255 13.6333 63.9322 13.86 64.6522 13.86C65.6922 13.86 66.4322 13.4133 66.8722 12.52H69.8922C69.5722 13.5867 68.9589 14.4667 68.0522 15.16C67.1455 15.84 66.0322 16.18 64.7122 16.18C63.6455 16.18 62.6855 15.9467 61.8322 15.48C60.9922 15 60.3322 14.3267 59.8522 13.46C59.3855 12.5933 59.1522 11.5933 59.1522 10.46C59.1522 9.31333 59.3855 8.30667 59.8522 7.44C60.3189 6.57333 60.9722 5.90667 61.8122 5.44C62.6522 4.97333 63.6189 4.74 64.7122 4.74C65.7655 4.74 66.7055 4.96667 67.5322 5.42C68.3722 5.87333 69.0189 6.52 69.4722 7.36C69.9389 8.18667 70.1722 9.14 70.1722 10.22ZM67.2722 9.42C67.2589 8.7 66.9989 8.12667 66.4922 7.7C65.9855 7.26 65.3655 7.04 64.6322 7.04C63.9389 7.04 63.3522 7.25333 62.8722 7.68C62.4055 8.09333 62.1189 8.67333 62.0122 9.42H67.2722ZM76.4559 16.18C75.5493 16.18 74.7359 16.02 74.0159 15.7C73.2959 15.3667 72.7226 14.92 72.2959 14.36C71.8826 13.8 71.6559 13.18 71.6159 12.5H74.4359C74.4893 12.9267 74.6959 13.28 75.0559 13.56C75.4293 13.84 75.8893 13.98 76.4359 13.98C76.9693 13.98 77.3826 13.8733 77.6759 13.66C77.9826 13.4467 78.1359 13.1733 78.1359 12.84C78.1359 12.48 77.9493 12.2133 77.5759 12.04C77.2159 11.8533 76.6359 11.6533 75.8359 11.44C75.0093 11.24 74.3293 11.0333 73.7959 10.82C73.2759 10.6067 72.8226 10.28 72.4359 9.84C72.0626 9.4 71.8759 8.80667 71.8759 8.06C71.8759 7.44667 72.0493 6.88667 72.3959 6.38C72.7559 5.87333 73.2626 5.47333 73.9159 5.18C74.5826 4.88667 75.3626 4.74 76.2559 4.74C77.5759 4.74 78.6293 5.07333 79.4159 5.74C80.2026 6.39333 80.6359 7.28 80.7159 8.4H78.0359C77.9959 7.96 77.8093 7.61333 77.4759 7.36C77.1559 7.09333 76.7226 6.96 76.1759 6.96C75.6693 6.96 75.2759 7.05333 74.9959 7.24C74.7293 7.42667 74.5959 7.68667 74.5959 8.02C74.5959 8.39333 74.7826 8.68 75.1559 8.88C75.5293 9.06667 76.1093 9.26 76.8959 9.46C77.6959 9.66 78.3559 9.86667 78.8759 10.08C79.3959 10.2933 79.8426 10.6267 80.2159 11.08C80.6026 11.52 80.8026 12.1067 80.8159 12.84C80.8159 13.48 80.6359 14.0533 80.2759 14.56C79.9293 15.0667 79.4226 15.4667 78.7559 15.76C78.1026 16.04 77.3359 16.18 76.4559 16.18Z" fill="url(#paint0_linear_2362_4006)"/>
<defs>
<linearGradient id="paint0_linear_2362_4006" x1="-1" y1="10.2329" x2="76.2645" y2="10.0251" gradientUnits="userSpaceOnUse">
<stop stop-color="#2E0568"/>
<stop offset="1" stop-color="#B04ADF"/>
</linearGradient>
</defs>
</svg>
