<svg width="40" height="40" viewBox="0 0 40 40" fill="none" xmlns="http://www.w3.org/2000/svg">
<path d="M20 0C8.96842 0 0 8.96842 0 20C0 31.0316 8.96842 40 20 40C31.0316 40 40 31.0316 40 20C40 8.96842 31.0316 0 20 0ZM20 11.4526C23.4528 11.4526 26.2738 14.2737 26.2738 17.7264C26.2738 21.1791 23.4527 24.0001 20 24.0001C16.5473 24.0001 13.7262 21.1791 13.7262 17.7264C13.7262 14.2737 16.5473 11.4526 20 11.4526ZM9.05263 32.1263V31.2C9.05263 28.5473 11.1999 26.358 13.8946 26.358H26.1051C28.7578 26.358 30.9471 28.5053 30.9471 31.2V32.1263C28.0417 34.7368 24.2101 36.3368 19.9997 36.3368C15.7898 36.3368 11.9579 34.7368 9.05263 32.1263Z" fill="#E0DCE5"/>
</svg>
