<svg width="40" height="40" viewBox="0 0 40 40" fill="none" xmlns="http://www.w3.org/2000/svg">
<g clip-path="url(#clip0_2574_8399)">
<path d="M27 21.5901V18.0001C26.9976 16.4678 26.4925 14.9787 25.5622 13.7612C24.6319 12.5437 23.3278 11.665 21.85 11.2601C21.6993 10.8933 21.443 10.5795 21.1136 10.3587C20.7842 10.1379 20.3966 10.02 20 10.02C19.6035 10.02 19.2158 10.1379 18.8864 10.3587C18.557 10.5795 18.3007 10.8933 18.15 11.2601C16.6722 11.665 15.3682 12.5437 14.4379 13.7612C13.5076 14.9787 13.0024 16.4678 13 18.0001V21.5901L11.29 23.2901C11.1973 23.3835 11.124 23.4943 11.0742 23.6162C11.0245 23.738 10.9993 23.8685 11 24.0001V26.0001C11 26.2653 11.1054 26.5197 11.2929 26.7072C11.4804 26.8947 11.7348 27.0001 12 27.0001H28C28.2652 27.0001 28.5196 26.8947 28.7071 26.7072C28.8947 26.5197 29 26.2653 29 26.0001V24.0001C29.0008 23.8685 28.9756 23.738 28.9258 23.6162C28.876 23.4943 28.8027 23.3835 28.71 23.2901L27 21.5901ZM27 25.0001H13V24.4101L14.71 22.7101C14.8027 22.6166 14.876 22.5058 14.9258 22.384C14.9756 22.2622 15.0008 22.1317 15 22.0001V18.0001C15 16.674 15.5268 15.4022 16.4645 14.4646C17.4022 13.5269 18.6739 13.0001 20 13.0001C21.3261 13.0001 22.5979 13.5269 23.5356 14.4646C24.4732 15.4022 25 16.674 25 18.0001V22.0001C24.9993 22.1317 25.0245 22.2622 25.0742 22.384C25.124 22.5058 25.1973 22.6166 25.29 22.7101L27 24.4101V25.0001ZM20 30.0001C20.619 29.9983 21.2222 29.8052 21.7271 29.4471C22.2319 29.0891 22.6137 28.5836 22.82 28.0001H17.18C17.3863 28.5836 17.7681 29.0891 18.273 29.4471C18.7778 29.8052 19.3811 29.9983 20 30.0001Z" fill="#191819"/>
</g>
<defs>
<clipPath id="clip0_2574_8399">
<rect width="18" height="20" fill="white" transform="translate(11 10)"/>
</clipPath>
</defs>
</svg>
