<svg width="20" height="23" viewBox="0 0 20 23" fill="none" xmlns="http://www.w3.org/2000/svg">
<path fill-rule="evenodd" clip-rule="evenodd" d="M0.395247 16.978L0.395246 5.65964L0.394986 5.65948L10.1974 4.53479e-05L10.1974 0L19.9999 5.65944L10.1976 11.3188L10.1976 11.3187L16.1298 7.89376L10.1974 4.4687V4.46873L4.26507 7.89378L4.26534 7.89394L4.26534 14.7439L10.1976 11.3189L10.1977 11.319L10.1974 11.3191L10.1975 11.3192L4.2656 14.744L10.198 18.169V18.1689L16.1298 14.7442L19.9994 16.9783L10.197 22.6378V22.6378L0.394531 16.9784L0.395247 16.978ZM16.1302 14.744L20.0001 16.9783V5.65941L10.1977 11.3188L10.1977 11.3189L10.1977 11.3189L16.1301 7.89384V14.7437L16.1303 14.7439L16.1302 14.744Z" fill="#375BD2"/>
</svg>
