<svg width="48" height="44" viewBox="0 0 48 44" fill="none" xmlns="http://www.w3.org/2000/svg">
<path d="M42.7378 9.95326L42.7378 9.95274L42.7244 9.9532C37.1225 10.1459 36.7931 18.0209 42.231 18.7605C42.1577 18.9662 42.0824 19.1762 42.0058 19.3898C41.2816 21.4084 40.4435 23.7443 40.1847 25.776L40.1846 25.777C40.1125 26.2629 40.447 26.7161 40.9331 26.7902C41.4204 26.8645 41.8757 26.5296 41.95 26.0423L41.95 26.0423L41.9505 26.0387C42.1786 24.1799 43.0324 21.8067 43.758 19.7899C43.915 19.3534 44.0661 18.9335 44.2035 18.5392C48.8042 16.8664 47.7166 10.0356 42.7378 9.95326ZM42.7247 17.0107L42.7083 17.0113C39.2455 16.8778 39.2528 11.8522 42.7287 11.7383C46.2141 11.8519 46.2128 16.9009 42.7247 17.0107Z" fill="white" stroke="white" stroke-width="0.25"/>
<path d="M3.79218 18.538C-0.802127 16.8652 0.284985 10.0311 5.26983 9.9528L5.27159 9.9618L5.27161 9.95297C6.50862 9.95589 7.68804 10.476 8.52402 11.3876C9.34842 12.2862 9.7649 13.4846 9.67675 14.6992L15.4813 21.3933C15.4813 21.3933 15.4814 21.3934 15.4814 21.3934C15.7291 21.6785 16.0986 21.8268 16.4746 21.7916C16.8507 21.7565 17.1864 21.5424 17.377 21.2163C17.377 21.2163 17.3771 21.2163 17.3771 21.2163L21.0974 14.8438C20.7738 14.5421 20.3062 14.0415 20.0397 13.5283C19.8961 13.2516 19.8026 12.9556 19.8374 12.6776C19.8734 12.3895 20.0442 12.1429 20.3802 11.9699L20.3921 11.9637L20.3924 11.9644C20.8518 11.7868 21.3689 12.0154 21.5466 12.4748C21.8454 13.2456 22.4888 13.8314 23.2837 14.0566L23.2837 14.0566C24.0792 14.2822 24.9341 14.1217 25.5931 13.6229C26.2521 13.1237 26.6385 12.3448 26.6372 11.5183C26.6309 10.6965 26.2418 9.92443 25.5849 9.43039C24.9278 8.93624 24.0779 8.77643 23.2867 8.99861L23.2529 8.87826L23.2867 8.99861C22.4952 9.22077 21.8526 9.79892 21.5485 10.5627C21.3695 11.0221 20.8519 11.2502 20.3921 11.0714C19.9321 10.8926 19.7042 10.3752 19.8829 9.91507C20.2022 9.08374 20.7672 8.36892 21.5026 7.86601C22.2377 7.36313 23.1086 7.09606 23.9993 7.09964M3.79218 18.538L23.9992 7.22465M3.79218 18.538L5.07294 22.1477L5.07284 22.1477L5.07479 22.1526C5.82607 24.0181 6.13663 26.2041 6.25811 28.4302C6.34845 30.0857 6.33404 31.7558 6.32047 33.3285C6.31605 33.8407 6.31173 34.3426 6.31113 34.8302C2.03644 36.4551 3.08068 42.8505 7.76802 42.9221H7.76993L40.2284 42.9225L40.2302 42.9225C44.9009 42.8552 45.9751 36.4635 41.6894 34.8307V29.3607C41.6894 29.266 41.6935 29.1693 41.698 29.0672C41.7011 28.9952 41.7043 28.9206 41.7063 28.8421C41.7108 28.6597 41.7077 28.4682 41.6733 28.2918C41.6387 28.1148 41.5707 27.9436 41.4382 27.8111C41.3041 27.6771 41.1164 27.5951 40.867 27.5742L40.867 27.574L40.8592 27.5738C40.6023 27.5685 40.4023 27.6356 40.2532 27.763C40.1061 27.8887 40.0218 28.0616 39.9726 28.2439C39.8924 28.5411 39.8979 28.8997 39.9023 29.193C39.9032 29.252 39.9041 29.3083 39.9042 29.361V34.5616C38.4239 34.5643 30.9264 34.5627 26.6991 34.5618C25.4 34.5616 24.4097 34.5614 23.9978 34.5614H14.368C13.8753 34.5614 13.4756 34.9607 13.4756 35.4538C13.4756 35.9469 13.8753 36.3461 14.368 36.3461H40.2374C41.0844 36.3604 41.8611 36.821 42.2799 37.5575C42.6988 38.2942 42.6968 39.1976 42.2751 39.933C41.8532 40.6679 41.0747 41.1255 40.2272 41.1359H7.77243C4.61575 41.0365 4.60127 36.4618 7.76316 36.3461H11.8092C11.8093 36.3461 11.8094 36.3461 11.8095 36.3461C12.3024 36.346 12.7019 35.9468 12.7019 35.4538C12.7019 34.9606 12.3022 34.5614 11.8092 34.5614H10.6016L10.6001 34.5613L10.592 34.5611L10.5683 34.5608L10.4836 34.5604C10.4113 34.5602 10.3085 34.5601 10.1856 34.56C9.93963 34.5599 9.61245 34.56 9.28527 34.5602L8.38479 34.5609L8.09711 34.5612C8.09902 34.1886 8.10238 33.8101 8.10578 33.4268C8.14033 29.5299 8.1792 25.1464 6.7547 21.5487L5.76674 18.7634C7.11762 18.6108 8.32361 17.8447 9.03605 16.6873L14.1315 22.5629L14.1323 22.5639C14.7619 23.2754 15.6929 23.6439 16.6385 23.5556L16.6386 23.5556C17.5845 23.4669 18.4314 22.9327 18.9179 22.1167L18.9185 22.1157L22.6472 15.7225C23.5246 16.0105 24.4714 16.0105 25.3491 15.7226L3.79218 18.538ZM23.9993 7.09964C23.9995 7.09965 23.9996 7.09965 23.9998 7.09965L23.9992 7.22465M23.9993 7.09964C23.9992 7.09965 23.999 7.09965 23.9989 7.09965L23.9992 7.22465M23.9993 7.09964C28.0683 7.08762 29.9524 12.2194 26.9029 14.8425M23.9992 7.22465C27.9872 7.21249 29.8151 12.2884 26.7419 14.8146M26.9029 14.8425L26.8499 14.7516L26.7419 14.8146M26.9029 14.8425L30.6219 21.2133M26.9029 14.8425C26.8761 14.8656 26.8489 14.8885 26.8213 14.9112L26.7419 14.8146M26.7419 14.8146L30.6219 21.2133M30.6219 21.2133L30.5146 21.2775L30.6226 21.2144L30.6222 21.2138C30.6221 21.2136 30.622 21.2134 30.6219 21.2133ZM32.5186 21.3917L32.5182 21.3922L32.6126 21.4741L32.5191 21.3911C32.519 21.3913 32.5188 21.3915 32.5186 21.3917ZM38.2061 17.5639L38.2061 17.5638L38.1117 17.4818L38.2061 17.5639ZM5.26786 17.0104L5.25145 17.0109C1.78879 16.8775 1.79614 11.8519 5.27181 11.738C8.75458 11.8515 8.7533 16.9006 5.26786 17.0104Z" fill="white" stroke="white" stroke-width="0.25"/>
<path d="M24.8922 3.50739V1.76774C24.8922 1.27476 24.4929 0.875 23.9998 0.875C23.5067 0.875 23.1074 1.27476 23.1074 1.76774V3.50739C23.1074 4.00045 23.5067 4.39978 23.9998 4.39978C24.4929 4.39978 24.8922 4.00045 24.8922 3.50739Z" fill="white" stroke="white" stroke-width="0.25"/>
<path d="M31.1016 5.35176L31.1034 5.34209L31.9435 4.65409L32.0642 4.68643L32.0642 4.68643L32.5147 3.00499L32.5147 3.00493C32.6421 2.5285 32.3591 2.03879 31.8826 1.91138C31.4062 1.78398 30.9169 2.06662 30.7891 2.54299L30.7891 2.54302L30.3387 4.22383L30.32 4.29346L30.3228 4.2963C30.2853 4.50348 30.3224 4.7181 30.4287 4.90167C30.5474 5.10667 30.7424 5.2561 30.9716 5.31712L31.1016 5.35176Z" fill="white" stroke="white" stroke-width="0.25"/>
<path d="M39.2253 4.95465C38.7982 4.70811 38.252 4.85462 38.0056 5.28168L38.0056 5.28168L37.1357 6.78897L37.119 6.81796V6.82026C36.9795 7.09081 36.9869 7.41487 37.14 7.67954C37.2985 7.95457 37.5909 8.12497 37.9082 8.12788L38.2074 8.13063L38.1678 8.08985C38.3821 8.02516 38.5676 7.88103 38.6828 7.68171L38.6828 7.68163L39.5527 6.17434L39.5527 6.17423C39.7988 5.74687 39.6523 5.20112 39.2253 4.95465ZM39.2253 4.95465L39.1628 5.0629L39.2253 4.95464C39.2253 4.95464 39.2253 4.95464 39.2253 4.95465Z" fill="white" stroke="white" stroke-width="0.25"/>
<path d="M15.9337 4.68642C16.0291 5.04235 16.3318 5.29925 16.6908 5.3418L16.692 5.34857L16.7978 5.34809C17.0746 5.34685 17.3355 5.21739 17.5042 4.99762L17.5043 4.9976C17.6728 4.77803 17.73 4.49223 17.6595 4.22468L17.6593 4.22419L17.2131 2.55928V2.55895L17.2089 2.54309C17.0815 2.06655 16.5917 1.784 16.1154 1.91138C15.6388 2.03882 15.3563 2.52859 15.4836 3.00493L15.4837 3.00499L15.892 4.52909H15.8916L15.9337 4.68642Z" fill="white" stroke="white" stroke-width="0.25"/>
<path d="M10.75 7.61705L10.8582 7.67965C11.017 7.40513 11.0191 7.06669 10.8631 6.79035L10.8631 6.79035L10.8625 6.78933L10.0094 5.31104V5.31067L9.9927 5.28167C9.74619 4.85463 9.20004 4.7081 8.77298 4.95465C8.34594 5.20116 8.19948 5.74689 8.44554 6.17424L8.4456 6.17434L9.31543 7.68163L9.31547 7.68171C9.43142 7.88229 9.61848 8.02698 9.83445 8.09106L9.7973 8.13057L10.0901 8.12789C10.4074 8.12499 10.6998 7.95455 10.8583 7.67946L10.75 7.61705ZM10.75 7.61705C10.6474 7.79509 10.4796 7.92221 10.2865 7.97533L9.88444 5.34452L10.7543 6.8518C10.8885 7.08952 10.8867 7.38077 10.75 7.61705Z" fill="white" stroke="white" stroke-width="0.25"/>
<path d="M24.632 31.2528L24.5435 31.1645L24.6319 31.2529M24.632 31.2528L23.3693 31.2529C23.5367 31.4207 23.7638 31.5144 24.0006 31.5144C24.2374 31.5144 24.4645 31.4207 24.6319 31.2529M24.632 31.2528C24.6319 31.2529 24.6319 31.2529 24.6319 31.2529M24.632 31.2528L24.6319 31.2529M20.8159 28.6995L23.3692 31.2528L24.632 24.8844L24.5435 24.9727L24.6319 24.8843L24.6319 24.8843C24.4646 24.7166 24.2376 24.6225 24.0012 24.6221H24.0009C23.8538 24.6221 23.7104 24.6583 23.5827 24.7258V24.6697L23.3693 24.8832L20.8159 27.4377C20.8159 27.4377 20.8159 27.4377 20.8159 27.4377C20.4676 27.786 20.4676 28.3512 20.8159 28.6995ZM25.2918 28.0675L24.0006 29.3591L22.7093 28.0679L24.0006 26.776L25.2918 28.0675Z" fill="white" stroke="white" stroke-width="0.25"/>
<path d="M20.1662 27.6008L20.1745 27.5912L20.067 27.5106C19.6527 27.1997 19.3053 26.9257 19.009 26.6902C18.9608 26.6518 18.9139 26.6144 18.8682 26.578C18.634 26.3915 18.4325 26.231 18.2567 26.0994C18.0472 25.9425 17.8674 25.8215 17.7053 25.744C17.542 25.6659 17.3877 25.6278 17.232 25.6479C17.0764 25.668 16.9369 25.744 16.7986 25.861C16.6615 25.9771 16.5183 26.1398 16.3555 26.3447C16.219 26.5163 16.0651 26.7222 15.8862 26.9615C15.851 27.0086 15.8148 27.0571 15.7775 27.1069C15.5714 27.3821 15.3325 27.6987 15.0491 28.0585L15.0467 28.0562L14.9601 28.1703C14.6635 28.5605 14.7353 29.1167 15.1214 29.419L15.1221 29.4196L17.2982 31.0989L17.299 31.0995C17.6893 31.3961 18.2455 31.3239 18.5474 30.9378L18.5479 30.9371L20.2273 28.7614L20.2278 28.7607C20.4974 28.4062 20.4636 27.915 20.1662 27.6008ZM18.2723 28.3788L17.6836 29.142L16.9207 28.5528L17.5093 27.7902L18.2723 28.3788Z" fill="white" stroke="white" stroke-width="0.25"/>
<path d="M14.3495 28.329L14.3493 28.3249L14.2936 28.2904C13.9317 28.0662 13.6196 27.8642 13.3502 27.6899C13.0726 27.5102 12.8403 27.3599 12.6455 27.2448C12.4509 27.1298 12.2823 27.0427 12.1308 26.9913C11.9778 26.9395 11.8349 26.9215 11.6955 26.9532C11.5562 26.9849 11.4351 27.0629 11.3195 27.1757C11.2051 27.2875 11.0906 27.4389 10.9648 27.6265C10.8396 27.8131 10.696 28.047 10.5245 28.3264C10.356 28.6009 10.1605 28.9192 9.92942 29.2793L9.92941 29.2793L9.92851 29.2807C9.66882 29.6976 9.79334 30.2458 10.2071 30.5104L10.2078 30.5108L12.1302 31.723L12.1303 31.723C12.3308 31.8492 12.5733 31.8903 12.8043 31.8376L12.8044 31.8376C13.0351 31.7849 13.2355 31.6426 13.3613 31.4422C13.3613 31.4421 13.3614 31.4421 13.3614 31.442L14.4899 29.6526L14.4912 29.6539L14.5743 29.5197C14.8209 29.1215 14.7187 28.6048 14.3495 28.329ZM12.5874 29.3252L12.3274 29.7373L11.9149 29.4773L12.1749 29.0646L12.5874 29.3252Z" fill="white" stroke="white" stroke-width="0.25"/>
<path d="M30.768 25.6538C30.5476 25.6254 30.3255 25.6803 30.1441 25.8063H30.1412L30.1071 25.8334C29.7009 26.1559 29.3473 26.4229 29.0441 26.6499C28.9933 26.6879 28.9439 26.7249 28.8959 26.7608C28.6575 26.9389 28.4524 27.0923 28.2814 27.2281C28.0765 27.391 27.9139 27.534 27.7979 27.6709C27.681 27.809 27.6051 27.9484 27.5852 28.1038C27.5654 28.2592 27.6039 28.4133 27.6822 28.5764C27.7599 28.7382 27.8811 28.9176 28.0381 29.127C28.1678 29.2999 28.3254 29.4979 28.5083 29.7275C28.5474 29.7766 28.5877 29.8271 28.6291 29.8792C28.8646 30.1755 29.1385 30.5231 29.4491 30.9379L29.4866 30.9879H29.4914C29.8008 31.3316 30.3263 31.3851 30.6999 31.1013L30.7006 31.1008L32.8782 29.4214L32.8789 29.4209C33.265 29.1185 33.3368 28.5624 33.0398 28.172L33.0393 28.1714L31.3607 25.9938L31.3607 25.9937C31.2159 25.8063 31.003 25.6837 30.7678 25.6538L30.752 25.7778L30.768 25.6538ZM31.08 28.5528L30.317 29.1417L29.7284 28.3788L30.4914 27.7902L31.08 28.5528Z" fill="white" stroke="white" stroke-width="0.25"/>
<path d="M36.8629 27.3584L38.0734 29.2791L38.0737 29.2796C38.3338 29.6965 38.2094 30.2453 37.795 30.5091L37.7945 30.5094L35.8722 31.7215L36.8629 27.3584ZM36.8629 27.3584C36.8629 27.3584 36.8629 27.3584 36.8628 27.3583M36.8629 27.3584L36.8628 27.3583M36.8628 27.3583C36.737 27.1579 36.5366 27.0155 36.3055 26.9628L36.8628 27.3583ZM35.1986 31.8374C35.4297 31.8896 35.6717 31.8481 35.8721 31.7216L36.3054 26.9628C36.1444 26.926 35.9776 26.935 35.8234 26.9866V26.9546L35.6309 27.0779C35.2757 27.3055 34.9615 27.4984 34.6897 27.6651C34.4051 27.8398 34.1671 27.9859 33.9776 28.1132C33.6106 28.3597 33.3669 28.5708 33.3047 28.8456C33.2425 29.1204 33.3716 29.4158 33.5963 29.7962C33.7118 29.9917 33.8626 30.2247 34.0429 30.5033C34.2166 30.7716 34.4176 31.0821 34.6406 31.4419L34.641 31.4426C34.7672 31.643 34.9677 31.785 35.1985 31.8373L35.1986 31.8374ZM36.0889 29.4755L35.6764 29.7358L35.4163 29.3234L35.8289 29.0628L36.0889 29.4755Z" fill="white" stroke="white" stroke-width="0.25"/>
<path d="M8.5584 37.8491C8.0657 37.8491 7.66602 38.2488 7.66602 38.7415C7.66602 39.2345 8.06566 39.6342 8.5584 39.6342H10.8349C11.3279 39.6342 11.7276 39.2346 11.7276 38.7415C11.7276 38.2488 11.3279 37.8491 10.8349 37.8491H8.5584Z" fill="white" stroke="white" stroke-width="0.25"/>
<path d="M17.9849 39.6343C18.478 39.6343 18.8776 39.2346 18.8776 38.7415C18.8776 38.2488 18.4779 37.8491 17.9849 37.8491H15.7092C15.2161 37.8491 14.8164 38.2488 14.8164 38.7415C14.8164 39.2346 15.2161 39.6343 15.7092 39.6343H17.9849Z" fill="white" stroke="white" stroke-width="0.25"/>
<path d="M25.1383 39.6343C25.6311 39.6343 26.0307 39.2345 26.0307 38.7415C26.0307 38.2488 25.6311 37.8491 25.1383 37.8491H22.8611C22.3684 37.8491 21.9688 38.2488 21.9688 38.7415C21.9688 39.2345 22.3684 39.6343 22.8611 39.6343H25.1383Z" fill="white" stroke="white" stroke-width="0.25"/>
<path d="M32.2896 39.6343C32.7826 39.6343 33.1823 39.2346 33.1823 38.7415C33.1823 38.2488 32.7826 37.8491 32.2896 37.8491H30.0138C29.5208 37.8491 29.1211 38.2488 29.1211 38.7415C29.1211 39.2346 29.5208 39.6343 30.0138 39.6343H32.2896Z" fill="white" stroke="white" stroke-width="0.25"/>
<path d="M39.4407 39.6343C39.9334 39.6343 40.3331 39.2345 40.3331 38.7415C40.3331 38.2488 39.9334 37.8491 39.4407 37.8491H37.1642C36.6712 37.8491 36.2715 38.2488 36.2715 38.7415C36.2715 39.2346 36.6712 39.6343 37.1642 39.6343H39.4407Z" fill="white" stroke="white" stroke-width="0.25"/>
</svg>
