<svg width="31" height="51" viewBox="0 0 31 51" fill="none" xmlns="http://www.w3.org/2000/svg">
<path d="M0.598239 42.4488V29.6655C0.598239 27.5579 2.03608 25.8986 3.67378 24.7689C1.74509 22.2366 0.598239 19.067 0.598239 15.6276C0.598239 7.32992 7.2709 0.603162 15.5 0.603162C23.7296 0.603162 30.4018 7.3301 30.4018 15.6276C30.4018 19.0666 29.2548 22.2363 27.3269 24.7689C28.9646 25.8986 30.4018 27.5582 30.4018 29.6655V42.4488C30.4018 48.5897 20.0487 50.3968 15.5 50.3968C10.928 50.3968 0.598239 48.5879 0.598239 42.4488ZM6.38783 46.6356V42.3862C5.01209 41.8305 3.64449 41.0768 2.55486 40.0586V42.4489C2.55486 44.4405 4.80698 45.8925 6.38783 46.6356ZM6.38783 40.244V35.9947C5.01137 35.4382 3.64594 34.686 2.55486 33.667V36.0574C2.55486 38.0489 4.80698 39.501 6.38783 40.244ZM15.5006 35.6422C18.746 35.6422 28.4462 34.2769 28.4462 29.6658C28.4462 28.1869 27.1697 27.0043 26.0285 26.2613C23.3325 28.9745 19.6108 30.6524 15.501 30.6524C11.3911 30.6524 7.669 28.9749 4.97349 26.2613C3.8326 27.0046 2.55576 28.1873 2.55576 29.6658C2.55576 34.2641 12.2093 35.6422 15.5006 35.6422ZM8.34381 36.6633V41.0023C9.14784 41.2572 10.0126 41.4701 10.9251 41.6353V37.2421C10.0236 37.0908 9.15954 36.8961 8.34381 36.6633ZM8.34381 43.0548V47.3932C9.14784 47.6481 10.0126 47.8617 10.9251 48.0269V43.633C10.0236 43.4824 9.16027 43.2876 8.34381 43.0548ZM28.446 40.0589C25.2723 43.0224 19.6353 44.0058 15.5005 44.0058C14.6067 44.0058 13.7314 43.9648 12.8804 43.8865V48.2986C13.7272 48.3819 14.6029 48.4253 15.5005 48.4253C18.7458 48.4253 28.446 47.0607 28.446 42.4496V40.0589ZM28.446 33.6674C25.273 36.6309 19.6353 37.6142 15.5005 37.6142C14.6067 37.6142 13.7314 37.5733 12.8804 37.4949V41.907C13.7272 41.9903 14.6029 42.0341 15.5005 42.0341C18.7458 42.0341 28.446 40.6688 28.446 36.0577V33.6674ZM15.5005 2.57597C8.35032 2.57597 2.55486 8.41922 2.55486 15.6281C2.55486 22.8367 8.35041 28.6802 15.5005 28.6802C22.6505 28.6802 28.446 22.837 28.446 15.6281C28.446 8.41922 22.6505 2.57597 15.5005 2.57597ZM16.4785 24.7266C16.4785 26.0232 14.5223 26.0232 14.5223 24.7266V23.2424C12.5695 22.7867 11.1794 21.0259 11.1794 18.9987C11.1794 17.7014 13.1357 17.7014 13.1357 18.9987C13.1357 20.316 14.194 21.3829 15.5005 21.3829C16.8069 21.3829 17.8652 20.316 17.8652 18.9987C17.8652 17.6815 16.8069 16.6145 15.5005 16.6145C13.1142 16.6145 11.1794 14.6632 11.1794 12.2579C11.1794 10.2308 12.5696 8.46926 14.5223 8.01356V6.53007C14.5223 5.23279 16.4785 5.23279 16.4785 6.53007V8.01356C18.4313 8.46926 19.8214 10.2308 19.8214 12.2579C19.8214 13.5546 17.8651 13.5546 17.8651 12.2579C17.8651 10.9407 16.8069 9.87335 15.5004 9.87335C14.1939 9.87335 13.1356 10.9411 13.1356 12.2579C13.1356 13.5752 14.1939 14.6422 15.5004 14.6422C17.8866 14.6422 19.8214 16.5927 19.8214 18.9987C19.8214 21.0259 18.4312 22.7867 16.4785 23.2424V24.7266Z" fill="white"/>
<path fill-rule="evenodd" clip-rule="evenodd" d="M15.5006 35.6422C18.746 35.6422 28.4462 34.2769 28.4462 29.6658C28.4462 28.1869 27.1697 27.0043 26.0285 26.2613C23.3325 28.9745 19.6108 30.6524 15.501 30.6524C11.3911 30.6524 7.669 28.9749 4.97349 26.2613C3.8326 27.0046 2.55576 28.1873 2.55576 29.6658C2.55576 34.2641 12.2093 35.6422 15.5006 35.6422C15.5009 35.6422 15.5004 35.6422 15.5006 35.6422ZM15.5006 35.0391C13.9076 35.039 10.7349 34.7015 7.97807 33.8044C6.59825 33.3553 5.36636 32.7799 4.49066 32.0696C3.62207 31.3651 3.154 30.5735 3.154 29.6658C3.154 29.1093 3.39353 28.5743 3.8012 28.0681C4.11122 27.6832 4.50224 27.336 4.90882 27.0372C7.67923 29.6533 11.4055 31.2556 15.501 31.2556C19.5965 31.2556 23.3225 29.6529 26.0932 27.037C26.4999 27.3357 26.8909 27.6829 27.2009 28.0678C27.6085 28.5739 27.848 29.109 27.848 29.6658C27.848 30.5761 27.3777 31.3692 26.5055 32.0744C25.6263 32.7855 24.3901 33.3607 23.0073 33.809C20.2446 34.7047 17.0709 35.039 15.5006 35.0391ZM8.34381 47.3932C8.97002 47.5918 9.63309 47.7653 10.3268 47.9103C10.5238 47.9515 10.7233 47.9904 10.9251 48.0269V43.633C10.2408 43.5187 9.57853 43.3789 8.94205 43.2164C8.74001 43.1648 8.54053 43.1109 8.34381 43.0548C8.34383 43.0548 8.34379 43.0548 8.34381 43.0548V47.3932ZM8.94205 43.8381V46.9451C9.38605 47.0743 9.84836 47.191 10.3268 47.294V44.1393C9.8542 44.0507 9.39219 43.95 8.94205 43.8381ZM0 42.4488V29.6655C0 27.4992 1.32826 25.8091 2.835 24.6379C1.04959 22.0916 0 18.9823 0 15.6276C0 6.99678 6.94053 0 15.5 0C24.0599 0 31 6.99698 31 15.6276C31 18.982 29.9503 22.0913 28.1655 24.6378C29.6723 25.8091 31 27.4995 31 29.6655V42.4488C31 45.9288 28.0632 48.0557 24.8707 49.2889C21.6306 50.5405 17.8296 51 15.5 51C13.1589 51 9.35777 50.54 6.12037 49.2881C2.93012 48.0545 0 45.9273 0 42.4488ZM27.8109 25.1236C29.2376 26.235 30.4018 27.769 30.4018 29.6655V42.4488C30.4018 48.5897 20.0487 50.3968 15.5 50.3968C10.928 50.3968 0.598239 48.5879 0.598239 42.4488V29.6655C0.598239 27.7687 1.76288 26.2349 3.18969 25.1236C3.34823 25.0001 3.51 24.8818 3.67378 24.7689C3.55232 24.6094 3.43396 24.4474 3.31879 24.283C1.60519 21.8363 0.598239 18.8504 0.598239 15.6276C0.598239 7.32992 7.2709 0.603162 15.5 0.603162C23.7296 0.603162 30.4018 7.3301 30.4018 15.6276C30.4018 18.85 29.3947 21.836 27.6817 24.2829C27.5666 24.4473 27.4483 24.6094 27.3269 24.7689C27.4906 24.8819 27.6524 25.0001 27.8109 25.1236ZM5.78959 42.7893C4.88294 42.3988 3.97795 41.9172 3.1531 41.3233V42.4489C3.1531 43.2026 3.5797 43.9143 4.28336 44.5664C4.73246 44.9826 5.26436 45.3454 5.78959 45.6467V42.7893ZM6.38783 42.3862C5.25366 41.928 4.12502 41.3354 3.1531 40.5708C2.94609 40.408 2.74619 40.2374 2.55486 40.0586V42.4489C2.55486 44.1995 4.29487 45.5333 5.78959 46.3351C5.99531 46.4454 6.19657 46.5457 6.38783 46.6356C6.38776 46.6356 6.38789 46.6356 6.38783 46.6356V42.3862ZM5.78959 36.3977C4.88255 36.0068 3.9781 35.5256 3.1531 34.9316V36.0574C3.1531 36.8111 3.5797 37.5228 4.28336 38.1749C4.73246 38.591 5.26436 38.9539 5.78959 39.2552V36.3977ZM2.55486 36.0574C2.55486 37.8079 4.29487 39.1417 5.78959 39.9435C5.99531 40.0539 6.19657 40.1541 6.38783 40.244C6.38776 40.244 6.38789 40.2441 6.38783 40.244V35.9947C5.25288 35.5358 4.12543 34.9439 3.1531 34.1791C2.94619 34.0164 2.7463 33.8458 2.55486 33.667V36.0574ZM8.94205 40.5541V37.4466C9.39216 37.5585 9.85427 37.6592 10.3268 37.7481V40.9025C9.84827 40.7996 9.38596 40.6832 8.94205 40.5541ZM10.9251 37.2421C10.2409 37.1273 9.57832 36.9874 8.94205 36.8249C8.73996 36.7733 8.54044 36.7194 8.34381 36.6633C8.34384 36.6633 8.34378 36.6632 8.34381 36.6633V41.0023C8.97002 41.2009 9.63309 41.3739 10.3268 41.5188C10.5238 41.5599 10.7233 41.5988 10.9251 41.6353V37.2421ZM22.4859 43.727C20.1054 44.3585 17.6102 44.6089 15.5005 44.6089C14.8153 44.6089 14.1405 44.5853 13.4787 44.5397V47.7455C14.1367 47.796 14.8118 47.8221 15.5005 47.8221C17.0705 47.8221 20.244 47.488 23.0072 46.5924C24.39 46.1442 25.6262 45.569 26.5054 44.8581C27.3775 44.1529 27.8478 43.3599 27.8478 42.4496V41.3258C26.3036 42.4433 24.417 43.2146 22.4859 43.727ZM27.8478 40.5722C24.6 43.1371 19.3867 44.0058 15.5005 44.0058C14.8148 44.0058 14.14 43.9817 13.4787 43.9351C13.278 43.9209 13.0785 43.9047 12.8804 43.8865V48.2986C13.7272 48.3819 14.6029 48.4253 15.5005 48.4253C18.7458 48.4253 28.446 47.0607 28.446 42.4496V40.0589C28.2552 40.2371 28.0555 40.4081 27.8478 40.5722ZM22.4861 37.3354C20.1055 37.967 17.6102 38.2174 15.5005 38.2174C14.8153 38.2174 14.1405 38.1938 13.4787 38.1481V41.354C14.1368 41.4046 14.8119 41.431 15.5005 41.431C17.0704 41.431 20.244 41.0967 23.0071 40.2009C24.39 39.7526 25.6261 39.1774 26.5054 38.4663C27.3775 37.7611 27.8478 36.968 27.8478 36.0577V34.9344C26.3038 36.0518 24.4172 36.8231 22.4861 37.3354ZM27.8478 34.1807C24.6004 36.7456 19.3866 37.6142 15.5005 37.6142C14.8148 37.6142 14.14 37.5901 13.4787 37.5435C13.278 37.5294 13.0785 37.5132 12.8804 37.4949V41.907C13.7272 41.9903 14.6029 42.0341 15.5005 42.0341C18.7458 42.0341 28.446 40.6688 28.446 36.0577V33.6674C28.2553 33.8456 28.0556 34.0166 27.8478 34.1807ZM15.5005 3.17914C8.68072 3.17914 3.1531 8.75233 3.1531 15.6281C3.1531 22.5036 8.68082 28.0771 15.5005 28.0771C22.3201 28.0771 27.8478 22.5039 27.8478 15.6281C27.8478 8.75234 22.3201 3.17914 15.5005 3.17914ZM14.4336 25.9095C14.1154 25.6283 13.924 25.2174 13.924 24.7266V23.6975C11.9467 23.025 10.5812 21.1427 10.5812 18.9987C10.5812 18.5079 10.7725 18.0968 11.0907 17.8155C11.3972 17.5445 11.7877 17.4226 12.1576 17.4226C12.5274 17.4226 12.9179 17.5445 13.2245 17.8155C13.5426 18.0968 13.7339 18.5079 13.7339 18.9987C13.7339 19.9829 14.5244 20.7798 15.5005 20.7798C16.4765 20.7798 17.267 19.9829 17.267 18.9987C17.267 18.0146 16.4765 17.2177 15.5005 17.2177C12.7837 17.2177 10.5812 14.9963 10.5812 12.2579C10.5812 10.1141 11.9467 8.23105 13.924 7.55842V6.53007C13.924 6.03922 14.1153 5.62819 14.4335 5.34687C14.7401 5.07581 15.1306 4.95395 15.5004 4.95395C15.8702 4.95395 16.2608 5.07581 16.5673 5.34687C16.8855 5.62819 17.0768 6.03922 17.0768 6.53007V7.55841C19.0542 8.23104 20.4196 10.1141 20.4196 12.2579C20.4196 12.7487 20.2282 13.1597 19.91 13.4409C19.6035 13.7118 19.213 13.8336 18.8432 13.8336C18.4735 13.8336 18.083 13.7118 17.7764 13.4409C17.4583 13.1597 17.2669 12.7487 17.2669 12.2579C17.2669 11.2737 16.4763 10.4765 15.5004 10.4765C14.5244 10.4765 13.7338 11.274 13.7338 12.2579C13.7338 13.2421 14.5243 14.039 15.5004 14.039C18.217 14.039 20.4196 16.2596 20.4196 18.9987C20.4196 21.1427 19.054 23.025 17.0768 23.6975V24.7266C17.0768 25.2174 16.8854 25.6283 16.5672 25.9095C16.2606 26.1805 15.8702 26.3022 15.5004 26.3022C15.1306 26.3022 14.7402 26.1805 14.4336 25.9095ZM16.4785 23.2424C18.4312 22.7867 19.8214 21.0259 19.8214 18.9987C19.8214 16.5927 17.8866 14.6422 15.5004 14.6422C14.1939 14.6422 13.1356 13.5752 13.1356 12.2579C13.1356 10.9411 14.1939 9.87335 15.5004 9.87335C16.8069 9.87335 17.8651 10.9407 17.8651 12.2579C17.8651 13.5546 19.8214 13.5546 19.8214 12.2579C19.8214 10.2308 18.4313 8.46926 16.4785 8.01356V6.53007C16.4785 5.23279 14.5223 5.23279 14.5223 6.53007V8.01356C12.5696 8.46926 11.1794 10.2308 11.1794 12.2579C11.1794 14.6632 13.1142 16.6145 15.5005 16.6145C16.8069 16.6145 17.8652 17.6815 17.8652 18.9987C17.8652 20.316 16.8069 21.3829 15.5005 21.3829C14.194 21.3829 13.1357 20.316 13.1357 18.9987C13.1357 17.7014 11.1794 17.7014 11.1794 18.9987C11.1794 21.0259 12.5695 22.7867 14.5223 23.2424V24.7266C14.5223 26.0232 16.4785 26.0232 16.4785 24.7266V23.2424ZM2.55486 15.6281C2.55486 8.41922 8.35032 2.57597 15.5005 2.57597C22.6505 2.57597 28.446 8.41922 28.446 15.6281C28.446 22.837 22.6505 28.6802 15.5005 28.6802C8.35041 28.6802 2.55486 22.8367 2.55486 15.6281Z" fill="white"/>
</svg>
