<svg width="13" height="19" viewBox="0 0 13 19" fill="none" xmlns="http://www.w3.org/2000/svg">
<path d="M12.3347 10.9557C12.3352 11.0521 12.3029 11.1461 12.2431 11.2235L6.96579 18.4599C6.87756 18.5812 6.73292 18.6535 6.5784 18.6535C6.42387 18.6535 6.27922 18.5812 6.191 18.4599L0.908386 11.2152C0.771942 11.032 0.796288 10.7809 0.965761 10.6249C1.13523 10.4692 1.39824 10.4565 1.5834 10.5949L6.57842 14.2265L11.5734 10.5974C11.6491 10.5413 11.741 10.5085 11.8367 10.5036H11.8671C12.126 10.5062 12.3345 10.7076 12.3347 10.9558L12.3347 10.9557Z" fill="#191819"/>
<path d="M11.8637 8.28044L6.98487 0.501707C6.89953 0.365396 6.74572 0.282227 6.57987 0.282227C6.41401 0.282227 6.26021 0.365396 6.17487 0.501707L1.29605 8.28044C1.17238 8.47751 1.22277 8.73211 1.41273 8.87236L6.29105 12.4795C6.46101 12.6054 6.6987 12.6054 6.86866 12.4795L11.747 8.87236C11.9369 8.73212 11.9873 8.47752 11.8637 8.28044H11.8637ZM11.0894 8.35345H11.0896C11.0452 8.44747 10.964 8.52048 10.8635 8.55699C10.7629 8.59349 10.6516 8.59002 10.5537 8.54751L6.72982 6.88637C6.6346 6.84502 6.52515 6.84502 6.42993 6.88637L2.60605 8.54568C2.50794 8.59004 2.39535 8.59466 2.29362 8.55885C2.1919 8.52281 2.10944 8.44934 2.06461 8.35462C2.01977 8.25989 2.01664 8.152 2.05569 8.05497C2.0945 7.95793 2.17261 7.88007 2.27193 7.83872L6.41234 6.03965H6.41258C6.51961 5.99252 6.6428 5.99252 6.75008 6.03965L10.8905 7.83872C11.0935 7.92813 11.1827 8.15824 11.0896 8.353L11.0894 8.35345Z" fill="#191819"/>
</svg>
