<svg width="12" height="20" viewBox="0 0 12 20" fill="none" xmlns="http://www.w3.org/2000/svg">
<path d="M11.8054 11.4184C11.8059 11.5215 11.7727 11.6221 11.7114 11.7048L6.30078 19.4464C6.21032 19.5762 6.06202 19.6535 5.90359 19.6535C5.74516 19.6535 5.59686 19.5761 5.5064 19.4464L0.0902989 11.696C-0.049593 11.5 -0.0246317 11.2313 0.149124 11.0645C0.32288 10.8979 0.592533 10.8843 0.782367 11.0324L5.90362 14.9175L11.0249 11.0351C11.1025 10.975 11.1966 10.9399 11.2948 10.9347H11.3259C11.5914 10.9375 11.8052 11.153 11.8054 11.4184L11.8054 11.4184Z" fill="#522294"/>
<path d="M11.3221 8.55656L6.32003 0.234802C6.23253 0.0889755 6.07484 0 5.90479 0C5.73475 0 5.57705 0.0889755 5.48956 0.234802L0.487456 8.55656C0.360662 8.76739 0.412318 9.03976 0.607081 9.18981L5.60868 13.0487C5.78293 13.1834 6.02663 13.1834 6.20088 13.0487L11.2025 9.18981C11.3972 9.03978 11.4489 8.7674 11.3221 8.55656H11.3221ZM10.5282 8.63467H10.5285C10.483 8.73526 10.3997 8.81336 10.2966 8.85242C10.1936 8.89147 10.0794 8.88776 9.97904 8.84228L6.05854 7.06518C5.9609 7.02093 5.84869 7.02093 5.75106 7.06518L1.83056 8.84032C1.72997 8.88778 1.61454 8.89272 1.51024 8.85441C1.40594 8.81585 1.3214 8.73725 1.27543 8.63592C1.22946 8.53458 1.22625 8.41916 1.26629 8.31535C1.30608 8.21154 1.38616 8.12825 1.48799 8.08401L5.73303 6.15935H5.73328C5.84302 6.10893 5.96932 6.10893 6.07931 6.15935L10.3243 8.08401C10.5325 8.17966 10.6239 8.42583 10.5285 8.63419L10.5282 8.63467Z" fill="#522294"/>
</svg>
