<svg width="637" height="300" viewBox="0 0 637 300" fill="none" xmlns="http://www.w3.org/2000/svg">
<circle cx="610.509" cy="26.0292" r="26.0292" fill="#FDF5FD"/>
<path fill-rule="evenodd" clip-rule="evenodd" d="M609.453 16.3623V13.4281L609.445 13.3855H612.948V16.3339C613.931 16.4831 614.887 16.7701 615.79 17.1864C617.263 17.867 618.553 18.8872 619.555 20.1632L618.383 21.0584L616.621 22.4012C615.74 21.0466 614.358 20.0963 612.777 19.7583C612.275 19.6579 611.763 19.6103 611.25 19.6162C610.395 19.6044 609.547 19.77 608.76 20.1026C607.972 20.4352 607.262 20.9276 606.675 21.5486C606.046 22.1652 605.549 22.9032 605.214 23.7179C604.88 24.5325 604.714 25.4067 604.728 26.2873C604.737 28.0447 605.435 29.7284 606.672 30.977C607.908 32.2256 609.585 32.9396 611.342 32.9656C611.862 32.9727 612.382 32.9227 612.891 32.8164C613.324 32.7312 613.752 32.6173 614.17 32.4754C615.012 32.1968 615.782 31.7331 616.422 31.1184V29.3707H619.974V32.312C618.192 34.4022 615.719 35.7836 613.005 36.2053V39.1181H609.453V36.1626C607.396 35.8272 605.494 34.8615 604.01 33.399C603.038 32.4924 602.266 31.3914 601.746 30.1675C601.226 28.9436 600.969 27.6241 600.991 26.2944C600.959 24.9631 601.206 23.6397 601.715 22.409C602.223 21.1783 602.984 20.0674 603.946 19.1473C605.432 17.6468 607.364 16.6694 609.453 16.3623ZM607.387 27.0901C607.376 26.5405 607.434 25.9917 607.557 25.4561V25.4774H619.678V28.7952H607.6C607.452 28.2392 607.38 27.6655 607.387 27.0901Z" fill="#D1A9D1"/>
<circle cx="610.509" cy="149.865" r="26.0292" fill="#FDF5FD"/>
<path fill-rule="evenodd" clip-rule="evenodd" d="M609.453 140.198V137.264L609.445 137.221H612.948V140.17C613.931 140.319 614.887 140.606 615.79 141.022C617.263 141.703 618.553 142.723 619.555 143.999L618.383 144.894L616.621 146.237C615.74 144.882 614.358 143.932 612.777 143.594C612.275 143.494 611.763 143.446 611.25 143.452C610.395 143.44 609.547 143.606 608.76 143.939C607.972 144.271 607.262 144.764 606.675 145.385C606.046 146.001 605.549 146.739 605.214 147.554C604.88 148.368 604.714 149.243 604.728 150.123C604.737 151.881 605.435 153.564 606.672 154.813C607.908 156.062 609.585 156.776 611.342 156.802C611.862 156.809 612.382 156.759 612.891 156.652C613.324 156.567 613.752 156.453 614.17 156.311C615.012 156.033 615.782 155.569 616.422 154.954V153.207H619.974V156.148C618.192 158.238 615.719 159.62 613.005 160.041V162.954H609.453V159.999C607.396 159.663 605.494 158.697 604.01 157.235C603.038 156.328 602.266 155.227 601.746 154.003C601.226 152.78 600.969 151.46 600.991 150.13C600.959 148.799 601.206 147.476 601.715 146.245C602.223 145.014 602.984 143.903 603.946 142.983C605.432 141.483 607.364 140.505 609.453 140.198ZM607.387 150.926C607.376 150.376 607.434 149.828 607.557 149.292V149.313H619.678V152.631H607.6C607.452 152.075 607.38 151.501 607.387 150.926Z" fill="#D1A9D1"/>
<circle cx="558.45" cy="87.5527" r="26.0292" fill="#FDF5FD"/>
<path fill-rule="evenodd" clip-rule="evenodd" d="M557.393 77.8857V74.9516L557.386 74.9089H560.888V77.8573C561.871 78.0065 562.828 78.2935 563.73 78.7099C565.203 79.3904 566.494 80.4106 567.496 81.6867L566.323 82.5818L564.561 83.9246C563.68 82.57 562.298 81.6197 560.718 81.2817C560.215 81.1813 559.703 81.1337 559.19 81.1396C558.336 81.1278 557.488 81.2934 556.7 81.6261C555.913 81.9587 555.203 82.451 554.615 83.072C553.986 83.6886 553.489 84.4267 553.155 85.2413C552.82 86.056 552.655 86.9302 552.668 87.8108C552.678 89.5681 553.375 91.2518 554.612 92.5005C555.849 93.7491 557.526 94.463 559.283 94.489C559.803 94.4962 560.322 94.4461 560.832 94.3398C561.265 94.2547 561.692 94.1408 562.11 93.9988C562.953 93.7202 563.722 93.2566 564.362 92.6419V90.8941H567.915V93.8354C566.133 95.9256 563.66 97.307 560.945 97.7287V100.642H557.393V97.6861C555.336 97.3507 553.435 96.385 551.951 94.9224C550.978 94.0158 550.206 92.9149 549.686 91.691C549.166 90.4671 548.909 89.1475 548.931 87.8179C548.9 86.4865 549.146 85.1631 549.655 83.9324C550.164 82.7017 550.924 81.5908 551.887 80.6707C553.372 79.1702 555.304 78.1928 557.393 77.8857ZM555.327 88.6135C555.317 88.0639 555.374 87.5151 555.498 86.9795V87.0008H567.618V90.3186H555.541C555.392 89.7627 555.32 89.189 555.327 88.6135Z" fill="#D1A9D1"/>
<circle cx="558.45" cy="212.177" r="26.0292" fill="#FDF5FD"/>
<path fill-rule="evenodd" clip-rule="evenodd" d="M557.393 202.51V199.576L557.386 199.534H560.888V202.482C561.871 202.631 562.828 202.918 563.73 203.335C565.203 204.015 566.494 205.035 567.496 206.311L566.323 207.207L564.561 208.549C563.68 207.195 562.298 206.244 560.718 205.906C560.215 205.806 559.703 205.758 559.19 205.764C558.336 205.753 557.488 205.918 556.7 206.251C555.913 206.583 555.203 207.076 554.615 207.697C553.986 208.313 553.489 209.051 553.155 209.866C552.82 210.681 552.655 211.555 552.668 212.436C552.678 214.193 553.375 215.877 554.612 217.125C555.849 218.374 557.526 219.088 559.283 219.114C559.803 219.121 560.322 219.071 560.832 218.965C561.265 218.879 561.692 218.766 562.11 218.624C562.953 218.345 563.722 217.881 564.362 217.267V215.519H567.915V218.46C566.133 220.55 563.66 221.932 560.945 222.353V225.266H557.393V222.311C555.336 221.975 553.435 221.01 551.951 219.547C550.978 218.641 550.206 217.54 549.686 216.316C549.166 215.092 548.909 213.772 548.931 212.443C548.9 211.111 549.146 209.788 549.655 208.557C550.164 207.326 550.924 206.216 551.887 205.295C553.372 203.795 555.304 202.818 557.393 202.51ZM555.327 213.238C555.317 212.689 555.374 212.14 555.498 211.604V211.626H567.618V214.943H555.541C555.392 214.387 555.32 213.814 555.327 213.238Z" fill="#D1A9D1"/>
<circle cx="432.248" cy="87.5527" r="26.0292" fill="#FDF5FD"/>
<path fill-rule="evenodd" clip-rule="evenodd" d="M431.192 77.8857V74.9516L431.185 74.9089H434.687V77.8573C435.67 78.0065 436.627 78.2935 437.529 78.7099C439.002 79.3904 440.292 80.4106 441.294 81.6867L440.122 82.5818L438.36 83.9246C437.479 82.57 436.097 81.6197 434.517 81.2817C434.014 81.1813 433.502 81.1337 432.989 81.1396C432.134 81.1278 431.286 81.2934 430.499 81.6261C429.711 81.9587 429.001 82.451 428.414 83.072C427.785 83.6886 427.288 84.4267 426.954 85.2413C426.619 86.056 426.453 86.9302 426.467 87.8108C426.476 89.5681 427.174 91.2518 428.411 92.5005C429.647 93.7491 431.324 94.463 433.082 94.489C433.602 94.4962 434.121 94.4461 434.63 94.3398C435.064 94.2547 435.491 94.1408 435.909 93.9988C436.752 93.7202 437.521 93.2566 438.161 92.6419V90.8941H441.714V93.8354C439.931 95.9256 437.458 97.307 434.744 97.7287V100.642H431.192V97.6861C429.135 97.3507 427.234 96.385 425.75 94.9224C424.777 94.0158 424.005 92.9149 423.485 91.691C422.965 90.4671 422.708 89.1475 422.73 87.8179C422.698 86.4865 422.945 85.1631 423.454 83.9324C423.963 82.7017 424.723 81.5908 425.686 80.6707C427.171 79.1702 429.103 78.1928 431.192 77.8857ZM429.126 88.6135C429.116 88.0639 429.173 87.5151 429.297 86.9795V87.0008H441.417V90.3186H429.339C429.191 89.7627 429.119 89.189 429.126 88.6135Z" fill="#D1A9D1"/>
<circle cx="432.248" cy="212.177" r="26.0292" fill="#FDF5FD"/>
<path fill-rule="evenodd" clip-rule="evenodd" d="M431.192 202.51V199.576L431.185 199.534H434.687V202.482C435.67 202.631 436.627 202.918 437.529 203.335C439.002 204.015 440.292 205.035 441.294 206.311L440.122 207.207L438.36 208.549C437.479 207.195 436.097 206.244 434.517 205.906C434.014 205.806 433.502 205.758 432.989 205.764C432.134 205.753 431.286 205.918 430.499 206.251C429.711 206.583 429.001 207.076 428.414 207.697C427.785 208.313 427.288 209.051 426.954 209.866C426.619 210.681 426.453 211.555 426.467 212.436C426.476 214.193 427.174 215.877 428.411 217.125C429.647 218.374 431.324 219.088 433.082 219.114C433.602 219.121 434.121 219.071 434.63 218.965C435.064 218.879 435.491 218.766 435.909 218.624C436.752 218.345 437.521 217.881 438.161 217.267V215.519H441.714V218.46C439.931 220.55 437.458 221.932 434.744 222.353V225.266H431.192V222.311C429.135 221.975 427.234 221.01 425.75 219.547C424.777 218.641 424.005 217.54 423.485 216.316C422.965 215.092 422.708 213.772 422.73 212.443C422.698 211.111 422.945 209.788 423.454 208.557C423.963 207.326 424.723 206.216 425.686 205.295C427.171 203.795 429.103 202.818 431.192 202.51ZM429.126 213.238C429.116 212.689 429.173 212.14 429.297 211.604V211.626H441.417V214.943H429.339C429.191 214.387 429.119 213.814 429.126 213.238Z" fill="#D1A9D1"/>
<circle cx="317.088" cy="87.5527" r="26.0292" fill="#FDF5FD"/>
<path fill-rule="evenodd" clip-rule="evenodd" d="M316.032 77.8857V74.9516L316.025 74.9089H319.527V77.8573C320.51 78.0065 321.466 78.2935 322.369 78.7099C323.842 79.3904 325.132 80.4106 326.134 81.6867L324.962 82.5818L323.2 83.9246C322.319 82.57 320.937 81.6197 319.357 81.2817C318.854 81.1813 318.342 81.1337 317.829 81.1396C316.974 81.1278 316.126 81.2934 315.339 81.6261C314.551 81.9587 313.841 82.451 313.254 83.072C312.625 83.6886 312.128 84.4267 311.793 85.2413C311.459 86.056 311.293 86.9302 311.307 87.8108C311.316 89.5681 312.014 91.2518 313.251 92.5005C314.487 93.7491 316.164 94.463 317.921 94.489C318.442 94.4962 318.961 94.4461 319.47 94.3398C319.904 94.2547 320.331 94.1408 320.749 93.9988C321.592 93.7202 322.361 93.2566 323.001 92.6419V90.8941H326.553V93.8354C324.771 95.9256 322.298 97.307 319.584 97.7287V100.642H316.032V97.6861C313.975 97.3507 312.074 96.385 310.59 94.9224C309.617 94.0158 308.845 92.9149 308.325 91.691C307.805 90.4671 307.548 89.1475 307.57 87.8179C307.538 86.4865 307.785 85.1631 308.294 83.9324C308.803 82.7017 309.563 81.5908 310.526 80.6707C312.011 79.1702 313.943 78.1928 316.032 77.8857ZM313.966 88.6138C313.956 88.0642 314.013 87.5153 314.137 86.9797V87.001H326.257V90.3189H314.179C314.031 89.7629 313.959 89.1892 313.966 88.6138Z" fill="#D1A9D1"/>
<circle cx="196.088" cy="87.5527" r="26.0292" fill="#FDF5FD"/>
<path fill-rule="evenodd" clip-rule="evenodd" d="M195.032 77.8857V74.9516L195.025 74.9089H198.527V77.8573C199.51 78.0065 200.466 78.2935 201.369 78.7099C202.842 79.3904 204.132 80.4106 205.134 81.6867L203.962 82.5818L202.2 83.9246C201.319 82.57 199.937 81.6197 198.357 81.2817C197.854 81.1813 197.342 81.1337 196.829 81.1396C195.974 81.1278 195.126 81.2934 194.339 81.6261C193.551 81.9587 192.841 82.451 192.254 83.072C191.625 83.6886 191.128 84.4267 190.793 85.2413C190.459 86.056 190.293 86.9302 190.307 87.8108C190.316 89.5681 191.014 91.2518 192.251 92.5005C193.487 93.7491 195.164 94.463 196.921 94.489C197.442 94.4962 197.961 94.4461 198.47 94.3398C198.904 94.2547 199.331 94.1408 199.749 93.9988C200.592 93.7202 201.361 93.2566 202.001 92.6419V90.8941H205.553V93.8354C203.771 95.9256 201.298 97.307 198.584 97.7287V100.642H195.032V97.6861C192.975 97.3507 191.074 96.385 189.59 94.9224C188.617 94.0158 187.845 92.9149 187.325 91.691C186.805 90.4671 186.548 89.1475 186.57 87.8179C186.538 86.4865 186.785 85.1631 187.294 83.9324C187.803 82.7017 188.563 81.5908 189.526 80.6707C191.011 79.1702 192.943 78.1928 195.032 77.8857ZM192.966 88.6138C192.956 88.0642 193.013 87.5153 193.137 86.9797V87.001H205.257V90.3189H193.179C193.031 89.7629 192.959 89.1892 192.966 88.6138Z" fill="#D1A9D1"/>
<circle cx="78.0878" cy="87.5527" r="26.0292" fill="#FDF5FD"/>
<path fill-rule="evenodd" clip-rule="evenodd" d="M77.0316 77.8857V74.9516L77.0245 74.9089H80.527V77.8573C81.5097 78.0065 82.4664 78.2935 83.3689 78.7099C84.8417 79.3904 86.1322 80.4106 87.1343 81.6867L85.962 82.5818L84.2001 83.9246C83.3188 82.57 81.9368 81.6197 80.3565 81.2817C79.8537 81.1813 79.3418 81.1337 78.8291 81.1396C77.9743 81.1278 77.1263 81.2934 76.3388 81.6261C75.5512 81.9587 74.8413 82.451 74.2537 83.072C73.6249 83.6886 73.128 84.4267 72.7934 85.2413C72.4587 86.056 72.2933 86.9302 72.3071 87.8108C72.3162 89.5681 73.014 91.2518 74.2506 92.5005C75.4873 93.7491 77.1642 94.463 78.9214 94.489C79.4416 94.4962 79.961 94.4461 80.4702 94.3398C80.9036 94.2547 81.3308 94.1408 81.749 93.9988C82.5916 93.7202 83.3611 93.2566 84.0012 92.6419V90.8941H87.5534V93.8354C85.7712 95.9256 83.2982 97.307 80.5839 97.7287V100.642H77.0316V97.6861C74.9752 97.3507 73.0736 96.385 71.5895 94.9224C70.6166 94.0158 69.8451 92.9149 69.3249 91.691C68.8048 90.4671 68.5476 89.1475 68.5701 87.8179C68.5383 86.4865 68.7848 85.1631 69.2937 83.9324C69.8026 82.7017 70.5628 81.5908 71.5256 80.6707C73.0106 79.1702 74.943 78.1928 77.0316 77.8857ZM74.9661 88.6138C74.9556 88.0642 75.0128 87.5153 75.1366 86.9797V87.001H87.2569V90.3189H75.1792C75.0306 89.7629 74.9589 89.1892 74.9661 88.6138Z" fill="#D1A9D1"/>
<circle cx="317.088" cy="212.177" r="26.0292" fill="#FDF5FD"/>
<path fill-rule="evenodd" clip-rule="evenodd" d="M316.032 202.51V199.576L316.025 199.534H319.527V202.482C320.51 202.631 321.466 202.918 322.369 203.335C323.842 204.015 325.132 205.035 326.134 206.311L324.962 207.207L323.2 208.549C322.319 207.195 320.937 206.244 319.357 205.906C318.854 205.806 318.342 205.758 317.829 205.764C316.974 205.753 316.126 205.918 315.339 206.251C314.551 206.583 313.841 207.076 313.254 207.697C312.625 208.313 312.128 209.051 311.793 209.866C311.459 210.681 311.293 211.555 311.307 212.436C311.316 214.193 312.014 215.877 313.251 217.125C314.487 218.374 316.164 219.088 317.921 219.114C318.442 219.121 318.961 219.071 319.47 218.965C319.904 218.879 320.331 218.766 320.749 218.624C321.592 218.345 322.361 217.881 323.001 217.267V215.519H326.553V218.46C324.771 220.55 322.298 221.932 319.584 222.353V225.266H316.032V222.311C313.975 221.975 312.074 221.01 310.59 219.547C309.617 218.641 308.845 217.54 308.325 216.316C307.805 215.092 307.548 213.772 307.57 212.443C307.538 211.111 307.785 209.788 308.294 208.557C308.803 207.326 309.563 206.216 310.526 205.295C312.011 203.795 313.943 202.818 316.032 202.51ZM313.966 213.238C313.956 212.689 314.013 212.14 314.137 211.604V211.626H326.257V214.943H314.179C314.031 214.387 313.959 213.814 313.966 213.238Z" fill="#D1A9D1"/>
<circle cx="196.088" cy="212.177" r="26.0292" fill="#FDF5FD"/>
<path fill-rule="evenodd" clip-rule="evenodd" d="M195.032 202.51V199.576L195.025 199.534H198.527V202.482C199.51 202.631 200.466 202.918 201.369 203.335C202.842 204.015 204.132 205.035 205.134 206.311L203.962 207.207L202.2 208.549C201.319 207.195 199.937 206.244 198.357 205.906C197.854 205.806 197.342 205.758 196.829 205.764C195.974 205.753 195.126 205.918 194.339 206.251C193.551 206.583 192.841 207.076 192.254 207.697C191.625 208.313 191.128 209.051 190.793 209.866C190.459 210.681 190.293 211.555 190.307 212.436C190.316 214.193 191.014 215.877 192.251 217.125C193.487 218.374 195.164 219.088 196.921 219.114C197.442 219.121 197.961 219.071 198.47 218.965C198.904 218.879 199.331 218.766 199.749 218.624C200.592 218.345 201.361 217.881 202.001 217.267V215.519H205.553V218.46C203.771 220.55 201.298 221.932 198.584 222.353V225.266H195.032V222.311C192.975 221.975 191.074 221.01 189.59 219.547C188.617 218.641 187.845 217.54 187.325 216.316C186.805 215.092 186.548 213.772 186.57 212.443C186.538 211.111 186.785 209.788 187.294 208.557C187.803 207.326 188.563 206.216 189.526 205.295C191.011 203.795 192.943 202.818 195.032 202.51ZM192.966 213.238C192.956 212.689 193.013 212.14 193.137 211.604V211.626H205.257V214.943H193.179C193.031 214.387 192.959 213.814 192.966 213.238Z" fill="#D1A9D1"/>
<circle cx="78.0878" cy="212.177" r="26.0292" fill="#FDF5FD"/>
<path fill-rule="evenodd" clip-rule="evenodd" d="M77.0316 202.51V199.576L77.0245 199.534H80.527V202.482C81.5097 202.631 82.4664 202.918 83.3689 203.335C84.8417 204.015 86.1322 205.035 87.1343 206.311L85.962 207.207L84.2001 208.549C83.3188 207.195 81.9368 206.244 80.3565 205.906C79.8537 205.806 79.3418 205.758 78.8291 205.764C77.9743 205.753 77.1263 205.918 76.3388 206.251C75.5512 206.583 74.8413 207.076 74.2537 207.697C73.6249 208.313 73.128 209.051 72.7934 209.866C72.4587 210.681 72.2933 211.555 72.3071 212.436C72.3162 214.193 73.014 215.877 74.2506 217.125C75.4873 218.374 77.1642 219.088 78.9214 219.114C79.4416 219.121 79.961 219.071 80.4702 218.965C80.9036 218.879 81.3308 218.766 81.749 218.624C82.5916 218.345 83.3611 217.881 84.0012 217.267V215.519H87.5534V218.46C85.7712 220.55 83.2982 221.932 80.5839 222.353V225.266H77.0316V222.311C74.9752 221.975 73.0736 221.01 71.5895 219.547C70.6166 218.641 69.8451 217.54 69.3249 216.316C68.8048 215.092 68.5476 213.772 68.5701 212.443C68.5383 211.111 68.7848 209.788 69.2937 208.557C69.8026 207.326 70.5628 206.216 71.5256 205.295C73.0106 203.795 74.943 202.818 77.0316 202.51ZM74.9661 213.238C74.9556 212.689 75.0128 212.14 75.1366 211.604V211.626H87.2569V214.943H75.1792C75.0306 214.387 74.9589 213.814 74.9661 213.238Z" fill="#D1A9D1"/>
<circle cx="610.509" cy="273.701" r="26.0292" fill="#FDF5FD"/>
<path fill-rule="evenodd" clip-rule="evenodd" d="M609.453 264.034V261.1L609.445 261.057H612.948V264.006C613.931 264.155 614.887 264.442 615.79 264.858C617.263 265.539 618.553 266.559 619.555 267.835L618.383 268.73L616.621 270.073C615.74 268.718 614.358 267.768 612.777 267.43C612.275 267.33 611.763 267.282 611.25 267.288C610.395 267.276 609.547 267.442 608.76 267.774C607.972 268.107 607.262 268.599 606.675 269.22C606.046 269.837 605.549 270.575 605.214 271.39C604.88 272.204 604.714 273.079 604.728 273.959C604.737 275.717 605.435 277.4 606.672 278.649C607.908 279.898 609.585 280.611 611.342 280.637C611.862 280.645 612.382 280.595 612.891 280.488C613.324 280.403 613.752 280.289 614.17 280.147C615.012 279.869 615.782 279.405 616.422 278.79V277.043H619.974V279.984C618.192 282.074 615.719 283.455 613.005 283.877V286.79H609.453V283.835C607.396 283.499 605.494 282.533 604.01 281.071C603.038 280.164 602.266 279.063 601.746 277.839C601.226 276.616 600.969 275.296 600.991 273.966C600.959 272.635 601.206 271.312 601.715 270.081C602.223 268.85 602.984 267.739 603.946 266.819C605.432 265.319 607.364 264.341 609.453 264.034ZM607.387 274.762C607.376 274.212 607.434 273.664 607.557 273.128V273.149H619.678V276.467H607.6C607.452 275.911 607.38 275.337 607.387 274.762Z" fill="#D1A9D1"/>
<circle cx="495.349" cy="26.0292" r="26.0292" fill="#FDF5FD"/>
<path fill-rule="evenodd" clip-rule="evenodd" d="M494.292 16.3623V13.4281L494.285 13.3855H497.788V16.3339C498.77 16.4831 499.727 16.7701 500.63 17.1864C502.102 17.867 503.393 18.8872 504.395 20.1632L503.223 21.0584L501.461 22.4012C500.58 21.0466 499.198 20.0963 497.617 19.7583C497.114 19.6579 496.603 19.6103 496.09 19.6162C495.235 19.6044 494.387 19.77 493.6 20.1026C492.812 20.4352 492.102 20.9276 491.514 21.5486C490.886 22.1652 490.389 22.9032 490.054 23.7179C489.719 24.5325 489.554 25.4067 489.568 26.2873C489.577 28.0447 490.275 29.7284 491.511 30.977C492.748 32.2256 494.425 32.9396 496.182 32.9656C496.702 32.9727 497.222 32.9227 497.731 32.8164C498.164 32.7312 498.592 32.6173 499.01 32.4754C499.852 32.1968 500.622 31.7331 501.262 31.1184V29.3707H504.814V32.312C503.032 34.4022 500.559 35.7836 497.845 36.2053V39.1181H494.292V36.1626C492.236 35.8272 490.334 34.8615 488.85 33.399C487.877 32.4924 487.106 31.3914 486.586 30.1675C486.066 28.9436 485.808 27.6241 485.831 26.2944C485.799 24.9631 486.045 23.6397 486.554 22.409C487.063 21.1783 487.824 20.0674 488.786 19.1473C490.271 17.6468 492.204 16.6694 494.292 16.3623ZM492.227 27.0901C492.216 26.5405 492.274 25.9917 492.397 25.4561V25.4774H504.518V28.7952H492.44C492.291 28.2392 492.22 27.6655 492.227 27.0901Z" fill="#D1A9D1"/>
<circle cx="495.349" cy="149.865" r="26.0292" fill="#FDF5FD"/>
<path fill-rule="evenodd" clip-rule="evenodd" d="M494.292 140.198V137.264L494.285 137.221H497.788V140.17C498.77 140.319 499.727 140.606 500.63 141.022C502.102 141.703 503.393 142.723 504.395 143.999L503.223 144.894L501.461 146.237C500.58 144.882 499.198 143.932 497.617 143.594C497.114 143.494 496.603 143.446 496.09 143.452C495.235 143.44 494.387 143.606 493.6 143.939C492.812 144.271 492.102 144.764 491.514 145.385C490.886 146.001 490.389 146.739 490.054 147.554C489.719 148.368 489.554 149.243 489.568 150.123C489.577 151.881 490.275 153.564 491.511 154.813C492.748 156.062 494.425 156.776 496.182 156.802C496.702 156.809 497.222 156.759 497.731 156.652C498.164 156.567 498.592 156.453 499.01 156.311C499.852 156.033 500.622 155.569 501.262 154.954V153.207H504.814V156.148C503.032 158.238 500.559 159.62 497.845 160.041V162.954H494.292V159.999C492.236 159.663 490.334 158.697 488.85 157.235C487.877 156.328 487.106 155.227 486.586 154.003C486.066 152.78 485.808 151.46 485.831 150.13C485.799 148.799 486.045 147.476 486.554 146.245C487.063 145.014 487.824 143.903 488.786 142.983C490.271 141.483 492.204 140.505 494.292 140.198ZM492.227 150.926C492.216 150.376 492.274 149.828 492.397 149.292V149.313H504.518V152.631H492.44C492.291 152.075 492.22 151.501 492.227 150.926Z" fill="#D1A9D1"/>
<circle cx="495.349" cy="273.701" r="26.0292" fill="#FDF5FD"/>
<path fill-rule="evenodd" clip-rule="evenodd" d="M494.292 264.034V261.1L494.285 261.057H497.788V264.006C498.77 264.155 499.727 264.442 500.63 264.858C502.102 265.539 503.393 266.559 504.395 267.835L503.223 268.73L501.461 270.073C500.58 268.718 499.198 267.768 497.617 267.43C497.114 267.33 496.603 267.282 496.09 267.288C495.235 267.276 494.387 267.442 493.6 267.774C492.812 268.107 492.102 268.599 491.514 269.22C490.886 269.837 490.389 270.575 490.054 271.39C489.719 272.204 489.554 273.079 489.568 273.959C489.577 275.717 490.275 277.4 491.511 278.649C492.748 279.898 494.425 280.611 496.182 280.637C496.702 280.645 497.222 280.595 497.731 280.488C498.164 280.403 498.592 280.289 499.01 280.147C499.852 279.869 500.622 279.405 501.262 278.79V277.043H504.814V279.984C503.032 282.074 500.559 283.455 497.845 283.877V286.79H494.292V283.835C492.236 283.499 490.334 282.533 488.85 281.071C487.877 280.164 487.106 279.063 486.586 277.839C486.066 276.616 485.808 275.296 485.831 273.966C485.799 272.635 486.045 271.312 486.554 270.081C487.063 268.85 487.824 267.739 488.786 266.819C490.271 265.319 492.204 264.341 494.292 264.034ZM492.227 274.762C492.216 274.212 492.274 273.664 492.397 273.128V273.149H504.518V276.467H492.44C492.291 275.911 492.22 275.337 492.227 274.762Z" fill="#D1A9D1"/>
<circle cx="380.189" cy="26.0292" r="26.0292" fill="#FDF5FD"/>
<path fill-rule="evenodd" clip-rule="evenodd" d="M379.132 16.3623V13.4281L379.125 13.3855H382.628V16.3339C383.61 16.4831 384.567 16.7701 385.469 17.1864C386.942 17.867 388.233 18.8872 389.235 20.1632L388.063 21.0584L386.301 22.4012C385.419 21.0466 384.037 20.0963 382.457 19.7583C381.954 19.6579 381.442 19.6103 380.93 19.6162C380.075 19.6044 379.227 19.77 378.439 20.1026C377.652 20.4352 376.942 20.9276 376.354 21.5486C375.725 22.1652 375.229 22.9032 374.894 23.7179C374.559 24.5325 374.394 25.4067 374.408 26.2873C374.417 28.0447 375.115 29.7284 376.351 30.977C377.588 32.2256 379.265 32.9396 381.022 32.9656C381.542 32.9727 382.062 32.9227 382.571 32.8164C383.004 32.7312 383.431 32.6173 383.85 32.4754C384.692 32.1968 385.462 31.7331 386.102 31.1184V29.3707H389.654V32.312C387.872 34.4022 385.399 35.7836 382.684 36.2053V39.1181H379.132V36.1626C377.076 35.8272 375.174 34.8615 373.69 33.399C372.717 32.4924 371.946 31.3914 371.426 30.1675C370.905 28.9436 370.648 27.6241 370.671 26.2944C370.639 24.9631 370.885 23.6397 371.394 22.409C371.903 21.1783 372.663 20.0674 373.626 19.1473C375.111 17.6468 377.044 16.6694 379.132 16.3623ZM377.067 27.0901C377.056 26.5405 377.113 25.9917 377.237 25.4561V25.4774H389.357V28.7952H377.28C377.131 28.2392 377.06 27.6655 377.067 27.0901Z" fill="#D1A9D1"/>
<circle cx="380.189" cy="149.865" r="26.0292" fill="#FDF5FD"/>
<path fill-rule="evenodd" clip-rule="evenodd" d="M379.132 140.198V137.264L379.125 137.221H382.628V140.17C383.61 140.319 384.567 140.606 385.469 141.022C386.942 141.703 388.233 142.723 389.235 143.999L388.063 144.894L386.301 146.237C385.419 144.882 384.037 143.932 382.457 143.594C381.954 143.494 381.442 143.446 380.93 143.452C380.075 143.44 379.227 143.606 378.439 143.939C377.652 144.271 376.942 144.764 376.354 145.385C375.725 146.001 375.229 146.739 374.894 147.554C374.559 148.368 374.394 149.243 374.408 150.123C374.417 151.881 375.115 153.564 376.351 154.813C377.588 156.062 379.265 156.776 381.022 156.802C381.542 156.809 382.062 156.759 382.571 156.652C383.004 156.567 383.431 156.453 383.85 156.311C384.692 156.033 385.462 155.569 386.102 154.954V153.207H389.654V156.148C387.872 158.238 385.399 159.62 382.684 160.041V162.954H379.132V159.999C377.076 159.663 375.174 158.697 373.69 157.235C372.717 156.328 371.946 155.227 371.426 154.003C370.905 152.78 370.648 151.46 370.671 150.13C370.639 148.799 370.885 147.476 371.394 146.245C371.903 145.014 372.663 143.903 373.626 142.983C375.111 141.483 377.044 140.505 379.132 140.198ZM377.067 150.926C377.056 150.376 377.113 149.828 377.237 149.292V149.313H389.357V152.631H377.28C377.131 152.075 377.06 151.501 377.067 150.926Z" fill="#D1A9D1"/>
<circle cx="380.189" cy="273.701" r="26.0292" fill="#FDF5FD"/>
<path fill-rule="evenodd" clip-rule="evenodd" d="M379.132 264.034V261.1L379.125 261.057H382.628V264.006C383.61 264.155 384.567 264.442 385.469 264.858C386.942 265.539 388.233 266.559 389.235 267.835L388.063 268.73L386.301 270.073C385.419 268.718 384.037 267.768 382.457 267.43C381.954 267.33 381.442 267.282 380.93 267.288C380.075 267.276 379.227 267.442 378.439 267.774C377.652 268.107 376.942 268.599 376.354 269.22C375.725 269.837 375.229 270.575 374.894 271.39C374.559 272.204 374.394 273.079 374.408 273.959C374.417 275.717 375.115 277.4 376.351 278.649C377.588 279.898 379.265 280.611 381.022 280.637C381.542 280.645 382.062 280.595 382.571 280.488C383.004 280.403 383.431 280.289 383.85 280.147C384.692 279.869 385.462 279.405 386.102 278.79V277.043H389.654V279.984C387.872 282.074 385.399 283.455 382.684 283.877V286.79H379.132V283.835C377.076 283.499 375.174 282.533 373.69 281.071C372.717 280.164 371.946 279.063 371.426 277.839C370.905 276.616 370.648 275.296 370.671 273.966C370.639 272.635 370.885 271.312 371.394 270.081C371.903 268.85 372.663 267.739 373.626 266.819C375.111 265.319 377.044 264.341 379.132 264.034ZM377.067 274.762C377.056 274.212 377.113 273.664 377.237 273.128V273.149H389.357V276.467H377.28C377.131 275.911 377.06 275.337 377.067 274.762Z" fill="#D1A9D1"/>
<circle cx="265.029" cy="26.0292" r="26.0292" fill="#FDF5FD"/>
<path fill-rule="evenodd" clip-rule="evenodd" d="M263.973 16.3622V13.4281L263.966 13.3854H267.468V16.3338C268.451 16.483 269.408 16.77 270.31 17.1864C271.783 17.8669 273.074 18.8871 274.076 20.1632L272.903 21.0583L271.141 22.4011C270.26 21.0465 268.878 20.0962 267.298 19.7582C266.795 19.6578 266.283 19.6102 265.77 19.6161C264.916 19.6043 264.068 19.7699 263.28 20.1026C262.493 20.4352 261.783 20.9275 261.195 21.5485C260.566 22.1651 260.069 22.9032 259.735 23.7178C259.4 24.5325 259.235 25.4067 259.249 26.2873C259.258 28.0446 259.955 29.7283 261.192 30.977C262.429 32.2256 264.106 32.9395 265.863 32.9655C266.383 32.9727 266.902 32.9226 267.412 32.8163C267.845 32.7312 268.272 32.6173 268.69 32.4753C269.533 32.1967 270.303 31.7331 270.943 31.1184V29.3706H274.495V32.3119C272.713 34.4021 270.24 35.7835 267.525 36.2052V39.1181H263.973V36.1626C261.917 35.8272 260.015 34.8615 258.531 33.3989C257.558 32.4923 256.787 31.3914 256.266 30.1675C255.746 28.9436 255.489 27.624 255.512 26.2944C255.48 24.963 255.726 23.6396 256.235 22.4089C256.744 21.1782 257.504 20.0673 258.467 19.1472C259.952 17.6467 261.884 16.6693 263.973 16.3622ZM261.907 27.09C261.897 26.5404 261.954 25.9916 262.078 25.456V25.4773H274.198V28.7951H262.121C261.972 28.2392 261.9 27.6655 261.907 27.09Z" fill="#D1A9D1"/>
<circle cx="144.029" cy="26.0292" r="26.0292" fill="#FDF5FD"/>
<path fill-rule="evenodd" clip-rule="evenodd" d="M142.973 16.3622V13.4281L142.966 13.3854H146.468V16.3338C147.451 16.483 148.408 16.77 149.31 17.1864C150.783 17.8669 152.074 18.8871 153.076 20.1632L151.903 21.0583L150.141 22.4011C149.26 21.0465 147.878 20.0962 146.298 19.7582C145.795 19.6578 145.283 19.6102 144.77 19.6161C143.916 19.6043 143.068 19.7699 142.28 20.1026C141.493 20.4352 140.783 20.9275 140.195 21.5485C139.566 22.1651 139.069 22.9032 138.735 23.7178C138.4 24.5325 138.235 25.4067 138.249 26.2873C138.258 28.0446 138.955 29.7283 140.192 30.977C141.429 32.2256 143.106 32.9395 144.863 32.9655C145.383 32.9727 145.902 32.9226 146.412 32.8163C146.845 32.7312 147.272 32.6173 147.69 32.4753C148.533 32.1967 149.303 31.7331 149.943 31.1184V29.3706H153.495V32.3119C151.713 34.4021 149.24 35.7835 146.525 36.2052V39.1181H142.973V36.1626C140.917 35.8272 139.015 34.8615 137.531 33.3989C136.558 32.4923 135.787 31.3914 135.266 30.1675C134.746 28.9436 134.489 27.624 134.512 26.2944C134.48 24.963 134.726 23.6396 135.235 22.4089C135.744 21.1782 136.504 20.0673 137.467 19.1472C138.952 17.6467 140.884 16.6693 142.973 16.3622ZM140.907 27.09C140.897 26.5404 140.954 25.9916 141.078 25.456V25.4773H153.198V28.7951H141.121C140.972 28.2392 140.9 27.6655 140.907 27.09Z" fill="#D1A9D1"/>
<circle cx="26.0292" cy="26.0292" r="26.0292" fill="#FDF5FD"/>
<path fill-rule="evenodd" clip-rule="evenodd" d="M24.973 16.3622V13.4281L24.9659 13.3854H28.4684V16.3338C29.4511 16.483 30.4078 16.77 31.3103 17.1864C32.7831 17.8669 34.0736 18.8871 35.0757 20.1632L33.9034 21.0583L32.1415 22.4011C31.2602 21.0465 29.8782 20.0962 28.2979 19.7582C27.7951 19.6578 27.2832 19.6102 26.7705 19.6161C25.9157 19.6043 25.0677 19.7699 24.2802 20.1026C23.4926 20.4352 22.7827 20.9275 22.1951 21.5485C21.5663 22.1651 21.0694 22.9032 20.7348 23.7178C20.4001 24.5325 20.2347 25.4067 20.2485 26.2873C20.2576 28.0446 20.9554 29.7283 22.1921 30.977C23.4287 32.2256 25.1056 32.9395 26.8628 32.9655C27.383 32.9727 27.9024 32.9226 28.4116 32.8163C28.845 32.7312 29.2722 32.6173 29.6904 32.4753C30.533 32.1967 31.3025 31.7331 31.9426 31.1184V29.3706H35.4948V32.3119C33.7126 34.4021 31.2396 35.7835 28.5253 36.2052V39.1181H24.973V36.1626C22.9166 35.8272 21.015 34.8615 19.5309 33.3989C18.558 32.4923 17.7865 31.3914 17.2664 30.1675C16.7462 28.9436 16.489 27.624 16.5115 26.2944C16.4797 24.963 16.7262 23.6396 17.2351 22.4089C17.744 21.1782 18.5042 20.0673 19.467 19.1472C20.952 17.6467 22.8844 16.6693 24.973 16.3622ZM22.9075 27.09C22.897 26.5404 22.9542 25.9916 23.078 25.456V25.4773H35.1983V28.7951H23.1206C22.972 28.2392 22.9003 27.6655 22.9075 27.09Z" fill="#D1A9D1"/>
<circle cx="265.029" cy="149.865" r="26.0292" fill="#FDF5FD"/>
<path fill-rule="evenodd" clip-rule="evenodd" d="M263.973 140.198V137.264L263.966 137.221H267.468V140.17C268.451 140.319 269.408 140.606 270.31 141.022C271.783 141.703 273.074 142.723 274.076 143.999L272.903 144.894L271.141 146.237C270.26 144.882 268.878 143.932 267.298 143.594C266.795 143.494 266.283 143.446 265.77 143.452C264.916 143.44 264.068 143.606 263.28 143.938C262.493 144.271 261.783 144.763 261.195 145.384C260.566 146.001 260.069 146.739 259.735 147.554C259.4 148.368 259.235 149.243 259.249 150.123C259.258 151.88 259.955 153.564 261.192 154.813C262.429 156.061 264.106 156.775 265.863 156.801C266.383 156.809 266.902 156.759 267.412 156.652C267.845 156.567 268.272 156.453 268.69 156.311C269.533 156.033 270.303 155.569 270.943 154.954V153.207H274.495V156.148C272.713 158.238 270.24 159.619 267.525 160.041V162.954H263.973V159.998C261.917 159.663 260.015 158.697 258.531 157.235C257.558 156.328 256.787 155.227 256.266 154.003C255.746 152.779 255.489 151.46 255.512 150.13C255.48 148.799 255.726 147.475 256.235 146.245C256.744 145.014 257.504 143.903 258.467 142.983C259.952 141.483 261.884 140.505 263.973 140.198ZM261.907 150.926C261.897 150.376 261.954 149.827 262.078 149.292V149.313H274.198V152.631H262.121C261.972 152.075 261.9 151.501 261.907 150.926Z" fill="#D1A9D1"/>
<circle cx="144.029" cy="149.865" r="26.0292" fill="#FDF5FD"/>
<path fill-rule="evenodd" clip-rule="evenodd" d="M142.973 140.198V137.264L142.966 137.221H146.468V140.17C147.451 140.319 148.408 140.606 149.31 141.022C150.783 141.703 152.074 142.723 153.076 143.999L151.903 144.894L150.141 146.237C149.26 144.882 147.878 143.932 146.298 143.594C145.795 143.494 145.283 143.446 144.77 143.452C143.916 143.44 143.068 143.606 142.28 143.938C141.493 144.271 140.783 144.763 140.195 145.384C139.566 146.001 139.069 146.739 138.735 147.554C138.4 148.368 138.235 149.243 138.249 150.123C138.258 151.88 138.955 153.564 140.192 154.813C141.429 156.061 143.106 156.775 144.863 156.801C145.383 156.809 145.902 156.759 146.412 156.652C146.845 156.567 147.272 156.453 147.69 156.311C148.533 156.033 149.303 155.569 149.943 154.954V153.207H153.495V156.148C151.713 158.238 149.24 159.619 146.525 160.041V162.954H142.973V159.998C140.917 159.663 139.015 158.697 137.531 157.235C136.558 156.328 135.787 155.227 135.266 154.003C134.746 152.779 134.489 151.46 134.512 150.13C134.48 148.799 134.726 147.475 135.235 146.245C135.744 145.014 136.504 143.903 137.467 142.983C138.952 141.483 140.884 140.505 142.973 140.198ZM140.907 150.926C140.897 150.376 140.954 149.827 141.078 149.292V149.313H153.198V152.631H141.121C140.972 152.075 140.9 151.501 140.907 150.926Z" fill="#D1A9D1"/>
<circle cx="26.0292" cy="149.865" r="26.0292" fill="#FDF5FD"/>
<path fill-rule="evenodd" clip-rule="evenodd" d="M24.973 140.198V137.264L24.9659 137.221H28.4684V140.17C29.4511 140.319 30.4078 140.606 31.3103 141.022C32.7831 141.703 34.0736 142.723 35.0757 143.999L33.9034 144.894L32.1415 146.237C31.2602 144.882 29.8782 143.932 28.2979 143.594C27.7951 143.494 27.2832 143.446 26.7705 143.452C25.9157 143.44 25.0677 143.606 24.2802 143.938C23.4926 144.271 22.7827 144.763 22.1951 145.384C21.5663 146.001 21.0694 146.739 20.7348 147.554C20.4001 148.368 20.2347 149.243 20.2485 150.123C20.2576 151.88 20.9554 153.564 22.1921 154.813C23.4287 156.061 25.1056 156.775 26.8628 156.801C27.383 156.809 27.9024 156.759 28.4116 156.652C28.845 156.567 29.2722 156.453 29.6904 156.311C30.533 156.033 31.3025 155.569 31.9426 154.954V153.207H35.4948V156.148C33.7126 158.238 31.2396 159.619 28.5253 160.041V162.954H24.973V159.998C22.9166 159.663 21.015 158.697 19.5309 157.235C18.558 156.328 17.7865 155.227 17.2664 154.003C16.7462 152.779 16.489 151.46 16.5115 150.13C16.4797 148.799 16.7262 147.475 17.2351 146.245C17.744 145.014 18.5042 143.903 19.467 142.983C20.952 141.483 22.8844 140.505 24.973 140.198ZM22.9075 150.926C22.897 150.376 22.9542 149.827 23.078 149.292V149.313H35.1983V152.631H23.1206C22.972 152.075 22.9003 151.501 22.9075 150.926Z" fill="#D1A9D1"/>
<circle cx="265.029" cy="273.701" r="26.0292" fill="#FDF5FD"/>
<path fill-rule="evenodd" clip-rule="evenodd" d="M263.973 264.034V261.1L263.966 261.057H267.468V264.006C268.451 264.155 269.408 264.442 270.31 264.858C271.783 265.539 273.074 266.559 274.076 267.835L272.903 268.73L271.141 270.073C270.26 268.718 268.878 267.768 267.298 267.43C266.795 267.33 266.283 267.282 265.77 267.288C264.916 267.276 264.068 267.442 263.28 267.774C262.493 268.107 261.783 268.599 261.195 269.22C260.566 269.837 260.069 270.575 259.735 271.39C259.4 272.204 259.235 273.079 259.249 273.959C259.258 275.717 259.955 277.4 261.192 278.649C262.429 279.898 264.106 280.611 265.863 280.637C266.383 280.645 266.902 280.595 267.412 280.488C267.845 280.403 268.272 280.289 268.69 280.147C269.533 279.869 270.303 279.405 270.943 278.79V277.043H274.495V279.984C272.713 282.074 270.24 283.455 267.525 283.877V286.79H263.973V283.835C261.917 283.499 260.015 282.533 258.531 281.071C257.558 280.164 256.787 279.063 256.266 277.839C255.746 276.616 255.489 275.296 255.512 273.966C255.48 272.635 255.726 271.312 256.235 270.081C256.744 268.85 257.504 267.739 258.467 266.819C259.952 265.319 261.884 264.341 263.973 264.034ZM261.907 274.762C261.897 274.212 261.954 273.664 262.078 273.128V273.149H274.198V276.467H262.121C261.972 275.911 261.9 275.337 261.907 274.762Z" fill="#D1A9D1"/>
<circle cx="144.029" cy="273.701" r="26.0292" fill="#FDF5FD"/>
<path fill-rule="evenodd" clip-rule="evenodd" d="M142.973 264.034V261.1L142.966 261.057H146.468V264.006C147.451 264.155 148.408 264.442 149.31 264.858C150.783 265.539 152.074 266.559 153.076 267.835L151.903 268.73L150.141 270.073C149.26 268.718 147.878 267.768 146.298 267.43C145.795 267.33 145.283 267.282 144.77 267.288C143.916 267.276 143.068 267.442 142.28 267.774C141.493 268.107 140.783 268.599 140.195 269.22C139.566 269.837 139.069 270.575 138.735 271.39C138.4 272.204 138.235 273.079 138.249 273.959C138.258 275.717 138.955 277.4 140.192 278.649C141.429 279.898 143.106 280.611 144.863 280.637C145.383 280.645 145.902 280.595 146.412 280.488C146.845 280.403 147.272 280.289 147.69 280.147C148.533 279.869 149.303 279.405 149.943 278.79V277.043H153.495V279.984C151.713 282.074 149.24 283.455 146.525 283.877V286.79H142.973V283.835C140.917 283.499 139.015 282.533 137.531 281.071C136.558 280.164 135.787 279.063 135.266 277.839C134.746 276.616 134.489 275.296 134.512 273.966C134.48 272.635 134.726 271.312 135.235 270.081C135.744 268.85 136.504 267.739 137.467 266.819C138.952 265.319 140.884 264.341 142.973 264.034ZM140.907 274.762C140.897 274.212 140.954 273.664 141.078 273.128V273.149H153.198V276.467H141.121C140.972 275.911 140.9 275.337 140.907 274.762Z" fill="#D1A9D1"/>
<circle cx="26.0292" cy="273.701" r="26.0292" fill="#FDF5FD"/>
<path fill-rule="evenodd" clip-rule="evenodd" d="M24.973 264.034V261.1L24.9659 261.057H28.4684V264.006C29.4511 264.155 30.4078 264.442 31.3103 264.858C32.7831 265.539 34.0736 266.559 35.0757 267.835L33.9034 268.73L32.1415 270.073C31.2602 268.718 29.8782 267.768 28.2979 267.43C27.7951 267.33 27.2832 267.282 26.7705 267.288C25.9157 267.276 25.0677 267.442 24.2802 267.774C23.4926 268.107 22.7827 268.599 22.1951 269.22C21.5663 269.837 21.0694 270.575 20.7348 271.39C20.4001 272.204 20.2347 273.079 20.2485 273.959C20.2576 275.717 20.9554 277.4 22.1921 278.649C23.4287 279.898 25.1056 280.611 26.8628 280.637C27.383 280.645 27.9024 280.595 28.4116 280.488C28.845 280.403 29.2722 280.289 29.6904 280.147C30.533 279.869 31.3025 279.405 31.9426 278.79V277.043H35.4948V279.984C33.7126 282.074 31.2396 283.455 28.5253 283.877V286.79H24.973V283.835C22.9166 283.499 21.015 282.533 19.5309 281.071C18.558 280.164 17.7865 279.063 17.2664 277.839C16.7462 276.616 16.489 275.296 16.5115 273.966C16.4797 272.635 16.7262 271.312 17.2351 270.081C17.744 268.85 18.5042 267.739 19.467 266.819C20.952 265.319 22.8844 264.341 24.973 264.034ZM22.9075 274.762C22.897 274.212 22.9542 273.664 23.078 273.128V273.149H35.1983V276.467H23.1206C22.972 275.911 22.9003 275.337 22.9075 274.762Z" fill="#D1A9D1"/>
</svg>
