<svg width="198" height="204" viewBox="0 0 198 204" fill="none" xmlns="http://www.w3.org/2000/svg">
<ellipse cx="80.7924" cy="127.25" rx="69.3165" ry="63.015" transform="rotate(11.8657 80.7924 127.25)" fill="#581B8F"/>
<ellipse cx="85.3558" cy="117.781" rx="69.3165" ry="63.015" transform="rotate(11.8657 85.3558 117.781)" fill="#AD49DD"/>
<mask id="mask0_2362_3712" style="mask-type:alpha" maskUnits="userSpaceOnUse" x="16" y="54" width="139" height="128">
<ellipse cx="85.3558" cy="117.781" rx="69.3165" ry="63.015" transform="rotate(11.8657 85.3558 117.781)" fill="#AD49DD"/>
</mask>
<g mask="url(#mask0_2362_3712)">
<rect x="52.1797" y="54.6517" width="18.7393" height="144.815" transform="rotate(-19.4648 52.1797 54.6517)" fill="#E6B1FF"/>
<rect x="12.1738" y="117.277" width="18.7393" height="144.815" transform="rotate(-80.6476 12.1738 117.277)" fill="#E6B1FF"/>
<rect x="46.6279" y="181.826" width="18.7393" height="144.815" transform="rotate(-140.79 46.6279 181.826)" fill="#E6B1FF"/>
</g>
<ellipse cx="85.3564" cy="117.781" rx="54.5029" ry="49.5481" transform="rotate(11.8657 85.3564 117.781)" fill="#7103A6"/>
<path fill-rule="evenodd" clip-rule="evenodd" d="M108.974 84.654C108.396 84.9114 108.137 85.5887 108.394 86.1668L109.326 88.2598L107.233 89.1923C106.655 89.4498 106.395 90.1271 106.652 90.7051C106.91 91.2831 107.587 91.543 108.165 91.2855L110.259 90.3529L111.191 92.4463C111.449 93.0244 112.126 93.2842 112.704 93.0267C113.282 92.7693 113.542 92.092 113.284 91.514L112.352 89.4206L114.445 88.4884C115.023 88.231 115.282 87.5537 115.025 86.9757C114.767 86.3976 114.09 86.1378 113.512 86.3952L111.419 87.3274L110.487 85.2344C110.23 84.6564 109.552 84.3965 108.974 84.654Z" fill="#FBF8FB"/>
<path fill-rule="evenodd" clip-rule="evenodd" d="M59.3648 140.579C58.7321 140.593 58.23 141.116 58.2433 141.749L58.2914 144.04L56.0008 144.088C55.3681 144.101 54.866 144.625 54.8793 145.258C54.8926 145.89 55.4162 146.392 56.0488 146.379L58.3394 146.331L58.3875 148.622C58.4007 149.254 58.9243 149.757 59.557 149.743C60.1896 149.73 60.6917 149.206 60.6784 148.574L60.6304 146.283L62.9217 146.235C63.5543 146.222 64.0564 145.698 64.0431 145.065C64.0298 144.433 63.5062 143.931 62.8736 143.944L60.5823 143.992L60.5343 141.701C60.521 141.068 59.9974 140.566 59.3648 140.579Z" fill="#FBF8FB"/>
<path fill-rule="evenodd" clip-rule="evenodd" d="M118.9 136.551C118.123 136.474 117.431 137.04 117.354 137.817L117.075 140.628L114.264 140.349C113.488 140.272 112.796 140.839 112.719 141.615C112.642 142.391 113.209 143.083 113.985 143.16L116.796 143.439L116.517 146.25C116.44 147.026 117.007 147.718 117.783 147.795C118.56 147.872 119.251 147.305 119.328 146.529L119.607 143.718L122.419 143.997C123.195 144.074 123.887 143.508 123.964 142.731C124.041 141.955 123.474 141.263 122.698 141.186L119.886 140.907L120.166 138.096C120.243 137.32 119.676 136.628 118.9 136.551Z" fill="#FBF8FB"/>
<path fill-rule="evenodd" clip-rule="evenodd" d="M47.0138 99.6595C46.7905 99.9063 46.8096 100.287 47.0564 100.511L47.9502 101.319L47.1418 102.213C46.9185 102.46 46.9376 102.841 47.1844 103.064C47.4312 103.287 47.8123 103.268 48.0355 103.021L48.844 102.128L49.7377 102.936C49.9845 103.159 50.3656 103.14 50.5888 102.893C50.8121 102.647 50.793 102.266 50.5462 102.042L49.6525 101.234L50.461 100.34C50.6842 100.093 50.6651 99.7122 50.4183 99.489C50.1715 99.2657 49.7905 99.2848 49.5672 99.5316L48.7587 100.425L47.8649 99.6169C47.6181 99.3936 47.237 99.4127 47.0138 99.6595Z" fill="#FBF8FB"/>
<g filter="url(#filter0_f_2362_3712)">
<path d="M95.2771 140.184C93.7061 140.801 92.0105 141.022 90.3615 140.822L71.334 138.506C69.8699 138.328 68.4989 137.784 67.3587 136.929C66.2184 136.073 65.3492 134.937 64.8383 133.633L58.5524 117.593C57.8729 115.851 57.6947 113.948 58.0355 112.074C58.3763 110.2 59.2243 108.422 60.4947 106.916L72.4588 92.9584C74.3686 90.7263 77.3344 89.026 80.2443 89.4207L98.2333 91.876C99.2752 92.0079 100.215 92.4951 100.88 93.2483C101.545 94.0014 101.891 94.9701 101.855 95.977C101.819 96.5573 101.654 97.1295 101.371 97.6554C101.087 98.1814 100.692 98.6489 100.211 99.0268C99.7298 99.4047 99.1742 99.6843 98.5811 99.847C97.9881 100.01 97.3712 100.052 96.7717 99.97L80.333 97.7261C79.4183 97.6014 78.4993 98.5235 77.9007 99.2241L67.053 111.874C66.7478 112.238 66.5449 112.668 66.4646 113.12C66.3844 113.573 66.4296 114.032 66.5957 114.452L72.3486 129.131C72.5042 129.528 72.7692 129.875 73.1167 130.136C73.4643 130.396 73.8822 130.562 74.3286 130.617L91.1401 132.67C91.5208 132.716 91.9121 132.665 92.2749 132.523C92.6377 132.381 92.9593 132.152 93.2073 131.86L104.067 119.007C104.371 118.642 104.574 118.212 104.654 117.76C104.734 117.307 104.689 116.849 104.524 116.429L102.948 112.462L90.1483 117.595L90.1165 117.607C89.2824 117.945 88.3694 118.03 87.5076 117.847C86.6457 117.665 85.8789 117.226 85.3165 116.593C84.8843 116.11 84.5842 115.53 84.4408 114.903C84.2975 114.275 84.315 113.617 84.492 112.983C84.669 112.348 85.0003 111.756 85.4586 111.256C85.9169 110.755 86.4891 110.359 87.1277 110.102L103.954 103.357L103.986 103.345C104.779 103.035 105.64 102.949 106.461 103.1C107.282 103.25 108.027 103.63 108.603 104.191C109.007 104.591 109.318 105.068 109.519 105.593L112.57 113.255C113.253 115 113.434 116.907 113.094 118.784C112.754 120.661 111.904 122.443 110.631 123.952L99.2997 137.332C98.2279 138.59 96.8409 139.573 95.2771 140.184Z" fill="white"/>
</g>
<path d="M95.2771 140.184C93.7061 140.801 92.0105 141.022 90.3615 140.822L71.334 138.506C69.8699 138.328 68.4989 137.784 67.3587 136.929C66.2184 136.073 65.3492 134.937 64.8383 133.633L58.5524 117.593C57.8729 115.851 57.6947 113.948 58.0355 112.074C58.3763 110.2 59.2243 108.422 60.4947 106.916L72.4588 92.9584C74.3686 90.7263 77.3344 89.026 80.2443 89.4207L98.2333 91.876C99.2752 92.0079 100.215 92.4951 100.88 93.2483C101.545 94.0014 101.891 94.9701 101.855 95.977C101.819 96.5573 101.654 97.1295 101.371 97.6554C101.087 98.1814 100.692 98.6489 100.211 99.0268C99.7298 99.4047 99.1742 99.6843 98.5811 99.847C97.9881 100.01 97.3712 100.052 96.7717 99.97L80.333 97.7261C79.4183 97.6014 78.4993 98.5235 77.9007 99.2241L67.053 111.874C66.7478 112.238 66.5449 112.668 66.4646 113.12C66.3844 113.573 66.4296 114.032 66.5957 114.452L72.3486 129.131C72.5042 129.528 72.7692 129.875 73.1167 130.136C73.4643 130.396 73.8822 130.562 74.3286 130.617L91.1401 132.67C91.5208 132.716 91.9121 132.665 92.2749 132.523C92.6377 132.381 92.9593 132.152 93.2073 131.86L104.067 119.007C104.371 118.642 104.574 118.212 104.654 117.76C104.734 117.307 104.689 116.849 104.524 116.429L102.948 112.462L90.1483 117.595L90.1165 117.607C89.2824 117.945 88.3694 118.03 87.5076 117.847C86.6457 117.665 85.8789 117.226 85.3165 116.593C84.8843 116.11 84.5842 115.53 84.4408 114.903C84.2975 114.275 84.315 113.617 84.492 112.983C84.669 112.348 85.0003 111.756 85.4586 111.256C85.9169 110.755 86.4891 110.359 87.1277 110.102L103.954 103.357L103.986 103.345C104.779 103.035 105.64 102.949 106.461 103.1C107.282 103.25 108.027 103.63 108.603 104.191C109.007 104.591 109.318 105.068 109.519 105.593L112.57 113.255C113.253 115 113.434 116.907 113.094 118.784C112.754 120.661 111.904 122.443 110.631 123.952L99.2997 137.332C98.2279 138.59 96.8409 139.573 95.2771 140.184Z" fill="white"/>
<ellipse cx="96.014" cy="105.686" rx="69.3165" ry="63.015" transform="rotate(11.8657 96.014 105.686)" fill="#581B8F"/>
<ellipse cx="100.578" cy="96.2166" rx="69.3165" ry="63.015" transform="rotate(11.8657 100.578 96.2166)" fill="#AD49DD"/>
<mask id="mask1_2362_3712" style="mask-type:alpha" maskUnits="userSpaceOnUse" x="31" y="32" width="139" height="128">
<ellipse cx="100.578" cy="96.2166" rx="69.3165" ry="63.015" transform="rotate(11.8657 100.578 96.2166)" fill="#AD49DD"/>
</mask>
<g mask="url(#mask1_2362_3712)">
<rect x="67.4023" y="33.0878" width="18.7393" height="144.815" transform="rotate(-19.4648 67.4023 33.0878)" fill="#E6B1FF"/>
<rect x="27.3955" y="95.7133" width="18.7393" height="144.815" transform="rotate(-80.6476 27.3955 95.7133)" fill="#E6B1FF"/>
<rect x="61.8496" y="160.262" width="18.7393" height="144.815" transform="rotate(-140.79 61.8496 160.262)" fill="#E6B1FF"/>
</g>
<ellipse cx="100.578" cy="96.2167" rx="54.5029" ry="49.5481" transform="rotate(11.8657 100.578 96.2167)" fill="#7103A6"/>
<path fill-rule="evenodd" clip-rule="evenodd" d="M124.195 63.09C123.617 63.3475 123.357 64.0248 123.615 64.6028L124.547 66.6958L122.453 67.6284C121.875 67.8859 121.615 68.5632 121.873 69.1412C122.13 69.7192 122.808 69.9791 123.386 69.7216L125.479 68.789L126.412 70.8824C126.669 71.4604 127.347 71.7202 127.925 71.4628C128.503 71.2053 128.763 70.528 128.505 69.95L127.573 67.8566L129.665 66.9245C130.243 66.6671 130.503 65.9898 130.246 65.4118C129.988 64.8337 129.311 64.5739 128.733 64.8313L126.64 65.7634L125.708 63.6704C125.45 63.0924 124.773 62.8326 124.195 63.09Z" fill="#FBF8FB"/>
<path fill-rule="evenodd" clip-rule="evenodd" d="M74.5864 119.015C73.9538 119.029 73.4517 119.552 73.465 120.185L73.513 122.476L71.2224 122.524C70.5898 122.537 70.0877 123.061 70.101 123.694C70.1143 124.326 70.6379 124.828 71.2705 124.815L73.5611 124.767L73.6091 127.058C73.6224 127.69 74.146 128.193 74.7786 128.179C75.4113 128.166 75.9134 127.642 75.9001 127.01L75.852 124.719L78.1433 124.671C78.776 124.658 79.2781 124.134 79.2648 123.501C79.2515 122.869 78.7279 122.367 78.0953 122.38L75.804 122.428L75.7559 120.137C75.7427 119.504 75.2191 119.002 74.5864 119.015Z" fill="#FBF8FB"/>
<path fill-rule="evenodd" clip-rule="evenodd" d="M134.121 114.987C133.345 114.91 132.653 115.476 132.576 116.253L132.297 119.064L129.486 118.785C128.71 118.708 128.018 119.275 127.941 120.051C127.864 120.827 128.431 121.519 129.207 121.596L132.018 121.875L131.739 124.686C131.662 125.462 132.229 126.154 133.005 126.231C133.781 126.308 134.473 125.742 134.55 124.965L134.829 122.154L137.64 122.433C138.417 122.51 139.108 121.944 139.185 121.167C139.263 120.391 138.696 119.699 137.919 119.622L135.108 119.343L135.387 116.532C135.464 115.756 134.897 115.064 134.121 114.987Z" fill="#FBF8FB"/>
<path fill-rule="evenodd" clip-rule="evenodd" d="M62.2352 78.0955C62.0119 78.3423 62.031 78.7234 62.2778 78.9467L63.1718 79.7554L62.3635 80.649C62.1402 80.8958 62.1593 81.2768 62.4061 81.5001C62.6529 81.7234 63.034 81.7043 63.2573 81.4575L64.0656 80.5639L64.9591 81.3721C65.2059 81.5954 65.587 81.5763 65.8102 81.3295C66.0335 81.0827 66.0144 80.7016 65.7676 80.4784L64.8741 79.6701L65.6827 78.7762C65.906 78.5294 65.8869 78.1483 65.6401 77.9251C65.3933 77.7018 65.0122 77.7209 64.789 77.9677L63.9803 78.8616L63.0863 78.0529C62.8395 77.8296 62.4584 77.8487 62.2352 78.0955Z" fill="#FBF8FB"/>
<g filter="url(#filter1_f_2362_3712)">
<path d="M110.499 118.62C108.928 119.237 107.232 119.457 105.583 119.258L86.5557 116.942C85.0916 116.764 83.7205 116.22 82.5803 115.365C81.4401 114.509 80.5709 113.373 80.06 112.069L73.774 96.0294C73.0946 94.2867 72.9164 92.3836 73.2572 90.5099C73.598 88.6363 74.4459 86.8578 75.7164 85.3518L87.6805 71.3943C89.5903 69.1622 92.556 67.4619 95.466 67.8566L113.455 70.3119C114.497 70.4438 115.436 70.931 116.102 71.6842C116.767 72.4373 117.113 73.4061 117.076 74.4129C117.041 74.9932 116.876 75.5654 116.592 76.0914C116.309 76.6173 115.914 77.0848 115.433 77.4627C114.951 77.8406 114.396 78.1202 113.803 78.2829C113.21 78.4455 112.593 78.4875 111.993 78.406L95.5547 76.162C94.64 76.0373 93.721 76.9595 93.1224 77.6601L82.2747 90.3097C81.9694 90.6741 81.7666 91.104 81.6863 91.5564C81.6061 92.0088 81.6513 92.4678 81.8174 92.8875L87.5702 107.567C87.7259 107.964 87.9908 108.311 88.3384 108.572C88.686 108.832 89.1039 108.998 89.5502 109.052L106.362 111.106C106.742 111.152 107.134 111.101 107.497 110.959C107.859 110.817 108.181 110.588 108.429 110.296L119.289 97.4425C119.593 97.0776 119.795 96.6478 119.876 96.1956C119.956 95.7434 119.911 95.2846 119.746 94.8647L118.169 90.8979L105.37 96.0304L105.338 96.0429C104.504 96.3813 103.591 96.4654 102.729 96.2833C101.867 96.1012 101.101 95.6621 100.538 95.0286C100.106 94.5456 99.8059 93.9663 99.6625 93.3386C99.5192 92.7108 99.5367 92.0527 99.7137 91.4185C99.8906 90.7843 100.222 90.1923 100.68 89.6915C101.139 89.1907 101.711 88.7953 102.349 88.5382L119.176 81.7931L119.208 81.7806C120.001 81.4704 120.862 81.3853 121.683 81.5358C122.504 81.6863 123.249 82.0657 123.825 82.6268C124.228 83.0271 124.54 83.5038 124.741 84.029L127.792 91.6911C128.475 93.436 128.656 95.3425 128.315 97.2197C127.975 99.097 127.126 100.879 125.853 102.388L114.521 115.768C113.45 117.026 112.063 118.009 110.499 118.62Z" fill="white"/>
</g>
<path d="M110.499 118.62C108.928 119.237 107.232 119.457 105.583 119.258L86.5557 116.942C85.0916 116.764 83.7205 116.22 82.5803 115.365C81.4401 114.509 80.5709 113.373 80.06 112.069L73.774 96.0294C73.0946 94.2867 72.9164 92.3836 73.2572 90.5099C73.598 88.6363 74.4459 86.8578 75.7164 85.3518L87.6805 71.3943C89.5903 69.1622 92.556 67.4619 95.466 67.8566L113.455 70.3119C114.497 70.4438 115.436 70.931 116.102 71.6842C116.767 72.4373 117.113 73.4061 117.076 74.4129C117.041 74.9932 116.876 75.5654 116.592 76.0914C116.309 76.6173 115.914 77.0848 115.433 77.4627C114.951 77.8406 114.396 78.1202 113.803 78.2829C113.21 78.4455 112.593 78.4875 111.993 78.406L95.5547 76.162C94.64 76.0373 93.721 76.9595 93.1224 77.6601L82.2747 90.3097C81.9694 90.6741 81.7666 91.104 81.6863 91.5564C81.6061 92.0088 81.6513 92.4678 81.8174 92.8875L87.5702 107.567C87.7259 107.964 87.9908 108.311 88.3384 108.572C88.686 108.832 89.1039 108.998 89.5502 109.052L106.362 111.106C106.742 111.152 107.134 111.101 107.497 110.959C107.859 110.817 108.181 110.588 108.429 110.296L119.289 97.4425C119.593 97.0776 119.795 96.6478 119.876 96.1956C119.956 95.7434 119.911 95.2846 119.746 94.8647L118.169 90.8979L105.37 96.0304L105.338 96.0429C104.504 96.3813 103.591 96.4654 102.729 96.2833C101.867 96.1012 101.101 95.6621 100.538 95.0286C100.106 94.5456 99.8059 93.9663 99.6625 93.3386C99.5192 92.7108 99.5367 92.0527 99.7137 91.4185C99.8906 90.7843 100.222 90.1923 100.68 89.6915C101.139 89.1907 101.711 88.7953 102.349 88.5382L119.176 81.7931L119.208 81.7806C120.001 81.4704 120.862 81.3853 121.683 81.5358C122.504 81.6863 123.249 82.0657 123.825 82.6268C124.228 83.0271 124.54 83.5038 124.741 84.029L127.792 91.6911C128.475 93.436 128.656 95.3425 128.315 97.2197C127.975 99.097 127.126 100.879 125.853 102.388L114.521 115.768C113.45 117.026 112.063 118.009 110.499 118.62Z" fill="white"/>
<ellipse cx="112.503" cy="85.3902" rx="69.3165" ry="63.015" transform="rotate(11.8657 112.503 85.3902)" fill="#581B8F"/>
<ellipse cx="117.067" cy="75.9212" rx="69.3165" ry="63.015" transform="rotate(11.8657 117.067 75.9212)" fill="#AD49DD"/>
<mask id="mask2_2362_3712" style="mask-type:alpha" maskUnits="userSpaceOnUse" x="47" y="12" width="140" height="128">
<ellipse cx="117.067" cy="75.9212" rx="69.3165" ry="63.015" transform="rotate(11.8657 117.067 75.9212)" fill="#AD49DD"/>
</mask>
<g mask="url(#mask2_2362_3712)">
<rect x="83.8906" y="12.7924" width="18.7393" height="144.815" transform="rotate(-19.4648 83.8906 12.7924)" fill="#E6B1FF"/>
<rect x="43.8848" y="75.4178" width="18.7393" height="144.815" transform="rotate(-80.6476 43.8848 75.4178)" fill="#E6B1FF"/>
<rect x="78.3389" y="139.966" width="18.7393" height="144.815" transform="rotate(-140.79 78.3389 139.966)" fill="#E6B1FF"/>
</g>
<ellipse cx="117.067" cy="75.9213" rx="54.5029" ry="49.5481" transform="rotate(11.8657 117.067 75.9213)" fill="#7103A6"/>
<path fill-rule="evenodd" clip-rule="evenodd" d="M140.684 42.7946C140.106 43.0521 139.846 43.7294 140.104 44.3074L141.036 46.4004L138.943 47.333C138.365 47.5904 138.105 48.2677 138.362 48.8457C138.62 49.4238 139.297 49.6836 139.875 49.4262L141.969 48.4936L142.901 50.587C143.158 51.165 143.836 51.4248 144.414 51.1674C144.992 50.9099 145.252 50.2326 144.994 49.6546L144.062 47.5612L146.154 46.6291C146.732 46.3716 146.992 45.6943 146.735 45.1163C146.477 44.5383 145.8 44.2784 145.222 44.5359L143.129 45.468L142.197 43.375C141.94 42.797 141.262 42.5371 140.684 42.7946Z" fill="#FBF8FB"/>
<path fill-rule="evenodd" clip-rule="evenodd" d="M91.0757 98.7201C90.4431 98.7333 89.941 99.2569 89.9542 99.8896L90.0023 102.181L87.7117 102.229C87.0791 102.242 86.577 102.766 86.5903 103.398C86.6035 104.031 87.1271 104.533 87.7598 104.52L90.0503 104.472L90.0984 106.762C90.1117 107.395 90.6353 107.897 91.2679 107.884C91.9005 107.871 92.4026 107.347 92.3893 106.714L92.3413 104.424L94.6326 104.375C95.2652 104.362 95.7673 103.839 95.754 103.206C95.7408 102.573 95.2172 102.071 94.5845 102.085L92.2932 102.133L92.2452 99.8415C92.2319 99.2089 91.7083 98.7068 91.0757 98.7201Z" fill="#FBF8FB"/>
<path fill-rule="evenodd" clip-rule="evenodd" d="M150.611 94.6913C149.835 94.6142 149.143 95.1811 149.066 95.9573L148.787 98.7686L145.976 98.4896C145.2 98.4125 144.508 98.9793 144.431 99.7556C144.354 100.532 144.921 101.224 145.697 101.301L148.508 101.58L148.229 104.391C148.152 105.167 148.719 105.859 149.495 105.936C150.271 106.013 150.963 105.446 151.04 104.67L151.319 101.859L154.131 102.138C154.907 102.215 155.599 101.648 155.676 100.872C155.753 100.096 155.186 99.4039 154.41 99.3268L151.598 99.0477L151.877 96.2364C151.955 95.4601 151.388 94.7684 150.611 94.6913Z" fill="#FBF8FB"/>
<path fill-rule="evenodd" clip-rule="evenodd" d="M78.7247 57.8C78.5015 58.0468 78.5205 58.4279 78.7674 58.6511L79.6612 59.4597L78.8527 60.3534C78.6294 60.6002 78.6485 60.9813 78.8953 61.2045C79.1421 61.4278 79.5232 61.4087 79.7465 61.1619L80.5549 60.2682L81.4486 61.0766C81.6955 61.2999 82.0765 61.2808 82.2998 61.034C82.523 60.7872 82.5039 60.4061 82.2571 60.1828L81.3634 59.3744L82.1719 58.4806C82.3952 58.2338 82.3761 57.8527 82.1293 57.6295C81.8825 57.4062 81.5014 57.4253 81.2782 57.6721L80.4697 58.5659L79.5758 57.7574C79.329 57.5341 78.948 57.5532 78.7247 57.8Z" fill="#FBF8FB"/>
<g filter="url(#filter2_f_2362_3712)">
<path d="M126.989 98.3241C125.418 98.942 123.722 99.162 122.073 98.9622L103.046 96.6466C101.582 96.4685 100.211 95.9245 99.0706 95.0691C97.9303 94.2138 97.0611 93.0772 96.5503 91.7738L90.2643 75.734C89.5848 73.9913 89.4066 72.0881 89.7474 70.2145C90.0882 68.3409 90.9362 66.5624 92.2066 65.0564L104.171 51.0989C106.081 48.8668 109.046 47.1665 111.956 47.5612L129.945 50.0165C130.987 50.1484 131.927 50.6356 132.592 51.3888C133.257 52.1419 133.603 53.1107 133.567 54.1175C133.531 54.6978 133.366 55.27 133.083 55.7959C132.799 56.3219 132.404 56.7894 131.923 57.1673C131.442 57.5452 130.886 57.8248 130.293 57.9875C129.7 58.1501 129.083 58.1921 128.484 58.1106L112.045 55.8666C111.13 55.7419 110.211 56.664 109.613 57.3646L98.7649 70.0143C98.4597 70.3787 98.2568 70.8086 98.1765 71.261C98.0963 71.7134 98.1415 72.1724 98.3076 72.5921L104.06 87.2715C104.216 87.6688 104.481 88.0153 104.829 88.2761C105.176 88.5369 105.594 88.7027 106.04 88.757L122.852 90.8103C123.233 90.8562 123.624 90.8056 123.987 90.6634C124.35 90.5212 124.671 90.2925 124.919 90.0001L135.779 77.1471C136.083 76.7822 136.286 76.3524 136.366 75.9002C136.446 75.448 136.401 74.9892 136.236 74.5693L134.66 70.6025L121.86 75.735L121.828 75.7475C120.994 76.0859 120.081 76.17 119.219 75.9879C118.358 75.8058 117.591 75.3667 117.028 74.7332C116.596 74.2502 116.296 73.6709 116.153 73.0432C116.009 72.4154 116.027 71.7573 116.204 71.1231C116.381 70.4889 116.712 69.8969 117.171 69.3961C117.629 68.8953 118.201 68.4999 118.84 68.2428L135.666 61.4977L135.698 61.4852C136.491 61.175 137.352 61.0899 138.173 61.2404C138.994 61.3909 139.739 61.7703 140.315 62.3314C140.718 62.7317 141.03 63.2084 141.231 63.7335L144.282 71.3957C144.965 73.1405 145.146 75.0471 144.806 76.9243C144.465 78.8016 143.616 80.5837 142.343 82.0923L131.012 95.473C129.94 96.7303 128.553 97.7134 126.989 98.3241Z" fill="white"/>
</g>
<path d="M126.989 98.3241C125.418 98.942 123.722 99.162 122.073 98.9622L103.046 96.6466C101.582 96.4685 100.211 95.9245 99.0706 95.0691C97.9303 94.2138 97.0611 93.0772 96.5503 91.7738L90.2643 75.734C89.5848 73.9913 89.4066 72.0881 89.7474 70.2145C90.0882 68.3409 90.9362 66.5624 92.2066 65.0564L104.171 51.0989C106.081 48.8668 109.046 47.1665 111.956 47.5612L129.945 50.0165C130.987 50.1484 131.927 50.6356 132.592 51.3888C133.257 52.1419 133.603 53.1107 133.567 54.1175C133.531 54.6978 133.366 55.27 133.083 55.7959C132.799 56.3219 132.404 56.7894 131.923 57.1673C131.442 57.5452 130.886 57.8248 130.293 57.9875C129.7 58.1501 129.083 58.1921 128.484 58.1106L112.045 55.8666C111.13 55.7419 110.211 56.664 109.613 57.3646L98.7649 70.0143C98.4597 70.3787 98.2568 70.8086 98.1765 71.261C98.0963 71.7134 98.1415 72.1724 98.3076 72.5921L104.06 87.2715C104.216 87.6688 104.481 88.0153 104.829 88.2761C105.176 88.5369 105.594 88.7027 106.04 88.757L122.852 90.8103C123.233 90.8562 123.624 90.8056 123.987 90.6634C124.35 90.5212 124.671 90.2925 124.919 90.0001L135.779 77.1471C136.083 76.7822 136.286 76.3524 136.366 75.9002C136.446 75.448 136.401 74.9892 136.236 74.5693L134.66 70.6025L121.86 75.735L121.828 75.7475C120.994 76.0859 120.081 76.17 119.219 75.9879C118.358 75.8058 117.591 75.3667 117.028 74.7332C116.596 74.2502 116.296 73.6709 116.153 73.0432C116.009 72.4154 116.027 71.7573 116.204 71.1231C116.381 70.4889 116.712 69.8969 117.171 69.3961C117.629 68.8953 118.201 68.4999 118.84 68.2428L135.666 61.4977L135.698 61.4852C136.491 61.175 137.352 61.0899 138.173 61.2404C138.994 61.3909 139.739 61.7703 140.315 62.3314C140.718 62.7317 141.03 63.2084 141.231 63.7335L144.282 71.3957C144.965 73.1405 145.146 75.0471 144.806 76.9243C144.465 78.8016 143.616 80.5837 142.343 82.0923L131.012 95.473C129.94 96.7303 128.553 97.7134 126.989 98.3241Z" fill="white"/>
<defs>
<filter id="filter0_f_2362_3712" x="53.8672" y="85.3635" width="63.3936" height="59.5298" filterUnits="userSpaceOnUse" color-interpolation-filters="sRGB">
<feFlood flood-opacity="0" result="BackgroundImageFix"/>
<feBlend mode="normal" in="SourceGraphic" in2="BackgroundImageFix" result="shape"/>
<feGaussianBlur stdDeviation="2" result="effect1_foregroundBlur_2362_3712"/>
</filter>
<filter id="filter1_f_2362_3712" x="69.0889" y="63.7994" width="63.3936" height="59.5298" filterUnits="userSpaceOnUse" color-interpolation-filters="sRGB">
<feFlood flood-opacity="0" result="BackgroundImageFix"/>
<feBlend mode="normal" in="SourceGraphic" in2="BackgroundImageFix" result="shape"/>
<feGaussianBlur stdDeviation="2" result="effect1_foregroundBlur_2362_3712"/>
</filter>
<filter id="filter2_f_2362_3712" x="85.5791" y="43.504" width="63.3936" height="59.5298" filterUnits="userSpaceOnUse" color-interpolation-filters="sRGB">
<feFlood flood-opacity="0" result="BackgroundImageFix"/>
<feBlend mode="normal" in="SourceGraphic" in2="BackgroundImageFix" result="shape"/>
<feGaussianBlur stdDeviation="2" result="effect1_foregroundBlur_2362_3712"/>
</filter>
</defs>
</svg>
