<svg width="256" height="105" viewBox="0 0 256 105" fill="none" xmlns="http://www.w3.org/2000/svg">
<path d="M46.494 48.518C46.494 51.3607 45.756 54.0393 44.28 56.554C42.8587 59.014 40.7267 61.064 37.884 62.704C35.096 64.2893 31.7887 65.2187 27.962 65.492V72.134H22.714V65.41C17.2473 64.918 12.8467 63.278 9.512 60.49C6.17733 57.6473 4.45533 53.8207 4.346 49.01H16.646C16.974 52.946 18.9967 55.324 22.714 56.144V40.482C18.778 39.498 15.6073 38.514 13.202 37.53C10.7967 36.546 8.71933 34.9607 6.97 32.774C5.22067 30.5873 4.346 27.608 4.346 23.836C4.346 19.08 6.04067 15.1987 9.43 12.192C12.874 9.18533 17.302 7.46333 22.714 7.026V0.383996H27.962V7.026C33.21 7.46333 37.392 9.04866 40.508 11.782C43.6787 14.5153 45.4553 18.2873 45.838 23.098H33.456C33.292 21.5127 32.718 20.146 31.734 18.998C30.8047 17.7953 29.5473 16.948 27.962 16.456V31.954C32.062 32.9927 35.2873 34.004 37.638 34.988C40.0433 35.9173 42.1207 37.4753 43.87 39.662C45.6193 41.794 46.494 44.746 46.494 48.518ZM16.318 23.262C16.318 25.066 16.8647 26.542 17.958 27.69C19.0513 28.7833 20.6367 29.6853 22.714 30.396V16.21C20.746 16.4833 19.188 17.2213 18.04 18.424C16.892 19.6267 16.318 21.2393 16.318 23.262ZM27.962 56.308C30.0393 55.9253 31.652 55.078 32.8 53.766C34.0027 52.454 34.604 50.8687 34.604 49.01C34.604 47.206 34.03 45.7573 32.882 44.664C31.734 43.5707 30.094 42.6687 27.962 41.958V56.308ZM99.1623 24.984C97.8503 22.5787 96.0463 20.7473 93.7503 19.49C91.4543 18.2327 88.7757 17.604 85.7143 17.604C82.325 17.604 79.3183 18.3693 76.6943 19.9C74.0703 21.4307 72.0203 23.6173 70.5443 26.46C69.0683 29.3027 68.3303 32.5827 68.3303 36.3C68.3303 40.1267 69.0683 43.4613 70.5443 46.304C72.075 49.1467 74.1797 51.3333 76.8583 52.864C79.537 54.3947 82.653 55.16 86.2063 55.16C90.5797 55.16 94.1603 54.012 96.9483 51.716C99.7363 49.3653 101.568 46.1127 102.442 41.958H82.7623V33.184H113.758V43.188C112.993 47.1787 111.353 50.8687 108.838 54.258C106.324 57.6473 103.071 60.3807 99.0803 62.458C95.1443 64.4807 90.7163 65.492 85.7963 65.492C80.275 65.492 75.273 64.262 70.7903 61.802C66.3623 59.2873 62.8637 55.816 60.2943 51.388C57.7797 46.96 56.5223 41.9307 56.5223 36.3C56.5223 30.6693 57.7797 25.64 60.2943 21.212C62.8637 16.7293 66.3623 13.258 70.7903 10.798C75.273 8.28333 80.2477 7.026 85.7143 7.026C92.165 7.026 97.7683 8.61133 102.524 11.782C107.28 14.898 110.56 19.2987 112.364 24.984H99.1623ZM154.724 35.644C157.949 36.2453 160.6 37.858 162.678 40.482C164.755 43.106 165.794 46.1127 165.794 49.502C165.794 52.5633 165.028 55.2693 163.498 57.62C162.022 59.916 159.862 61.72 157.02 63.032C154.177 64.344 150.815 65 146.934 65H122.252V7.764H145.868C149.749 7.764 153.084 8.39267 155.872 9.65C158.714 10.9073 160.846 12.6567 162.268 14.898C163.744 17.1393 164.482 19.6813 164.482 22.524C164.482 25.8587 163.58 28.6467 161.776 30.888C160.026 33.1293 157.676 34.7147 154.724 35.644ZM133.732 31.38H144.228C146.961 31.38 149.066 30.7787 150.542 29.576C152.018 28.3187 152.756 26.542 152.756 24.246C152.756 21.95 152.018 20.1733 150.542 18.916C149.066 17.6587 146.961 17.03 144.228 17.03H133.732V31.38ZM145.294 55.652C148.082 55.652 150.241 54.996 151.772 53.684C153.357 52.372 154.15 50.5133 154.15 48.108C154.15 45.648 153.33 43.7347 151.69 42.368C150.05 40.9467 147.836 40.236 145.048 40.236H133.732V55.652H145.294ZM186.423 7.764V65H174.943V7.764H186.423ZM237.617 24.984C236.305 22.5787 234.501 20.7473 232.205 19.49C229.909 18.2327 227.231 17.604 224.169 17.604C220.78 17.604 217.773 18.3693 215.149 19.9C212.525 21.4307 210.475 23.6173 208.999 26.46C207.523 29.3027 206.785 32.5827 206.785 36.3C206.785 40.1267 207.523 43.4613 208.999 46.304C210.53 49.1467 212.635 51.3333 215.313 52.864C217.992 54.3947 221.108 55.16 224.661 55.16C229.035 55.16 232.615 54.012 235.403 51.716C238.191 49.3653 240.023 46.1127 240.897 41.958H221.217V33.184H252.213V43.188C251.448 47.1787 249.808 50.8687 247.293 54.258C244.779 57.6473 241.526 60.3807 237.535 62.458C233.599 64.4807 229.171 65.492 224.251 65.492C218.73 65.492 213.728 64.262 209.245 61.802C204.817 59.2873 201.319 55.816 198.749 51.388C196.235 46.96 194.977 41.9307 194.977 36.3C194.977 30.6693 196.235 25.64 198.749 21.212C201.319 16.7293 204.817 13.258 209.245 10.798C213.728 8.28333 218.703 7.026 224.169 7.026C230.62 7.026 236.223 8.61133 240.979 11.782C245.735 14.898 249.015 19.2987 250.819 24.984H237.617Z" fill="url(#paint0_linear_2362_3542)"/>
<path d="M250.624 101.364C168.918 92.6487 63.3986 91.5882 15.0004 94.4043C40.3105 86.5625 123.233 83.6898 252.283 94.0183C253.891 94.147 255.133 95.5276 255.063 97.1391L255.046 97.5506C254.945 99.8632 252.926 101.609 250.624 101.364Z" fill="#BA57DD"/>
<defs>
<linearGradient id="paint0_linear_2362_3542" x1="1.04278e-06" y1="39.5" x2="238.309" y2="38.6878" gradientUnits="userSpaceOnUse">
<stop stop-color="#2E0568"/>
<stop offset="1" stop-color="#B04ADF"/>
</linearGradient>
</defs>
</svg>
