<svg width="52" height="39" viewBox="0 0 52 39" fill="none" xmlns="http://www.w3.org/2000/svg">
<mask id="path-1-outside-1_2352_6585" maskUnits="userSpaceOnUse" x="0" y="0" width="52" height="39" fill="black">
<rect fill="white" width="52" height="39"/>
<path d="M35.4439 8.10147C36.1471 8.52026 36.7424 9.11713 37.1646 9.82222L38.128 11.4316C38.28 11.6864 38.5488 11.8398 38.8452 11.8398H38.8468C39.1437 11.8398 39.4125 11.6879 39.564 11.4331L40.5274 9.82229C40.9497 9.11717 41.545 8.52031 42.2501 8.10154L43.8609 7.13657C44.1157 6.98308 44.2676 6.71583 44.2676 6.41937C44.2676 6.12251 44.1157 5.85566 43.8609 5.70217L42.2481 4.7372C41.5449 4.31841 40.9496 3.72154 40.5273 3.01645L39.5627 1.40321C39.4108 1.14843 39.142 1 38.8455 1H38.844C38.5491 1 38.2803 1.15193 38.1283 1.40477L37.1634 3.01561C36.7411 3.72074 36.1458 4.31759 35.4407 4.73636L33.8299 5.70133C33.5751 5.85483 33.4232 6.12207 33.4232 6.41853C33.4232 6.71539 33.5751 6.98224 33.8299 7.13573L35.4439 8.10147ZM36.0251 5.71223C36.8892 5.19566 37.6204 4.46441 38.1385 3.59884L38.8471 2.41574L39.5558 3.59884C40.0743 4.46447 40.8055 5.19573 41.6677 5.71223L42.8508 6.41891L41.6692 7.12559C40.8051 7.64216 40.0739 8.37342 39.5558 9.23898L38.8471 10.4221L38.1385 9.23898C37.62 8.37335 36.8888 7.64209 36.0266 7.12559L34.8435 6.41891L36.0251 5.71223Z"/>
<path d="M42.619 10.0373C42.4671 9.76496 42.1234 9.66719 41.8476 9.81756C41.5738 9.97106 41.476 10.315 41.6295 10.5889L43.3261 13.6362L32.9661 13.6358L31.2208 6.98108H31.6937C32.0077 6.98108 32.261 6.7263 32.261 6.41386C32.261 6.10143 32.0062 5.84665 31.6937 5.84665H13.0262C12.2358 5.84665 11.5006 6.26193 11.1048 6.94248L7.6318 13.1854C7.2547 13.8555 7.31781 14.6568 7.7958 15.2728L24.2264 36.9262C24.6417 37.4708 25.2891 37.7813 26.0032 37.7813C26.7169 37.7813 27.3643 37.4689 27.7816 36.9243L44.2082 15.2778C44.6881 14.6564 44.7528 13.8554 44.3757 13.1885L42.619 10.0373ZM26.0019 36.1537L20.2179 14.7705H31.7877L26.0019 36.1537ZM31.7929 13.6356H20.2092L21.956 6.98084H30.0455L31.7929 13.6356ZM12.0901 7.50293C12.2787 7.17842 12.6363 6.97934 13.0255 6.97934H20.7834L19.0365 13.6341H8.67953L12.0901 7.50293ZM8.83871 14.772H19.0411L24.6942 35.6705L8.83871 14.772ZM27.3088 35.6685L32.9619 14.77H43.1643L27.3088 35.6685Z"/>
<path d="M5.84667 22.6013L4.17818 24.2679C3.95651 24.4896 3.95651 24.8472 4.17818 25.0688C4.28805 25.1787 4.43491 25.2364 4.57944 25.2364C4.72436 25.2364 4.87084 25.1807 4.9807 25.0688L6.64919 23.4023C6.87086 23.1806 6.87086 22.823 6.64919 22.6013C6.4279 22.3796 6.06835 22.3796 5.84667 22.6013Z"/>
<path d="M4.98109 3.34029C4.75942 3.11862 4.39985 3.11862 4.17818 3.34029C3.95651 3.56196 3.95651 3.91958 4.17818 4.14124L5.84667 5.80784C5.95654 5.9177 6.1034 5.97535 6.24793 5.97535C6.39285 5.97535 6.53933 5.91965 6.64918 5.80784C6.87085 5.58617 6.87085 5.22854 6.64918 5.00688L4.98109 3.34029Z"/>
<path d="M4.48548 14.203C4.48548 13.889 4.2307 13.6358 3.91826 13.6358H1.56722C1.25323 13.6358 1 13.8906 1 14.203C1 14.5154 1.25323 14.7722 1.56722 14.7722H3.91826C4.23031 14.7722 4.48548 14.5174 4.48548 14.203Z"/>
<path d="M46.1558 22.6013C45.9341 22.3796 45.5745 22.3796 45.3529 22.6013C45.1312 22.823 45.1312 23.1806 45.3529 23.4023L47.0214 25.0688C47.1312 25.1787 47.2781 25.2364 47.4226 25.2364C47.5675 25.2364 47.714 25.1807 47.8239 25.0688C48.0455 24.8472 48.0455 24.4896 47.8239 24.2679L46.1558 22.6013Z"/>
<path d="M45.7545 5.97416C45.8994 5.97416 46.0459 5.91845 46.1558 5.80664L47.8243 4.14004C48.0459 3.91837 48.0459 3.56075 47.8243 3.33909C47.6026 3.11742 47.243 3.11742 47.0214 3.33909L45.3529 5.00568C45.1312 5.22736 45.1312 5.58498 45.3529 5.80664C45.4647 5.91845 45.6096 5.97416 45.7545 5.97416Z"/>
<path d="M50.4349 13.6355H48.0838C47.7699 13.6355 47.5166 13.8902 47.5166 14.2027C47.5166 14.5151 47.7714 14.7699 48.0838 14.7699H50.4349C50.7489 14.7699 51.0021 14.5151 51.0021 14.2027C51.0021 13.8906 50.7489 13.6355 50.4349 13.6355Z"/>
</mask>
<path d="M35.4439 8.10147C36.1471 8.52026 36.7424 9.11713 37.1646 9.82222L38.128 11.4316C38.28 11.6864 38.5488 11.8398 38.8452 11.8398H38.8468C39.1437 11.8398 39.4125 11.6879 39.564 11.4331L40.5274 9.82229C40.9497 9.11717 41.545 8.52031 42.2501 8.10154L43.8609 7.13657C44.1157 6.98308 44.2676 6.71583 44.2676 6.41937C44.2676 6.12251 44.1157 5.85566 43.8609 5.70217L42.2481 4.7372C41.5449 4.31841 40.9496 3.72154 40.5273 3.01645L39.5627 1.40321C39.4108 1.14843 39.142 1 38.8455 1H38.844C38.5491 1 38.2803 1.15193 38.1283 1.40477L37.1634 3.01561C36.7411 3.72074 36.1458 4.31759 35.4407 4.73636L33.8299 5.70133C33.5751 5.85483 33.4232 6.12207 33.4232 6.41853C33.4232 6.71539 33.5751 6.98224 33.8299 7.13573L35.4439 8.10147ZM36.0251 5.71223C36.8892 5.19566 37.6204 4.46441 38.1385 3.59884L38.8471 2.41574L39.5558 3.59884C40.0743 4.46447 40.8055 5.19573 41.6677 5.71223L42.8508 6.41891L41.6692 7.12559C40.8051 7.64216 40.0739 8.37342 39.5558 9.23898L38.8471 10.4221L38.1385 9.23898C37.62 8.37335 36.8888 7.64209 36.0266 7.12559L34.8435 6.41891L36.0251 5.71223Z" fill="white"/>
<path d="M42.619 10.0373C42.4671 9.76496 42.1234 9.66719 41.8476 9.81756C41.5738 9.97106 41.476 10.315 41.6295 10.5889L43.3261 13.6362L32.9661 13.6358L31.2208 6.98108H31.6937C32.0077 6.98108 32.261 6.7263 32.261 6.41386C32.261 6.10143 32.0062 5.84665 31.6937 5.84665H13.0262C12.2358 5.84665 11.5006 6.26193 11.1048 6.94248L7.6318 13.1854C7.2547 13.8555 7.31781 14.6568 7.7958 15.2728L24.2264 36.9262C24.6417 37.4708 25.2891 37.7813 26.0032 37.7813C26.7169 37.7813 27.3643 37.4689 27.7816 36.9243L44.2082 15.2778C44.6881 14.6564 44.7528 13.8554 44.3757 13.1885L42.619 10.0373ZM26.0019 36.1537L20.2179 14.7705H31.7877L26.0019 36.1537ZM31.7929 13.6356H20.2092L21.956 6.98084H30.0455L31.7929 13.6356ZM12.0901 7.50293C12.2787 7.17842 12.6363 6.97934 13.0255 6.97934H20.7834L19.0365 13.6341H8.67953L12.0901 7.50293ZM8.83871 14.772H19.0411L24.6942 35.6705L8.83871 14.772ZM27.3088 35.6685L32.9619 14.77H43.1643L27.3088 35.6685Z" fill="white"/>
<path d="M5.84667 22.6013L4.17818 24.2679C3.95651 24.4896 3.95651 24.8472 4.17818 25.0688C4.28805 25.1787 4.43491 25.2364 4.57944 25.2364C4.72436 25.2364 4.87084 25.1807 4.9807 25.0688L6.64919 23.4023C6.87086 23.1806 6.87086 22.823 6.64919 22.6013C6.4279 22.3796 6.06835 22.3796 5.84667 22.6013Z" fill="white"/>
<path d="M4.98109 3.34029C4.75942 3.11862 4.39985 3.11862 4.17818 3.34029C3.95651 3.56196 3.95651 3.91958 4.17818 4.14124L5.84667 5.80784C5.95654 5.9177 6.1034 5.97535 6.24793 5.97535C6.39285 5.97535 6.53933 5.91965 6.64918 5.80784C6.87085 5.58617 6.87085 5.22854 6.64918 5.00688L4.98109 3.34029Z" fill="white"/>
<path d="M4.48548 14.203C4.48548 13.889 4.2307 13.6358 3.91826 13.6358H1.56722C1.25323 13.6358 1 13.8906 1 14.203C1 14.5154 1.25323 14.7722 1.56722 14.7722H3.91826C4.23031 14.7722 4.48548 14.5174 4.48548 14.203Z" fill="white"/>
<path d="M46.1558 22.6013C45.9341 22.3796 45.5745 22.3796 45.3529 22.6013C45.1312 22.823 45.1312 23.1806 45.3529 23.4023L47.0214 25.0688C47.1312 25.1787 47.2781 25.2364 47.4226 25.2364C47.5675 25.2364 47.714 25.1807 47.8239 25.0688C48.0455 24.8472 48.0455 24.4896 47.8239 24.2679L46.1558 22.6013Z" fill="white"/>
<path d="M45.7545 5.97416C45.8994 5.97416 46.0459 5.91845 46.1558 5.80664L47.8243 4.14004C48.0459 3.91837 48.0459 3.56075 47.8243 3.33909C47.6026 3.11742 47.243 3.11742 47.0214 3.33909L45.3529 5.00568C45.1312 5.22736 45.1312 5.58498 45.3529 5.80664C45.4647 5.91845 45.6096 5.97416 45.7545 5.97416Z" fill="white"/>
<path d="M50.4349 13.6355H48.0838C47.7699 13.6355 47.5166 13.8902 47.5166 14.2027C47.5166 14.5151 47.7714 14.7699 48.0838 14.7699H50.4349C50.7489 14.7699 51.0021 14.5151 51.0021 14.2027C51.0021 13.8906 50.7489 13.6355 50.4349 13.6355Z" fill="white"/>
<path d="M35.4439 8.10147C36.1471 8.52026 36.7424 9.11713 37.1646 9.82222L38.128 11.4316C38.28 11.6864 38.5488 11.8398 38.8452 11.8398H38.8468C39.1437 11.8398 39.4125 11.6879 39.564 11.4331L40.5274 9.82229C40.9497 9.11717 41.545 8.52031 42.2501 8.10154L43.8609 7.13657C44.1157 6.98308 44.2676 6.71583 44.2676 6.41937C44.2676 6.12251 44.1157 5.85566 43.8609 5.70217L42.2481 4.7372C41.5449 4.31841 40.9496 3.72154 40.5273 3.01645L39.5627 1.40321C39.4108 1.14843 39.142 1 38.8455 1H38.844C38.5491 1 38.2803 1.15193 38.1283 1.40477L37.1634 3.01561C36.7411 3.72074 36.1458 4.31759 35.4407 4.73636L33.8299 5.70133C33.5751 5.85483 33.4232 6.12207 33.4232 6.41853C33.4232 6.71539 33.5751 6.98224 33.8299 7.13573L35.4439 8.10147ZM36.0251 5.71223C36.8892 5.19566 37.6204 4.46441 38.1385 3.59884L38.8471 2.41574L39.5558 3.59884C40.0743 4.46447 40.8055 5.19573 41.6677 5.71223L42.8508 6.41891L41.6692 7.12559C40.8051 7.64216 40.0739 8.37342 39.5558 9.23898L38.8471 10.4221L38.1385 9.23898C37.62 8.37335 36.8888 7.64209 36.0266 7.12559L34.8435 6.41891L36.0251 5.71223Z" stroke="white" mask="url(#path-1-outside-1_2352_6585)"/>
<path d="M42.619 10.0373C42.4671 9.76496 42.1234 9.66719 41.8476 9.81756C41.5738 9.97106 41.476 10.315 41.6295 10.5889L43.3261 13.6362L32.9661 13.6358L31.2208 6.98108H31.6937C32.0077 6.98108 32.261 6.7263 32.261 6.41386C32.261 6.10143 32.0062 5.84665 31.6937 5.84665H13.0262C12.2358 5.84665 11.5006 6.26193 11.1048 6.94248L7.6318 13.1854C7.2547 13.8555 7.31781 14.6568 7.7958 15.2728L24.2264 36.9262C24.6417 37.4708 25.2891 37.7813 26.0032 37.7813C26.7169 37.7813 27.3643 37.4689 27.7816 36.9243L44.2082 15.2778C44.6881 14.6564 44.7528 13.8554 44.3757 13.1885L42.619 10.0373ZM26.0019 36.1537L20.2179 14.7705H31.7877L26.0019 36.1537ZM31.7929 13.6356H20.2092L21.956 6.98084H30.0455L31.7929 13.6356ZM12.0901 7.50293C12.2787 7.17842 12.6363 6.97934 13.0255 6.97934H20.7834L19.0365 13.6341H8.67953L12.0901 7.50293ZM8.83871 14.772H19.0411L24.6942 35.6705L8.83871 14.772ZM27.3088 35.6685L32.9619 14.77H43.1643L27.3088 35.6685Z" stroke="white" mask="url(#path-1-outside-1_2352_6585)"/>
<path d="M5.84667 22.6013L4.17818 24.2679C3.95651 24.4896 3.95651 24.8472 4.17818 25.0688C4.28805 25.1787 4.43491 25.2364 4.57944 25.2364C4.72436 25.2364 4.87084 25.1807 4.9807 25.0688L6.64919 23.4023C6.87086 23.1806 6.87086 22.823 6.64919 22.6013C6.4279 22.3796 6.06835 22.3796 5.84667 22.6013Z" stroke="white" mask="url(#path-1-outside-1_2352_6585)"/>
<path d="M4.98109 3.34029C4.75942 3.11862 4.39985 3.11862 4.17818 3.34029C3.95651 3.56196 3.95651 3.91958 4.17818 4.14124L5.84667 5.80784C5.95654 5.9177 6.1034 5.97535 6.24793 5.97535C6.39285 5.97535 6.53933 5.91965 6.64918 5.80784C6.87085 5.58617 6.87085 5.22854 6.64918 5.00688L4.98109 3.34029Z" stroke="white" mask="url(#path-1-outside-1_2352_6585)"/>
<path d="M4.48548 14.203C4.48548 13.889 4.2307 13.6358 3.91826 13.6358H1.56722C1.25323 13.6358 1 13.8906 1 14.203C1 14.5154 1.25323 14.7722 1.56722 14.7722H3.91826C4.23031 14.7722 4.48548 14.5174 4.48548 14.203Z" stroke="white" mask="url(#path-1-outside-1_2352_6585)"/>
<path d="M46.1558 22.6013C45.9341 22.3796 45.5745 22.3796 45.3529 22.6013C45.1312 22.823 45.1312 23.1806 45.3529 23.4023L47.0214 25.0688C47.1312 25.1787 47.2781 25.2364 47.4226 25.2364C47.5675 25.2364 47.714 25.1807 47.8239 25.0688C48.0455 24.8472 48.0455 24.4896 47.8239 24.2679L46.1558 22.6013Z" stroke="white" mask="url(#path-1-outside-1_2352_6585)"/>
<path d="M45.7545 5.97416C45.8994 5.97416 46.0459 5.91845 46.1558 5.80664L47.8243 4.14004C48.0459 3.91837 48.0459 3.56075 47.8243 3.33909C47.6026 3.11742 47.243 3.11742 47.0214 3.33909L45.3529 5.00568C45.1312 5.22736 45.1312 5.58498 45.3529 5.80664C45.4647 5.91845 45.6096 5.97416 45.7545 5.97416Z" stroke="white" mask="url(#path-1-outside-1_2352_6585)"/>
<path d="M50.4349 13.6355H48.0838C47.7699 13.6355 47.5166 13.8902 47.5166 14.2027C47.5166 14.5151 47.7714 14.7699 48.0838 14.7699H50.4349C50.7489 14.7699 51.0021 14.5151 51.0021 14.2027C51.0021 13.8906 50.7489 13.6355 50.4349 13.6355Z" stroke="white" mask="url(#path-1-outside-1_2352_6585)"/>
</svg>
