<svg width="54" height="50" viewBox="0 0 54 50" fill="none" xmlns="http://www.w3.org/2000/svg">
<path d="M36.8962 16.7503L29.2179 24.4896L17.5503 12.7294L25.2286 4.99014L36.8962 16.7503ZM34.55 16.7399L25.2388 7.35477L19.9065 12.7294L29.2177 22.1145L34.55 16.7399Z" fill="white"/>
<path d="M26.0753 1.5735C26.747 2.2506 27.0881 3.14649 27.0881 4.04226C27.0881 4.93803 26.747 5.83393 26.0753 6.51103L19.0584 13.5836C18.3866 14.2607 17.4978 14.594 16.6091 14.594C15.7203 14.594 14.8315 14.2503 14.1598 13.5732C13.488 12.8961 13.1469 12.0002 13.1469 11.1044C13.1469 10.2086 13.488 9.31274 14.1598 8.63564L21.1766 1.56307C21.8484 0.885976 22.7372 0.542208 23.6259 0.542208C24.5147 0.542208 25.4035 0.885963 26.0753 1.56307V1.5735ZM25.4345 4.04226C25.4345 3.5735 25.2588 3.10474 24.9074 2.75055C24.556 2.39635 24.091 2.21928 23.6259 2.21928C23.1608 2.21928 22.6957 2.39637 22.3443 2.75055L15.3275 9.82312C14.9761 10.1773 14.8004 10.6461 14.8004 11.1148C14.8004 11.5836 14.9761 12.0524 15.3275 12.4066C15.6789 12.7607 16.1439 12.9378 16.609 12.9378C17.0741 12.9378 17.5288 12.7607 17.8906 12.4066L24.9074 5.33398C25.2588 4.9798 25.4345 4.51104 25.4345 4.04226Z" fill="white"/>
<path d="M40.2855 15.8965C40.9572 16.5736 41.2983 17.4695 41.2983 18.3652C41.2983 19.2611 40.9572 20.1569 40.2855 20.834L33.2686 27.9066C32.5968 28.5837 31.708 28.917 30.8193 28.917C29.9305 28.917 29.0417 28.5732 28.37 27.8961C27.6982 27.219 27.3571 26.3231 27.3571 25.4274C27.3571 24.5315 27.6982 23.6357 28.37 22.9586L35.3868 15.886C36.0586 15.2089 36.9474 14.8652 37.8361 14.8652C38.725 14.8652 39.6137 15.2089 40.2855 15.886V15.8965ZM39.6447 18.3652C39.6447 17.8965 39.469 17.4277 39.1176 17.0735C38.7662 16.7193 38.3012 16.5423 37.8361 16.5423C37.371 16.5423 36.9059 16.7193 36.5545 17.0735L29.5377 24.1461C29.1863 24.5003 29.0106 24.969 29.0106 25.4378C29.0106 25.9066 29.1863 26.3753 29.5377 26.7295C29.8891 27.0837 30.3541 27.2608 30.8192 27.2608C31.2843 27.2608 31.739 27.0837 32.1008 26.7295L39.1176 19.657C39.469 19.3028 39.6447 18.834 39.6447 18.3652Z" fill="white"/>
<path d="M26.8811 19.7815L26.3334 20.3649L7.13158 40.8645C7.0799 40.9166 7.10057 40.8957 7.0799 40.9166C6.6045 41.3957 5.97407 41.6249 5.34367 41.6249C4.72357 41.6249 4.09314 41.3853 3.61776 40.927C3.56609 40.8749 3.58676 40.9061 3.56609 40.8749L1.28205 38.5727C1.26138 38.5519 1.28205 38.5727 1.23038 38.5207C0.775639 38.0415 0.54827 37.406 0.537939 36.781C0.537939 36.1456 0.765308 35.5102 1.24071 35.031C1.26138 35.0102 1.24071 35.031 1.29238 34.979L21.6306 15.6248L22.2093 15.0727L26.8811 19.7815ZM22.1891 17.4065L2.42917 36.1981C2.39817 36.2293 2.44984 36.1773 2.41884 36.2189C2.26381 36.3752 2.19147 36.5731 2.19147 36.7919C2.19147 37.0106 2.27415 37.2294 2.42917 37.396C2.44984 37.4169 2.4085 37.3648 2.44984 37.4169L4.73387 39.719C4.77521 39.7607 4.73387 39.719 4.75454 39.7399C4.9199 39.8961 5.13694 39.9795 5.35397 39.9795C5.56066 39.9795 5.76736 39.9065 5.92238 39.7503C5.96372 39.7086 5.91205 39.7607 5.94305 39.7399L24.5867 19.8231L22.1891 17.4065Z" fill="white"/>
<path d="M27.6055 42.9055H51.271C51.8705 42.9055 52.4182 43.1555 52.8213 43.5514C53.214 43.9472 53.4621 44.4993 53.4621 45.1139V47.2494C53.4621 47.8535 53.214 48.4056 52.8213 48.8119C52.4286 49.2078 51.8808 49.4578 51.271 49.4578H27.6055C27.0061 49.4578 26.4583 49.2078 26.0552 48.8119C25.6625 48.4161 25.4145 47.864 25.4145 47.2494V45.1139C25.4145 44.5098 25.6625 43.9577 26.0552 43.5514C26.4479 43.1555 26.9957 42.9055 27.6055 42.9055ZM51.271 44.5722H27.6055C27.4608 44.5722 27.3265 44.6347 27.2231 44.7285C27.1301 44.8222 27.0681 44.9577 27.0681 45.1139V47.2493C27.0681 47.3952 27.1301 47.5306 27.2231 47.6348C27.3161 47.7285 27.4505 47.791 27.6055 47.791H51.271C51.4157 47.791 51.5501 47.7285 51.6534 47.6348C51.7464 47.541 51.8084 47.4056 51.8084 47.2493V45.1139C51.8084 44.9681 51.7464 44.8327 51.6534 44.7285C51.5604 44.6347 51.4261 44.5722 51.271 44.5722Z" fill="white"/>
<path d="M31.0968 38.0202H47.7764C48.3758 38.0202 48.9235 38.2702 49.3266 38.6661C49.7194 39.0619 49.9674 39.614 49.9674 40.2286V42.3641C49.9674 42.9683 49.7194 43.5204 49.3266 43.9267C48.9339 44.3225 48.3862 44.5725 47.7764 44.5725H31.0968C30.4974 44.5725 29.9497 44.3225 29.5466 43.9267C29.1538 43.5308 28.9058 42.9787 28.9058 42.3641V40.2286C28.9058 39.6245 29.1538 39.0724 29.5466 38.6661C29.9393 38.2702 30.487 38.0202 31.0968 38.0202ZM47.7764 39.6869H31.0968C30.9522 39.6869 30.8178 39.7494 30.7144 39.8432C30.6214 39.9369 30.5594 40.0724 30.5594 40.2286V42.364C30.5594 42.5099 30.6214 42.6453 30.7144 42.7495C30.8075 42.8432 30.9418 42.9057 31.0968 42.9057H47.7764C47.921 42.9057 48.0554 42.8432 48.1588 42.7495C48.2518 42.6557 48.3138 42.5203 48.3138 42.364V40.2286C48.3138 40.0828 48.2518 39.9474 48.1588 39.8432C48.0657 39.7494 47.9314 39.6869 47.7764 39.6869Z" fill="white"/>
<path fill-rule="evenodd" clip-rule="evenodd" d="M29.7924 24.6773L37.0816 17.3302C37.3029 17.1671 37.568 17.0845 37.8361 17.0845C38.1665 17.0845 38.4922 17.21 38.7372 17.4569C38.9823 17.7039 39.1068 18.0322 39.1068 18.3652C39.1068 18.6983 38.9823 19.0266 38.7373 19.2736L31.7259 26.3406C31.7251 26.3414 31.7242 26.3423 31.7234 26.3431C31.463 26.5968 31.1439 26.7186 30.8192 26.7186C30.4888 26.7186 30.163 26.5931 29.9181 26.3461C29.673 26.0992 29.5485 25.7708 29.5485 25.4378C29.5485 25.1676 29.6305 24.9004 29.7924 24.6773ZM29.0447 25.0819C29.0824 24.8876 29.1512 24.6985 29.2511 24.5231C29.2909 24.4534 29.3355 24.3858 29.3851 24.3209L36.7281 16.9197C36.7928 16.8695 36.8601 16.8243 36.9297 16.7841C37.1038 16.6834 37.2915 16.6142 37.4844 16.5764C37.6004 16.5536 37.7182 16.5423 37.8361 16.5423C38.3012 16.5423 38.7662 16.7193 39.1176 17.0735C39.469 17.4277 39.6447 17.8965 39.6447 18.3652C39.6447 18.834 39.469 19.3028 39.1176 19.657L32.1008 26.7295C31.739 27.0837 31.2843 27.2608 30.8192 27.2608C30.3541 27.2608 29.8891 27.0837 29.5377 26.7295C29.1863 26.3753 29.0106 25.9066 29.0106 25.4378C29.0106 25.3185 29.022 25.1992 29.0447 25.0819ZM40.2855 15.886C39.6137 15.2089 38.725 14.8652 37.8361 14.8652C37.2713 14.8652 36.7064 15.004 36.1973 15.2791C36.0369 15.3657 35.8821 15.4658 35.7345 15.5794L26.384 6.1547C26.4964 6.00565 26.5954 5.84928 26.6811 5.68736C26.9515 5.17592 27.0881 4.60907 27.0881 4.04226C27.0881 3.14649 26.747 2.2506 26.0753 1.5735V1.56307C25.4035 0.885963 24.5147 0.542208 23.6259 0.542208C22.7372 0.542208 21.8484 0.885976 21.1766 1.56307L14.1598 8.63564C13.488 9.31274 13.1469 10.2086 13.1469 11.1044C13.1469 12.0002 13.488 12.8961 14.1598 13.5732C14.8315 14.2503 15.7203 14.594 16.6091 14.594C17.171 14.594 17.733 14.4608 18.2402 14.1916C18.4013 14.106 18.557 14.0067 18.7053 13.8936L21.0094 16.2159L1.29238 34.979L1.24071 35.031C0.765308 35.5102 0.537939 36.1456 0.537939 36.781C0.54827 37.406 0.775639 38.0415 1.23038 38.5207L3.56609 40.8749C3.57428 40.8873 3.57598 40.8898 3.57826 40.8917L3.5803 40.8931C3.58417 40.8957 3.59193 40.9009 3.61776 40.927C4.09314 41.3853 4.72357 41.6249 5.34367 41.6249C5.97407 41.6249 6.6045 41.3957 7.0799 40.9166L7.13158 40.8645L25.7469 20.991L28.0575 23.32C27.9453 23.4693 27.8465 23.6259 27.7611 23.7881C27.4926 24.298 27.3571 24.8627 27.3571 25.4274C27.3571 26.3231 27.6982 27.219 28.37 27.8961C29.0417 28.5732 29.9305 28.917 30.8193 28.917C31.708 28.917 32.5968 28.5837 33.2686 27.9066L40.2855 20.834C40.9572 20.1569 41.2983 19.2611 41.2983 18.3652C41.2983 17.4695 40.9572 16.5736 40.2855 15.8965V15.886ZM40.8234 15.6812V15.6615L40.6659 15.5027C39.8892 14.7198 38.8618 14.323 37.8361 14.323C37.1318 14.323 36.4266 14.5101 35.8023 14.881L27.0763 6.08569C27.4416 5.45809 27.626 4.74974 27.626 4.04226C27.626 3.08093 27.2855 2.118 26.6132 1.35823V1.33849L26.4557 1.17968C25.679 0.396824 24.6515 0 23.6259 0C22.6004 0 21.5729 0.39684 20.7962 1.17968L13.7794 8.25224C13.0027 9.03508 12.609 10.0706 12.609 11.1044C12.609 12.1381 13.0027 13.1737 13.7794 13.9566C14.556 14.7394 15.5834 15.1363 16.6091 15.1363C17.3087 15.1363 18.0118 14.9563 18.6359 14.5904L20.2375 16.2048L0.91747 34.59L0.86035 34.6476C0.274252 35.2383 0 36.0164 0 36.781L7.46442e-05 36.7901C0.0124288 37.5375 0.284045 38.3079 0.841645 38.8954L3.15673 41.2291C3.1724 41.2487 3.19579 41.2754 3.22772 41.303C3.23241 41.307 3.23693 41.3108 3.24122 41.3143L3.24591 41.3188C3.82453 41.8767 4.58942 42.1671 5.34367 42.1671C6.10228 42.1671 6.87421 41.8907 7.46028 41.3L7.51742 41.2424L25.7579 21.769L27.3657 23.3895C27.0025 24.0157 26.8192 24.7219 26.8192 25.4274C26.8192 26.4611 27.2129 27.4967 27.9896 28.2795C28.7662 29.0624 29.7936 29.4592 30.8193 29.4592C31.8406 29.4592 32.8695 29.0757 33.649 28.29L40.6658 21.2174C41.4425 20.4346 41.8362 19.3991 41.8362 18.3652C41.8362 17.4039 41.4957 16.441 40.8234 15.6812ZM3.28181 41.3442C3.28222 41.3445 3.28198 41.3443 3.28181 41.3442V41.3442ZM25.2388 7.35477L19.9065 12.7294L29.2126 22.1093L34.5449 16.7347L25.2388 7.35477ZM33.7841 16.7347L25.2388 8.12157L20.6672 12.7294L29.2126 21.3425L33.7841 16.7347ZM25.4007 4.39679C25.4232 4.27986 25.4345 4.16106 25.4345 4.04226C25.4345 3.5735 25.2588 3.10474 24.9074 2.75055C24.556 2.39635 24.091 2.21928 23.6259 2.21928C23.1608 2.21928 22.6957 2.39637 22.3443 2.75055L15.3275 9.82312C14.9761 10.1773 14.8004 10.6461 14.8004 11.1148C14.8004 11.5836 14.9761 12.0524 15.3275 12.4066C15.6789 12.7607 16.1439 12.9378 16.609 12.9378C16.7278 12.9378 16.8459 12.9263 16.9619 12.9032C17.1539 12.865 17.3403 12.7951 17.5148 12.6937C17.5899 12.6501 17.6628 12.6006 17.7329 12.5452L25.0566 5.16344C25.1078 5.09693 25.1538 5.02755 25.1946 4.95588C25.2945 4.78039 25.3631 4.59117 25.4007 4.39679ZM24.65 4.80648C24.8137 4.58264 24.8966 4.31401 24.8966 4.04226C24.8966 3.70926 24.7721 3.3809 24.527 3.13394C24.2821 2.88699 23.9563 2.76149 23.6259 2.76149C23.2955 2.76149 22.9697 2.887 22.7247 3.13395L15.7078 10.2065C15.4628 10.4535 15.3383 10.7818 15.3383 11.1148C15.3383 11.4478 15.4628 11.7762 15.7079 12.0232C15.9529 12.2701 16.2786 12.3956 16.609 12.3956C16.8793 12.3956 17.1458 12.3112 17.3777 12.1365L24.65 4.80648ZM2.42917 36.1981C2.4216 36.2057 2.41876 36.2086 2.41884 36.2087L2.42046 36.2074C2.4253 36.2035 2.43821 36.1929 2.41884 36.2189C2.288 36.3508 2.21605 36.5124 2.19679 36.6911C2.19644 36.6943 2.19611 36.6975 2.1958 36.7008C2.1929 36.7307 2.19147 36.7611 2.19147 36.7919C2.19147 36.8292 2.19388 36.8665 2.19864 36.9036C2.19907 36.9069 2.19952 36.9103 2.19999 36.9136C2.22474 37.0902 2.30299 37.2604 2.42917 37.396C2.43951 37.4065 2.43434 37.3986 2.43176 37.3947C2.43055 37.3933 2.43097 37.3935 2.43176 37.3947C2.4319 37.395 2.43159 37.3945 2.43176 37.3947C2.43363 37.397 2.43847 37.4025 2.44984 37.4169L4.75454 39.7399C4.81447 39.7965 4.8812 39.8435 4.95224 39.8805C5.13097 39.6605 5.13536 39.373 5.13493 39.3571C5.14586 39.3696 5.17185 39.4 5.19535 39.432C5.16452 39.6443 5.08001 39.7911 4.97615 39.8925C5.09476 39.9497 5.22436 39.9795 5.35397 39.9795C5.38453 39.9795 5.41508 39.9779 5.44547 39.9746C5.44924 39.9742 5.453 39.9738 5.45676 39.9734C5.62792 39.9529 5.79312 39.8806 5.92238 39.7503C5.93112 39.7415 5.9357 39.7369 5.93779 39.7349C5.93838 39.7343 5.93877 39.7339 5.939 39.7337C5.93898 39.7337 5.93915 39.7336 5.939 39.7337C5.93877 39.7339 5.93838 39.7343 5.93779 39.7349C5.9341 39.7397 5.92583 39.7514 5.94305 39.7399L24.5867 19.8231L22.1891 17.4065L2.42917 36.1981ZM22.1782 18.1623L2.84954 36.5438C2.84942 36.5439 2.84966 36.5436 2.84954 36.5438L2.82625 36.5751L2.79922 36.6023C2.75537 36.6465 2.72941 36.7015 2.72941 36.7919C2.72941 36.8632 2.75306 36.9365 2.79788 36.9967C2.80118 36.9998 2.80394 37.0025 2.8061 37.0046C2.80867 37.0071 2.81102 37.0095 2.81309 37.0116C2.81522 37.0138 2.81707 37.0157 2.81861 37.0173C2.82012 37.0189 2.82154 37.0204 2.82287 37.0218C2.82672 37.0259 2.82975 37.0293 2.83166 37.0315C2.83681 37.0373 2.84078 37.042 2.84245 37.044L2.84732 37.0499L2.85083 37.0542L5.12733 39.3488C5.19089 39.4065 5.27362 39.4372 5.35397 39.4372C5.43694 39.4372 5.50052 39.4087 5.54201 39.3669L5.55497 39.3538L5.5622 39.3467C5.56401 39.3449 5.57187 39.3372 5.58132 39.3287C5.58436 39.326 5.58912 39.3218 5.59506 39.3168C5.59862 39.3139 5.60473 39.3088 5.61277 39.3026L23.8368 19.8341L22.1782 18.1623ZM5.12427 39.346C5.12425 39.346 5.12429 39.346 5.12427 39.346V39.346ZM5.12088 39.346C5.11504 39.3461 5.10924 39.3463 5.10349 39.3465C5.03843 39.3488 4.97915 39.3567 4.92512 39.3693C5.00277 39.3532 5.06675 39.3496 5.10093 39.3491C5.10795 39.3489 5.11371 39.349 5.11808 39.349L5.12088 39.346ZM2.75485 36.6321C2.75637 36.6309 2.75763 36.6299 2.75852 36.6292L2.75734 36.6302M2.75963 36.6283C2.76039 36.6277 2.7599 36.6281 2.75852 36.6292L2.75963 36.6283ZM53.2017 43.168C53.6909 43.661 54 44.3493 54 45.1139V47.2494C54 48.006 53.6892 48.691 53.2066 49.1903L53.2017 49.1954C52.7125 49.6884 52.0297 50 51.271 50H27.6055C26.8548 50 26.1752 49.6867 25.6798 49.2003L25.6748 49.1954C25.1856 48.7023 24.8765 48.014 24.8765 47.2494V45.1139C24.8765 44.3573 25.1873 43.6723 25.6699 43.173L25.6748 43.1679C26.164 42.6749 26.8469 42.3633 27.6055 42.3633H28.3679V40.2286C28.3679 39.472 28.6787 38.787 29.1613 38.2877L29.1661 38.2826C29.6553 37.7896 30.3382 37.478 31.0968 37.478H47.7764C48.5271 37.478 49.2067 37.7913 49.702 38.2777L49.7071 38.2826C50.1962 38.7757 50.5053 39.464 50.5053 40.2286V42.3633H51.271C52.0217 42.3633 52.7013 42.6766 53.1967 43.163L53.2017 43.168ZM49.8996 42.9055C49.9438 42.7318 49.9674 42.5504 49.9674 42.3641V40.2286C49.9674 39.614 49.7194 39.0619 49.3266 38.6661C48.9235 38.2702 48.3758 38.0202 47.7764 38.0202H31.0968C30.487 38.0202 29.9393 38.2702 29.5466 38.6661C29.1538 39.0724 28.9058 39.6245 28.9058 40.2286V42.3641C28.9058 42.5512 28.9288 42.7326 28.9719 42.9055H27.6055C26.9957 42.9055 26.4479 43.1555 26.0552 43.5514C25.6625 43.9577 25.4145 44.5098 25.4145 45.1139V47.2494C25.4145 47.864 25.6625 48.4161 26.0552 48.8119C26.4583 49.2078 27.0061 49.4578 27.6055 49.4578H51.271C51.8808 49.4578 52.4286 49.2078 52.8213 48.8119C53.214 48.4056 53.4621 47.8535 53.4621 47.2494V45.1139C53.4621 44.4993 53.214 43.9472 52.8213 43.5514C52.4182 43.1555 51.8705 42.9055 51.271 42.9055H49.8996ZM30.5594 42.364C30.5594 42.5099 30.6214 42.6453 30.7144 42.7495C30.8043 42.84 30.9326 42.9014 31.081 42.9055H47.7912C47.9302 42.9014 48.0589 42.84 48.1588 42.7495C48.2518 42.6557 48.3138 42.5203 48.3138 42.364V40.2286C48.3138 40.0828 48.2518 39.9474 48.1588 39.8432C48.0657 39.7494 47.9314 39.6869 47.7764 39.6869H31.0968C30.9522 39.6869 30.8178 39.7494 30.7144 39.8432C30.6214 39.9369 30.5594 40.0724 30.5594 40.2286V42.364ZM31.0974 40.2303V42.3607C31.0975 42.3612 31.0977 42.3617 31.098 42.3624C31.0981 42.3627 31.0979 42.3621 31.098 42.3624L47.7736 42.3633C47.774 42.3632 47.7743 42.363 47.7747 42.3629C47.7751 42.3627 47.7755 42.3625 47.7758 42.3624V40.2319C47.7757 40.2315 47.7755 40.2309 47.7752 40.2302C47.775 40.2299 47.7749 40.2295 47.7747 40.2291H31.1001C31.0997 40.2293 31.0991 40.2295 31.0985 40.2298C31.0981 40.2299 31.0977 40.2301 31.0974 40.2303ZM27.6055 44.5722C27.4608 44.5722 27.3265 44.6347 27.2231 44.7285C27.1301 44.8222 27.0681 44.9577 27.0681 45.1139V47.2493C27.0681 47.3952 27.1301 47.5306 27.2231 47.6348C27.3161 47.7285 27.4505 47.791 27.6055 47.791H51.271C51.4157 47.791 51.5501 47.7285 51.6534 47.6348C51.7464 47.541 51.8084 47.4056 51.8084 47.2493V45.1139C51.8084 44.9681 51.7464 44.8327 51.6534 44.7285C51.5604 44.6347 51.4261 44.5722 51.271 44.5722H47.8112L47.7764 44.5725H31.0968L31.0625 44.5722H27.6055ZM31.0585 45.1144C31.0712 45.1146 31.084 45.1147 31.0968 45.1147H47.7764C47.7893 45.1147 47.8023 45.1146 47.8152 45.1144H51.2694C51.2695 45.1148 51.2697 45.1152 51.2699 45.1155C51.2701 45.1162 51.2704 45.1168 51.2705 45.1172V47.2477C51.2701 47.2478 51.2698 47.248 51.2694 47.2482C51.2687 47.2484 51.2682 47.2487 51.2677 47.2488H27.6072C27.607 47.2484 27.6068 47.2481 27.6067 47.2477C27.6064 47.247 27.6062 47.2464 27.606 47.246V45.1156C27.6064 45.1154 27.6068 45.1152 27.6071 45.1151C27.6078 45.1148 27.6083 45.1146 27.6088 45.1144H31.0585Z" fill="white"/>
</svg>
