<svg width="428" height="120" viewBox="0 0 428 120" fill="none" xmlns="http://www.w3.org/2000/svg">
<path d="M33.41 15.744C32.418 13.9253 31.054 12.5407 29.318 11.59C27.582 10.6393 25.5567 10.164 23.242 10.164C20.6793 10.164 18.406 10.7427 16.422 11.9C14.438 13.0573 12.888 14.7107 11.772 16.86C10.656 19.0093 10.098 21.4893 10.098 24.3C10.098 27.1933 10.656 29.7147 11.772 31.864C12.9293 34.0133 14.5207 35.6667 16.546 36.824C18.5713 37.9813 20.9273 38.56 23.614 38.56C26.9207 38.56 29.628 37.692 31.736 35.956C33.844 34.1787 35.2287 31.7193 35.89 28.578H21.01V21.944H44.446V29.508C43.8673 32.5253 42.6273 35.3153 40.726 37.878C38.8247 40.4407 36.3653 42.5073 33.348 44.078C30.372 45.6073 27.024 46.372 23.304 46.372C19.1293 46.372 15.3473 45.442 11.958 43.582C8.61 41.6807 5.96467 39.056 4.022 35.708C2.12067 32.36 1.17 28.5573 1.17 24.3C1.17 20.0427 2.12067 16.24 4.022 12.892C5.96467 9.50266 8.61 6.878 11.958 5.018C15.3473 3.11667 19.1087 2.166 23.242 2.166C28.1193 2.166 32.356 3.36466 35.952 5.762C39.548 8.118 42.028 11.4453 43.392 15.744H33.41ZM59.5478 16.984C60.6638 15.1653 62.1105 13.7393 63.8878 12.706C65.7065 11.6727 67.7732 11.156 70.0878 11.156V20.27H67.7938C65.0658 20.27 62.9992 20.9107 61.5938 22.192C60.2298 23.4733 59.5478 25.7053 59.5478 28.888V46H50.8678V11.652H59.5478V16.984ZM107.864 28.082C107.864 29.322 107.782 30.438 107.616 31.43H82.5063C82.7129 33.91 83.5809 35.8527 85.1103 37.258C86.6396 38.6633 88.5203 39.366 90.7523 39.366C93.9763 39.366 96.2703 37.9813 97.6343 35.212H106.996C106.004 38.5187 104.103 41.2467 101.292 43.396C98.4816 45.504 95.0303 46.558 90.9383 46.558C87.6316 46.558 84.6556 45.8347 82.0103 44.388C79.4063 42.9 77.3603 40.8127 75.8723 38.126C74.4256 35.4393 73.7022 32.3393 73.7022 28.826C73.7022 25.2713 74.4256 22.1507 75.8723 19.464C77.3189 16.7773 79.3443 14.7107 81.9483 13.264C84.5523 11.8173 87.5489 11.094 90.9383 11.094C94.2036 11.094 97.1176 11.7967 99.6803 13.202C102.284 14.6073 104.289 16.612 105.694 19.216C107.141 21.7787 107.864 24.734 107.864 28.082ZM98.8743 25.602C98.8329 23.37 98.0269 21.5927 96.4563 20.27C94.8856 18.906 92.9636 18.224 90.6903 18.224C88.5409 18.224 86.7223 18.8853 85.2343 20.208C83.7876 21.4893 82.8989 23.2873 82.5683 25.602H98.8743ZM111.968 28.702C111.968 25.23 112.65 22.1507 114.014 19.464C115.419 16.7773 117.3 14.7107 119.656 13.264C122.053 11.8173 124.719 11.094 127.654 11.094C130.217 11.094 132.449 11.6107 134.35 12.644C136.293 13.6773 137.843 14.9793 139 16.55V11.652H147.742V46H139V40.978C137.884 42.59 136.334 43.9333 134.35 45.008C132.407 46.0413 130.155 46.558 127.592 46.558C124.699 46.558 122.053 45.814 119.656 44.326C117.3 42.838 115.419 40.7507 114.014 38.064C112.65 35.336 111.968 32.2153 111.968 28.702ZM139 28.826C139 26.718 138.587 24.92 137.76 23.432C136.933 21.9027 135.817 20.7453 134.412 19.96C133.007 19.1333 131.498 18.72 129.886 18.72C128.274 18.72 126.786 19.1127 125.422 19.898C124.058 20.6833 122.942 21.8407 122.074 23.37C121.247 24.858 120.834 26.6353 120.834 28.702C120.834 30.7687 121.247 32.5873 122.074 34.158C122.942 35.6873 124.058 36.8653 125.422 37.692C126.827 38.5187 128.315 38.932 129.886 38.932C131.498 38.932 133.007 38.5393 134.412 37.754C135.817 36.9273 136.933 35.77 137.76 34.282C138.587 32.7527 139 30.934 139 28.826ZM166.325 18.782V35.398C166.325 36.5553 166.594 37.4027 167.131 37.94C167.71 38.436 168.661 38.684 169.983 38.684H174.013V46H168.557C161.241 46 157.583 42.4453 157.583 35.336V18.782H153.491V11.652H157.583V3.158H166.325V11.652H174.013V18.782H166.325ZM212.187 28.082C212.187 29.322 212.104 30.438 211.939 31.43H186.829C187.035 33.91 187.903 35.8527 189.433 37.258C190.962 38.6633 192.843 39.366 195.075 39.366C198.299 39.366 200.593 37.9813 201.957 35.212H211.319C210.327 38.5187 208.425 41.2467 205.615 43.396C202.804 45.504 199.353 46.558 195.261 46.558C191.954 46.558 188.978 45.8347 186.333 44.388C183.729 42.9 181.683 40.8127 180.195 38.126C178.748 35.4393 178.025 32.3393 178.025 28.826C178.025 25.2713 178.748 22.1507 180.195 19.464C181.641 16.7773 183.667 14.7107 186.271 13.264C188.875 11.8173 191.871 11.094 195.261 11.094C198.526 11.094 201.44 11.7967 204.003 13.202C206.607 14.6073 208.611 16.612 210.017 19.216C211.463 21.7787 212.187 24.734 212.187 28.082ZM203.197 25.602C203.155 23.37 202.349 21.5927 200.779 20.27C199.208 18.906 197.286 18.224 195.013 18.224C192.863 18.224 191.045 18.8853 189.557 20.208C188.11 21.4893 187.221 23.2873 186.891 25.602H203.197ZM227.202 16.984C228.318 15.1653 229.765 13.7393 231.542 12.706C233.361 11.6727 235.427 11.156 237.742 11.156V20.27H235.448C232.72 20.27 230.653 20.9107 229.248 22.192C227.884 23.4733 227.202 25.7053 227.202 28.888V46H218.522V11.652H227.202V16.984ZM272.684 38.002L281.364 11.652H290.602L277.892 46H267.352L254.704 11.652H264.004L272.684 38.002ZM293.245 28.702C293.245 25.23 293.927 22.1507 295.291 19.464C296.697 16.7773 298.577 14.7107 300.933 13.264C303.331 11.8173 305.997 11.094 308.931 11.094C311.494 11.094 313.726 11.6107 315.627 12.644C317.57 13.6773 319.12 14.9793 320.277 16.55V11.652H329.019V46H320.277V40.978C319.161 42.59 317.611 43.9333 315.627 45.008C313.685 46.0413 311.432 46.558 308.869 46.558C305.976 46.558 303.331 45.814 300.933 44.326C298.577 42.838 296.697 40.7507 295.291 38.064C293.927 35.336 293.245 32.2153 293.245 28.702ZM320.277 28.826C320.277 26.718 319.864 24.92 319.037 23.432C318.211 21.9027 317.095 20.7453 315.689 19.96C314.284 19.1333 312.775 18.72 311.163 18.72C309.551 18.72 308.063 19.1127 306.699 19.898C305.335 20.6833 304.219 21.8407 303.351 23.37C302.525 24.858 302.111 26.6353 302.111 28.702C302.111 30.7687 302.525 32.5873 303.351 34.158C304.219 35.6873 305.335 36.8653 306.699 37.692C308.105 38.5187 309.593 38.932 311.163 38.932C312.775 38.932 314.284 38.5393 315.689 37.754C317.095 36.9273 318.211 35.77 319.037 34.282C319.864 32.7527 320.277 30.934 320.277 28.826ZM346.177 0.119999V46H337.497V0.119999H346.177ZM387.179 11.652V46H378.437V41.66C377.321 43.148 375.853 44.326 374.035 45.194C372.257 46.0207 370.315 46.434 368.207 46.434C365.52 46.434 363.143 45.876 361.077 44.76C359.01 43.6027 357.377 41.9287 356.179 39.738C355.021 37.506 354.443 34.8607 354.443 31.802V11.652H363.123V30.562C363.123 33.29 363.805 35.398 365.169 36.886C366.533 38.3327 368.393 39.056 370.749 39.056C373.146 39.056 375.027 38.3327 376.391 36.886C377.755 35.398 378.437 33.29 378.437 30.562V11.652H387.179ZM427.673 28.082C427.673 29.322 427.59 30.438 427.425 31.43H402.315C402.522 33.91 403.39 35.8527 404.919 37.258C406.448 38.6633 408.329 39.366 410.561 39.366C413.785 39.366 416.079 37.9813 417.443 35.212H426.805C425.813 38.5187 423.912 41.2467 421.101 43.396C418.29 45.504 414.839 46.558 410.747 46.558C407.44 46.558 404.464 45.8347 401.819 44.388C399.215 42.9 397.169 40.8127 395.681 38.126C394.234 35.4393 393.511 32.3393 393.511 28.826C393.511 25.2713 394.234 22.1507 395.681 19.464C397.128 16.7773 399.153 14.7107 401.757 13.264C404.361 11.8173 407.358 11.094 410.747 11.094C414.012 11.094 416.926 11.7967 419.489 13.202C422.093 14.6073 424.098 16.612 425.503 19.216C426.95 21.7787 427.673 24.734 427.673 28.082ZM418.683 25.602C418.642 23.37 417.836 21.5927 416.265 20.27C414.694 18.906 412.772 18.224 410.499 18.224C408.35 18.224 406.531 18.8853 405.043 20.208C403.596 21.4893 402.708 23.2873 402.377 25.602H418.683ZM19.026 91.782H13.012V119H4.208V91.782H0.302V84.652H4.208V82.916C4.208 78.7 5.40667 75.6 7.804 73.616C10.2013 71.632 13.818 70.702 18.654 70.826V78.142C16.546 78.1007 15.0787 78.452 14.252 79.196C13.4253 79.94 13.012 81.2833 13.012 83.226V84.652H19.026V91.782ZM39.903 119.558C36.5964 119.558 33.6204 118.835 30.975 117.388C28.3297 115.9 26.2424 113.813 24.713 111.126C23.225 108.439 22.481 105.339 22.481 101.826C22.481 98.3127 23.2457 95.2127 24.775 92.526C26.3457 89.8393 28.4744 87.7727 31.161 86.326C33.8477 84.838 36.8444 84.094 40.151 84.094C43.4577 84.094 46.4544 84.838 49.141 86.326C51.8277 87.7727 53.9357 89.8393 55.465 92.526C57.0357 95.2127 57.821 98.3127 57.821 101.826C57.821 105.339 57.015 108.439 55.403 111.126C53.8324 113.813 51.683 115.9 48.955 117.388C46.2684 118.835 43.251 119.558 39.903 119.558ZM39.903 111.994C41.4737 111.994 42.941 111.622 44.305 110.878C45.7104 110.093 46.8264 108.935 47.653 107.406C48.4797 105.877 48.893 104.017 48.893 101.826C48.893 98.5607 48.025 96.06 46.289 94.324C44.5944 92.5467 42.507 91.658 40.027 91.658C37.547 91.658 35.4597 92.5467 33.765 94.324C32.1117 96.06 31.285 98.5607 31.285 101.826C31.285 105.091 32.091 107.613 33.703 109.39C35.3564 111.126 37.423 111.994 39.903 111.994ZM72.8682 89.984C73.9842 88.1653 75.4308 86.7393 77.2082 85.706C79.0268 84.6727 81.0935 84.156 83.4082 84.156V93.27H81.1142C78.3862 93.27 76.3195 93.9107 74.9142 95.192C73.5502 96.4733 72.8682 98.7053 72.8682 101.888V119H64.1882V84.652H72.8682V89.984ZM141.042 119H132.362L112.708 89.302V119H104.028V75.662H112.708L132.362 105.422V75.662H141.042V119ZM176.342 75.724V82.73H158.3V93.828H172.126V100.71H158.3V119H149.62V75.724H176.342ZM211.947 75.724V82.73H200.415V119H191.735V82.73H180.203V75.724H211.947ZM231.424 119.558C228.613 119.558 226.092 119.062 223.86 118.07C221.628 117.037 219.851 115.652 218.528 113.916C217.247 112.18 216.544 110.258 216.42 108.15H225.162C225.327 109.473 225.968 110.568 227.084 111.436C228.241 112.304 229.667 112.738 231.362 112.738C233.015 112.738 234.297 112.407 235.206 111.746C236.157 111.085 236.632 110.237 236.632 109.204C236.632 108.088 236.053 107.261 234.896 106.724C233.78 106.145 231.982 105.525 229.502 104.864C226.939 104.244 224.831 103.603 223.178 102.942C221.566 102.281 220.161 101.268 218.962 99.904C217.805 98.54 217.226 96.7007 217.226 94.386C217.226 92.4847 217.763 90.7487 218.838 89.178C219.954 87.6073 221.525 86.3673 223.55 85.458C225.617 84.5487 228.035 84.094 230.804 84.094C234.896 84.094 238.161 85.1273 240.6 87.194C243.039 89.2193 244.382 91.968 244.63 95.44H236.322C236.198 94.076 235.619 93.0013 234.586 92.216C233.594 91.3893 232.251 90.976 230.556 90.976C228.985 90.976 227.766 91.2653 226.898 91.844C226.071 92.4227 225.658 93.2287 225.658 94.262C225.658 95.4193 226.237 96.308 227.394 96.928C228.551 97.5067 230.349 98.106 232.788 98.726C235.268 99.346 237.314 99.9867 238.926 100.648C240.538 101.309 241.923 102.343 243.08 103.748C244.279 105.112 244.899 106.931 244.94 109.204C244.94 111.188 244.382 112.965 243.266 114.536C242.191 116.107 240.621 117.347 238.554 118.256C236.529 119.124 234.152 119.558 231.424 119.558Z" fill="url(#paint0_linear_2_41)"/>
<defs>
<linearGradient id="paint0_linear_2_41" x1="-0.999998" y1="67" x2="457" y2="65.5" gradientUnits="userSpaceOnUse">
<stop stop-color="#2E0568"/>
<stop offset="1" stop-color="#B04ADF"/>
</linearGradient>
</defs>
</svg>
