<svg width="186" height="41" viewBox="0 0 186 41" fill="none" xmlns="http://www.w3.org/2000/svg">
<rect x="153" y="7" width="33" height="14" rx="4" fill="black"/>
<path d="M164.118 13.994C164.393 14.0453 164.619 14.183 164.797 14.407C164.974 14.631 165.063 14.8877 165.063 15.177C165.063 15.4383 164.997 15.6693 164.867 15.87C164.741 16.066 164.556 16.22 164.314 16.332C164.071 16.444 163.784 16.5 163.453 16.5H161.346V11.614H163.362C163.693 11.614 163.978 11.6677 164.216 11.775C164.458 11.8823 164.64 12.0317 164.762 12.223C164.888 12.4143 164.951 12.6313 164.951 12.874C164.951 13.1587 164.874 13.3967 164.72 13.588C164.57 13.7793 164.37 13.9147 164.118 13.994ZM162.326 13.63H163.222C163.455 13.63 163.635 13.5787 163.761 13.476C163.887 13.3687 163.95 13.217 163.95 13.021C163.95 12.825 163.887 12.6733 163.761 12.566C163.635 12.4587 163.455 12.405 163.222 12.405H162.326V13.63ZM163.313 15.702C163.551 15.702 163.735 15.646 163.866 15.534C164.001 15.422 164.069 15.2633 164.069 15.058C164.069 14.848 163.999 14.6847 163.859 14.568C163.719 14.4467 163.53 14.386 163.292 14.386H162.326V15.702H163.313ZM166.824 12.405V13.63H168.469V14.407H166.824V15.702H168.679V16.5H165.844V11.607H168.679V12.405H166.824ZM172.894 11.614V12.405H171.592V16.5H170.612V12.405H169.31V11.614H172.894ZM176.605 15.569H174.659L174.337 16.5H173.308L175.065 11.607H176.206L177.963 16.5H176.927L176.605 15.569ZM176.339 14.785L175.632 12.741L174.925 14.785H176.339Z" fill="white"/>
<g clip-path="url(#clip0_2574_8381)">
<path d="M54.5069 29.7608C52.7832 28.8509 51.3454 27.5177 50.3423 25.8992C49.3543 24.2728 48.834 22.4258 48.834 20.5455C48.834 18.6652 49.3543 16.8183 50.3423 15.1919C51.3402 13.5694 52.7793 12.2351 54.5069 11.3303C56.3188 10.3778 58.3586 9.89092 60.4266 9.91728C62.4789 9.91728 64.2788 10.3058 65.8263 11.0828C67.2503 11.769 68.5241 12.7085 69.5792 13.8509L66.4971 16.475C65.7304 15.7363 64.8511 15.1126 63.8891 14.625C62.942 14.1499 61.7879 13.9117 60.4266 13.9106C59.1915 13.8997 57.9756 14.2026 56.9034 14.7882C55.8508 15.3545 54.9797 16.184 54.3837 17.1877C53.7722 18.2104 53.4552 19.3696 53.4648 20.5473C53.4541 21.7102 53.7679 22.8549 54.3738 23.8637C54.9798 24.8725 55.8561 25.7089 56.9126 26.2871C57.979 26.8737 59.1905 27.1768 60.4211 27.1647C61.414 27.1719 62.3987 26.993 63.3194 26.6382C64.2126 26.2871 64.8736 25.9085 65.3025 25.5025V23.089H60.9449V19.6802H69.7924V27.2279C69.181 27.9388 68.4611 28.5578 67.6568 29.064C66.6472 29.7104 65.5488 30.2202 64.3927 30.5788C63.1147 30.989 61.7748 31.1959 60.4266 31.1914C58.3564 31.2163 56.3155 30.7231 54.5069 29.7608Z" fill="black"/>
<path d="M75.6347 30.2014C74.4465 29.5639 73.4556 28.6381 72.7621 27.5176C72.0725 26.3957 71.709 25.1184 71.709 23.8175C71.709 22.5165 72.0725 21.2392 72.7621 20.1173C73.4531 19.0007 74.4435 18.0803 75.631 17.451C76.8672 16.8106 78.2514 16.4751 79.6578 16.4751C81.0642 16.4751 82.4483 16.8106 83.6845 17.451C84.5677 17.9295 85.343 18.5703 85.9655 19.3365C86.5881 20.1026 87.0455 20.9789 87.3116 21.9148C87.5776 22.8507 87.647 23.8277 87.5156 24.7893C87.3842 25.751 87.0547 26.6782 86.5461 27.5176C85.8609 28.6395 84.8742 29.5661 83.6882 30.2014C82.4553 30.8519 81.0699 31.1931 79.6614 31.1931C78.253 31.1931 76.8675 30.8519 75.6347 30.2014ZM82.2988 26.4715C82.6594 26.1229 82.9429 25.7087 83.1323 25.2533C83.3218 24.7979 83.4133 24.3108 83.4015 23.821C83.4138 23.3337 83.3224 22.8491 83.1328 22.3965C82.9433 21.9439 82.6595 21.5328 82.2988 21.188C81.9573 20.8454 81.5452 20.5739 81.0884 20.3909C80.6317 20.2078 80.1402 20.117 79.6449 20.1243C79.1517 20.1164 78.6622 20.207 78.2077 20.3901C77.7533 20.5733 77.3439 20.8451 77.0057 21.188C76.6503 21.5356 76.3714 21.9477 76.1855 22.3999C75.9995 22.8521 75.9104 23.3353 75.9232 23.821C75.9108 24.3092 76.0001 24.795 76.1859 25.25C76.3718 25.705 76.6504 26.1202 77.0057 26.4715C77.3414 26.8185 77.75 27.094 78.2047 27.2801C78.6595 27.4661 79.1502 27.5584 79.6449 27.551C80.1419 27.5573 80.6348 27.4642 81.0918 27.2777C81.5489 27.0911 81.96 26.8153 82.2988 26.4679V26.4715Z" fill="black"/>
<path d="M93.3597 30.2016C92.1734 29.5645 91.1838 28.64 90.4908 27.5213C89.8024 26.399 89.4395 25.1218 89.4395 23.8211C89.4395 22.5204 89.8024 21.2432 90.4908 20.121C91.1818 19.0044 92.1722 18.084 93.3597 17.4547C94.5959 16.8142 95.9801 16.4788 97.3865 16.4788C98.7929 16.4788 100.177 16.8142 101.413 17.4547C102.296 17.9339 103.07 18.5753 103.692 19.3417C104.313 20.1082 104.77 20.9847 105.035 21.9205C105.3 22.8564 105.369 23.8331 105.237 24.7944C105.105 25.7556 104.775 26.6824 104.266 27.5213C103.581 28.6412 102.597 29.5665 101.413 30.2016C100.18 30.8521 98.7949 31.1933 97.3865 31.1933C95.978 31.1933 94.5926 30.8521 93.3597 30.2016ZM100.026 26.4716C100.386 26.1229 100.669 25.7086 100.859 25.2533C101.048 24.798 101.14 24.3109 101.128 23.8211C101.14 23.3339 101.049 22.8493 100.859 22.3968C100.67 21.9443 100.386 21.5331 100.026 21.1882C99.6839 20.8458 99.2718 20.5745 98.8151 20.3915C98.3584 20.2084 97.867 20.1175 97.3718 20.1245C96.8785 20.1163 96.3889 20.2066 95.9344 20.3898C95.4799 20.573 95.0705 20.845 94.7326 21.1882C94.3766 21.5354 94.0972 21.9474 93.9109 22.3997C93.7247 22.8519 93.6354 23.3353 93.6483 23.8211C93.6361 24.3095 93.7257 24.7953 93.9118 25.2503C94.098 25.7053 94.377 26.1205 94.7326 26.4716C95.0681 26.8189 95.4766 27.0946 95.9314 27.2807C96.3862 27.4667 96.8771 27.5589 97.3718 27.5511C97.8687 27.5571 98.3615 27.4639 98.8185 27.2774C99.2755 27.0909 99.6867 26.8152 100.026 26.4681V26.4716Z" fill="black"/>
<path d="M113.234 30.4752C112.4 30.0001 111.8 29.4706 111.435 28.8867H111.343V31.1686H107.225V9.98926H111.343V18.7762H111.435C111.803 18.1911 112.403 17.6645 113.234 17.1965C114.124 16.7072 115.138 16.4607 116.164 16.4838C117.348 16.4792 118.508 16.803 119.503 17.4159C120.552 18.0584 121.401 18.958 121.961 20.0207C122.563 21.2056 122.876 22.5055 122.876 23.8227C122.876 25.1398 122.563 26.4398 121.961 27.6246C121.399 28.691 120.551 29.5959 119.503 30.247C118.512 30.8692 117.35 31.1989 116.164 31.1949C115.137 31.2159 114.123 30.967 113.234 30.4752ZM116.82 27.0506C117.379 26.7206 117.841 26.2596 118.162 25.7114C118.502 25.1335 118.675 24.4801 118.665 23.8174C118.671 23.1777 118.505 22.5473 118.183 21.9863C117.862 21.4252 117.395 20.9522 116.827 20.6123C116.282 20.2888 115.653 20.1173 115.012 20.1173C114.37 20.1173 113.741 20.2888 113.196 20.6123C112.628 20.9522 112.162 21.4252 111.84 21.9863C111.518 22.5473 111.352 23.1777 111.358 23.8174C111.349 24.48 111.522 25.1332 111.862 25.7114C112.182 26.2594 112.644 26.7203 113.203 27.0506C113.748 27.3753 114.377 27.5474 115.019 27.5474C115.661 27.5474 116.29 27.3753 116.835 27.0506H116.82Z" fill="black"/>
<path d="M125.179 13.7175C124.961 13.5162 124.787 13.2746 124.669 13.0074C124.551 12.7402 124.491 12.4529 124.492 12.1629C124.494 11.8728 124.556 11.5861 124.677 11.3199C124.798 11.0537 124.974 10.8137 125.194 10.6142C125.416 10.4068 125.678 10.2434 125.966 10.1334C126.254 10.0234 126.562 9.96909 126.872 9.9735C127.18 9.96821 127.486 10.0222 127.772 10.1323C128.058 10.2424 128.317 10.4062 128.535 10.6142C128.752 10.816 128.925 11.0573 129.042 11.3238C129.16 11.5903 129.221 11.8766 129.221 12.1659C129.221 12.4551 129.16 12.7414 129.042 13.0079C128.925 13.2744 128.752 13.5157 128.535 13.7175C128.315 13.9219 128.055 14.0825 127.769 14.1901C127.484 14.2976 127.179 14.35 126.872 14.3442C126.56 14.3518 126.25 14.3004 125.96 14.1928C125.669 14.0852 125.404 13.9237 125.179 13.7175ZM128.916 31.1756H124.799V16.7665H128.916V31.1756Z" fill="black"/>
<path d="M133.889 36.1134C132.663 35.5107 131.789 34.8402 131.264 34.1018L133.857 31.6251C134.302 32.1529 134.858 32.5854 135.489 32.8942C136.204 33.2704 137.008 33.4656 137.824 33.4611C139.049 33.4611 140.029 33.0972 140.764 32.3693C141.499 31.6415 141.872 30.6848 141.882 29.4994V28.4322H141.79C141.422 28.9951 140.832 29.51 140.02 29.9769C139.207 30.4438 138.272 30.4596 137.213 30.4596C136.074 30.4596 135.017 30.3806 134.041 29.7873C133.041 29.1704 132.231 28.3108 131.692 27.2966C131.11 26.1733 130.807 24.9368 130.807 23.6833C130.807 22.4298 131.11 21.1932 131.692 20.07C132.232 19.0564 133.042 18.1971 134.041 17.5793C134.985 16.9934 136.088 16.6829 137.213 16.6858C138.196 16.6672 139.166 16.9038 140.02 17.3704C140.833 17.8268 141.423 18.3364 141.79 18.8993L141.882 18.6834V16.7666H146V29.4994C146.017 30.8369 145.659 32.1543 144.964 33.3154C144.283 34.4511 143.291 35.3881 142.095 36.0256C140.837 36.6949 139.416 37.0363 137.976 37.0156C136.557 37.0351 135.155 36.7255 133.889 36.1134ZM140.891 26.117C141.551 25.4658 141.882 24.4389 141.882 23.4683C141.882 22.4976 141.551 21.8727 140.891 21.2215C140.575 20.9041 140.194 20.6533 139.77 20.4852C139.347 20.3171 138.892 20.2355 138.434 20.2456C137.981 20.2375 137.531 20.3202 137.113 20.4883C136.696 20.6564 136.32 20.9062 136.01 21.2215C135.371 21.8909 135.017 22.7638 135.017 23.6693C135.017 24.5747 135.371 25.4476 136.01 26.117C136.32 26.4321 136.696 26.6817 137.114 26.8498C137.531 27.0178 137.981 27.1007 138.434 27.0929C138.892 27.1026 139.347 27.0208 139.77 26.8527C140.193 26.6847 140.575 26.4341 140.891 26.117Z" fill="black"/>
<path d="M0 28.9498V12.0499C7.68805e-05 11.4174 0.174353 10.7961 0.505332 10.2483C0.83631 9.70049 1.31234 9.24549 1.88565 8.92895L17.1693 0.484265C17.7442 0.166868 18.3965 -0.000244141 19.0605 -0.000244141C19.7245 -0.000244141 20.3768 0.166868 20.9517 0.484265L36.2353 8.92895C36.8087 9.24549 37.2847 9.70049 37.6157 10.2483C37.9466 10.7961 38.1209 11.4174 38.121 12.0499V28.948C38.1212 29.5808 37.9471 30.2024 37.6161 30.7506C37.2851 31.2987 36.8089 31.754 36.2353 32.0707L20.9517 40.5136C20.3771 40.8318 19.7247 40.9995 19.0605 40.9995C18.3963 40.9995 17.7439 40.8318 17.1693 40.5136L1.88565 32.0707C1.31234 31.7541 0.83631 31.2991 0.505332 30.7513C0.174353 30.2035 7.68805e-05 29.5822 0 28.9498Z" fill="url(#paint0_radial_2574_8381)"/>
<path d="M19.0521 35.1813C18.1438 35.1824 17.2512 34.9548 16.4644 34.5213L7.38717 29.5152C6.68871 29.1301 6.1087 28.5762 5.70544 27.9091C5.30218 27.242 5.08986 26.4853 5.08984 25.715V16.2365C5.09159 15.2074 5.37595 14.1967 5.91451 13.3053C6.45308 12.414 7.22701 11.6731 8.15908 11.1567L16.8926 6.40863C18.2875 5.64859 20.107 5.37301 21.4873 6.15938L30.0168 11.0286C30.5128 11.3053 30.8879 11.7435 31.0732 12.2628C31.2585 12.7822 31.2417 13.3479 31.0258 13.8563C30.8941 14.1465 30.6991 14.4065 30.4539 14.619C30.2086 14.8315 29.9187 14.9916 29.6036 15.0886C29.2884 15.1856 28.9552 15.2173 28.6262 15.1816C28.2972 15.1459 27.9799 15.0435 27.6956 14.8814L19.9012 10.4318C19.4675 10.1843 18.826 10.4721 18.3886 10.7108L10.4711 15.0131C10.2467 15.1385 10.0606 15.318 9.93162 15.5336C9.8026 15.7492 9.73514 15.9934 9.73597 16.2418V24.9164C9.73594 25.1512 9.80063 25.3819 9.92355 25.5852C10.0465 25.7886 10.2233 25.9575 10.4362 26.0749L18.4548 30.5017C18.6365 30.6017 18.8424 30.6543 19.0521 30.6543C19.2618 30.6543 19.4677 30.6017 19.6494 30.5017L27.6129 26.0977C27.8369 25.9719 28.0227 25.7923 28.1516 25.5768C28.2806 25.3612 28.3483 25.1172 28.348 24.869L28.337 22.5204L20.9175 22.5801H20.8992C20.4149 22.586 19.941 22.4458 19.545 22.1795C19.149 21.9132 18.8511 21.5343 18.6937 21.0969C18.5721 20.7627 18.5354 20.4057 18.5869 20.0554C18.6383 19.705 18.7763 19.3714 18.9894 19.082C19.2026 18.7927 19.4848 18.556 19.8127 18.3914C20.1406 18.2269 20.5049 18.1392 20.8753 18.1357L30.6288 18.0585H30.6472C31.1053 18.0588 31.5533 18.188 31.935 18.4299C32.3168 18.6718 32.6155 19.0158 32.7938 19.4188C32.9174 19.7049 32.9798 20.0116 32.9776 20.321L33.0015 24.8585C33.0013 25.8895 32.7175 26.9024 32.1785 27.7958C31.6396 28.6891 30.8643 29.4316 29.9304 29.9488L21.627 34.5283C20.8432 34.9572 19.9554 35.1824 19.0521 35.1813Z" fill="white"/>
</g>
<defs>
<radialGradient id="paint0_radial_2574_8381" cx="0" cy="0" r="1" gradientUnits="userSpaceOnUse" gradientTransform="translate(36.7922 30.9718) scale(45.3071 43.2713)">
<stop stop-color="#5204A8"/>
<stop offset="0.13" stop-color="#5706AA"/>
<stop offset="0.28" stop-color="#650DAE"/>
<stop offset="0.45" stop-color="#7D18B5"/>
<stop offset="0.63" stop-color="#9F28BF"/>
<stop offset="0.81" stop-color="#CA3CCC"/>
<stop offset="1" stop-color="#FF54DC"/>
</radialGradient>
<clipPath id="clip0_2574_8381">
<rect width="146" height="41" fill="white"/>
</clipPath>
</defs>
</svg>
