<svg width="95" height="32" viewBox="0 0 95 32" fill="none" xmlns="http://www.w3.org/2000/svg">
<g clip-path="url(#clip0_27_19)">
<path d="M29.568 23.6089C28.6145 23.624 27.6681 23.4417 26.7884 23.0735C25.9088 22.7053 25.1147 22.1591 24.4563 21.4693C23.4317 20.4494 22.7329 19.1482 22.4484 17.7308C22.164 16.3133 22.3066 14.8434 22.8584 13.5071C23.4101 12.1708 24.3461 11.0283 25.5477 10.2245C26.7493 9.42058 28.1625 8.99146 29.6082 8.99146C31.0539 8.99146 32.4671 9.42058 33.6687 10.2245C34.8703 11.0283 35.8062 12.1708 36.358 13.5071C36.9097 14.8434 37.0524 16.3133 36.7679 17.7308C36.4835 19.1482 35.7847 20.4494 34.7601 21.4693C34.0916 22.1641 33.2865 22.713 32.3954 23.0812C31.5043 23.4495 30.5466 23.6292 29.5826 23.6089H29.568ZM27.0194 13.8163C26.4019 14.4213 26.0136 15.222 25.9209 16.0816C25.8282 16.9411 26.0369 17.8062 26.5112 18.529C26.9855 19.2517 27.696 19.7874 28.5215 20.0445C29.3469 20.3015 30.2359 20.264 31.0368 19.9383C31.8376 19.6127 32.5005 19.019 32.9122 18.2588C33.324 17.4986 33.459 16.6191 33.2942 15.7704C33.1294 14.9217 32.675 14.1566 32.0087 13.6057C31.3424 13.0549 30.5056 12.7524 29.641 12.7501C29.1543 12.7389 28.6706 12.8278 28.2196 13.0112C27.7687 13.1946 27.3602 13.4686 27.0194 13.8163Z" fill="white"/>
<path d="M46.3048 23.609C45.3513 23.6241 44.405 23.4418 43.5253 23.0736C42.6456 22.7054 41.8515 22.1592 41.1931 21.4694C40.0102 20.2792 39.2767 18.7156 39.1176 17.0451C38.9586 15.3746 39.3838 13.7007 40.3208 12.3086C41.2578 10.9165 42.6486 9.89252 44.2561 9.41113C45.8636 8.92973 47.5883 9.02074 49.1362 9.66866C50.6841 10.3166 51.9594 11.4813 52.7447 12.9642C53.53 14.4472 53.7766 16.1566 53.4426 17.801C53.1086 19.4455 52.2146 20.9232 50.9131 21.9823C49.6115 23.0414 47.9829 23.6163 46.3048 23.609ZM43.727 13.8164C43.1095 14.4214 42.7213 15.2221 42.6286 16.0816C42.5359 16.9412 42.7445 17.8062 43.2188 18.529C43.6931 19.2518 44.4036 19.7875 45.2291 20.0446C46.0545 20.3016 46.9436 20.2641 47.7444 19.9384C48.5452 19.6127 49.2081 19.0191 49.6198 18.2589C50.0316 17.4987 50.1666 16.6192 50.0018 15.7705C49.837 14.9218 49.3826 14.1567 48.7164 13.6058C48.0501 13.055 47.2132 12.7525 46.3486 12.7502C45.862 12.739 45.3782 12.8279 44.9272 13.0113C44.4763 13.1947 44.0678 13.4687 43.727 13.8164Z" fill="white"/>
<path d="M56.1855 16.3065V3.37378H59.8368V10.4937C60.905 9.53577 62.2943 9.01445 63.729 9.03322C64.663 9.01892 65.5895 9.20215 66.4478 9.57087C67.3061 9.9396 68.0767 10.4855 68.7093 11.1728C69.3743 11.8599 69.8967 12.6717 70.2463 13.5616C70.596 14.4514 70.7661 15.4017 70.7467 16.3576C70.7613 17.3143 70.5826 18.2641 70.2212 19.15C69.8598 20.0359 69.3232 20.8397 68.6436 21.5132C67.9785 22.2083 67.176 22.7575 66.2872 23.1259C65.3983 23.4942 64.4426 23.6737 63.4807 23.6528C62.5215 23.6627 61.5701 23.4782 60.684 23.1105C59.798 22.7427 58.9956 22.1994 58.3252 21.5132C57.6506 20.8273 57.1181 20.0149 56.7585 19.1226C56.3988 18.2303 56.219 17.2758 56.2294 16.3138L56.1855 16.3065ZM60.9249 13.8164C60.3067 14.4221 59.9183 15.2238 59.8261 16.0843C59.7339 16.9449 59.9437 17.8107 60.4196 18.5336C60.8955 19.2565 61.6079 19.7915 62.4348 20.047C63.2616 20.3025 64.1516 20.2627 64.9524 19.9343C65.7531 19.6059 66.4148 19.0093 66.8242 18.2468C67.2335 17.4843 67.3651 16.6032 67.1964 15.7543C67.0277 14.9055 66.5692 14.1417 65.8994 13.5936C65.2295 13.0456 64.39 12.7474 63.5246 12.7502C63.0418 12.7441 62.5628 12.8354 62.1162 13.0186C61.6695 13.2018 61.2643 13.4731 60.9249 13.8164Z" fill="white"/>
<path d="M73.4707 9.31798H77.1219V23.2365H73.4707V9.31798ZM75.3328 8.04004C74.8519 8.04005 74.3905 7.84948 74.0497 7.51005C73.7089 7.17063 73.5164 6.71001 73.5145 6.22902C73.5105 5.98727 73.5571 5.74735 73.6514 5.52473C73.7458 5.30211 73.8857 5.10172 74.0622 4.93648C74.226 4.76408 74.4231 4.62666 74.6414 4.53253C74.8598 4.4384 75.095 4.3895 75.3328 4.38879C75.5733 4.3811 75.8126 4.4254 76.0345 4.51866C76.2563 4.61192 76.4553 4.75194 76.6181 4.92918C76.7911 5.09708 76.9287 5.29798 77.0228 5.51998C77.1169 5.74199 77.1655 5.98061 77.1658 6.22172C77.1712 6.46367 77.1252 6.70401 77.0308 6.92683C76.9364 7.14966 76.7957 7.34989 76.6181 7.51426C76.4511 7.68457 76.2508 7.81854 76.0296 7.90777C75.8085 7.99699 75.5712 8.03954 75.3328 8.03274" fill="white"/>
<path d="M80.0715 26.7125L82.8903 24.7481C83.3106 25.3527 83.8691 25.8482 84.5194 26.1937C85.1696 26.5391 85.8929 26.7245 86.6292 26.7344C87.7192 26.7327 88.7662 26.3087 89.5502 25.5514C89.9546 25.1935 90.277 24.7524 90.495 24.2583C90.7131 23.7642 90.8217 23.2288 90.8135 22.6888V22.1046C90.2982 22.5979 89.6883 22.9816 89.0206 23.2326C88.3529 23.4836 87.6412 23.5967 86.9286 23.5651C85.9969 23.5837 85.0717 23.4068 84.2126 23.0458C83.3536 22.6848 82.5797 22.1478 81.941 21.4693C80.6222 20.0699 79.8951 18.2152 79.9114 16.2925C79.9277 14.3697 80.6863 12.5276 82.0286 11.1509C83.046 10.1279 84.3436 9.42931 85.7577 9.14314C87.1718 8.85697 88.639 8.99609 89.9741 9.54294C91.3091 10.0898 92.4523 11.0199 93.2594 12.2158C94.0664 13.4117 94.5011 14.8199 94.5086 16.2626V22.645C94.5327 23.6196 94.344 24.5878 93.9555 25.482C93.567 26.3762 92.9882 27.1749 92.2594 27.8225C90.7385 29.2349 88.7261 29.9975 86.6511 29.9475C85.3798 29.9546 84.1243 29.666 82.9837 29.1046C81.8431 28.5432 80.8486 27.7242 80.0788 26.7125H80.0715ZM84.5772 13.8163C83.9578 14.4222 83.5681 15.2244 83.4746 16.0858C83.3812 16.9473 83.5899 17.8144 84.0649 18.539C84.54 19.2636 85.252 19.8007 86.0793 20.0585C86.9065 20.3163 87.7976 20.2788 88.6002 19.9524C89.4029 19.626 90.0672 19.0309 90.4797 18.2689C90.8922 17.507 91.0273 16.6254 90.8618 15.7748C90.6963 14.9243 90.2405 14.1577 89.5724 13.606C88.9042 13.0543 88.0652 12.7517 87.1988 12.7501C86.7117 12.7358 86.227 12.8233 85.7756 13.0068C85.3242 13.1904 84.916 13.4661 84.5772 13.8163Z" fill="white"/>
<path fill-rule="evenodd" clip-rule="evenodd" d="M8.69715 3.06707V0.0511392L8.68985 0.00732422H12.29V3.03786C13.3 3.1912 14.2833 3.4862 15.211 3.91416C16.7249 4.61367 18.0513 5.66229 19.0813 6.97391L17.8764 7.89402L16.0654 9.27419C15.1596 7.88186 13.739 6.90508 12.1147 6.55766C11.5979 6.45448 11.0717 6.40553 10.5447 6.41161C9.66606 6.39947 8.79447 6.56972 7.985 6.91161C7.17552 7.2535 6.44578 7.75959 5.84187 8.39789C5.19549 9.03165 4.68477 9.79027 4.34079 10.6276C3.99682 11.465 3.82677 12.3635 3.84099 13.2687C3.85035 15.075 4.56758 16.8056 5.8387 18.089C7.10981 19.3724 8.83347 20.1063 10.6396 20.133C11.1743 20.1403 11.7081 20.0889 12.2316 19.9797C12.677 19.8921 13.1161 19.775 13.546 19.6291C14.412 19.3428 15.203 18.8662 15.8609 18.2344V16.4379H19.5121V19.4612C17.6802 21.6096 15.1384 23.0295 12.3484 23.4629V26.457H8.69715V23.4191C6.58339 23.0744 4.62884 22.0818 3.10344 20.5785C2.10342 19.6466 1.31039 18.515 0.775742 17.257C0.241092 15.999 -0.0232416 14.6427 -0.00012539 13.276C-0.0328085 11.9075 0.2205 10.5472 0.743596 9.28225C1.26669 8.01726 2.04806 6.87538 3.03771 5.92965C4.56413 4.38736 6.5503 3.38274 8.69715 3.06707ZM6.57352 14.0939C6.56274 13.5289 6.6216 12.9648 6.74878 12.4143V12.4362H19.2068V15.8465H6.79259C6.63989 15.275 6.56618 14.6853 6.57352 14.0939Z" fill="white"/>
</g>
<defs>
<clipPath id="clip0_27_19">
<rect width="94.5455" height="32" fill="white"/>
</clipPath>
</defs>
</svg>
