<svg width="44" height="44" viewBox="0 0 44 44" fill="none" xmlns="http://www.w3.org/2000/svg">
<mask id="path-1-outside-1_2352_6262" maskUnits="userSpaceOnUse" x="0" y="0" width="44" height="44" fill="black">
<rect fill="white" width="44" height="44"/>
<path d="M22.0037 1C20.7653 1 19.8342 1.65659 19.0157 2.20908C18.1968 2.76158 17.4469 3.24968 17.012 3.36654C16.5771 3.48298 15.683 3.43556 14.6975 3.36654C13.7121 3.29753 12.5747 3.19651 11.5021 3.81571C10.4295 4.4349 9.94837 5.46697 9.51577 6.35498C9.08319 7.2429 8.67681 8.04019 8.35831 8.3587C8.03984 8.67717 7.2425 9.08314 6.35459 9.51616C5.46667 9.94875 4.43496 10.4299 3.81532 11.5025C3.19613 12.5751 3.27979 13.7125 3.3488 14.6979C3.41781 15.6834 3.48259 16.5775 3.36615 17.0124C3.24971 17.4472 2.76161 18.1972 2.20869 19.0161C1.65658 19.8342 1 20.765 1 22.0038C1 23.2422 1.65659 24.1732 2.20908 24.9917C2.76158 25.8106 3.24968 26.5606 3.36654 26.9954C3.48298 27.4303 3.41859 28.3248 3.34919 29.3099C3.28018 30.2953 3.19613 31.4327 3.81571 32.5053C4.4349 33.5779 5.46697 34.059 6.35498 34.4917C7.2429 34.9246 8.0402 35.3306 8.3587 35.6491C8.67717 35.9676 9.08315 36.7649 9.51616 37.6528C9.94875 38.5408 10.4299 39.5725 11.5025 40.1921C12.5751 40.8113 13.7125 40.7276 14.6979 40.6586C15.6834 40.5896 16.5775 40.5248 17.0124 40.6417C17.4473 40.7581 18.1972 41.2462 19.0161 41.7991C19.835 42.3516 20.7658 43.0082 22.0041 43.0082C23.2424 43.0082 24.1735 42.3516 24.992 41.7991C25.8109 41.2466 26.5609 40.7585 26.9957 40.6417C27.4306 40.5252 28.3247 40.5896 29.3102 40.6586C30.2956 40.7276 31.433 40.8117 32.5056 40.1921C33.5782 39.5729 34.0593 38.5411 34.492 37.6528C34.9245 36.7649 35.3309 35.9676 35.6494 35.6491C35.9679 35.3306 36.7652 34.9247 37.6531 34.4917C38.5411 34.0591 39.5728 33.5779 40.1924 32.5053C40.8116 31.4327 40.7106 30.2953 40.6416 29.3099C40.5726 28.3244 40.5251 27.4303 40.6416 26.9954C40.758 26.5606 41.2465 25.8106 41.799 24.9917C42.3515 24.1728 43.0081 23.2421 43.0081 22.0038C43.0081 20.7655 42.3515 19.8343 41.799 19.0158C41.2465 18.1969 40.7584 17.447 40.6416 17.0121C40.5251 16.5772 40.5722 15.6827 40.6416 14.6976C40.7106 13.7122 40.8116 12.5748 40.1924 11.5022C39.5732 10.4296 38.5411 9.94887 37.6531 9.51587C36.7652 9.08328 35.9679 8.67691 35.6494 8.35841C35.3309 8.03994 34.925 7.24259 34.492 6.35468C34.0594 5.46676 33.5782 4.43506 32.5056 3.81541C31.433 3.19623 30.2956 3.29724 29.3102 3.36625C28.3247 3.43526 27.4306 3.48268 26.9957 3.36625C26.5609 3.24981 25.8109 2.76171 24.992 2.20879C24.1731 1.65629 23.242 1 22.0037 1ZM22.0037 3.2107C22.341 3.2107 23.0057 3.52723 23.7657 4.03962C24.5252 4.5524 25.3384 5.21633 26.4255 5.50779C27.5132 5.79927 28.5511 5.62385 29.4656 5.55946C30.3798 5.49546 31.1077 5.56331 31.4004 5.73218C31.6926 5.90105 32.1044 6.4975 32.5057 7.32146C32.9074 8.14538 33.2814 9.1335 34.0776 9.92972C34.8738 10.7259 35.8619 11.0998 36.6859 11.5016C37.5098 11.9034 38.1063 12.3148 38.2751 12.607C38.444 12.8992 38.5123 13.6271 38.4479 14.5417C38.3839 15.4558 38.2084 16.4941 38.4999 17.5818C38.7914 18.6695 39.4553 19.4822 39.9681 20.2417C40.4809 21.0012 40.797 21.6659 40.797 22.0037C40.797 22.341 40.4809 23.0057 39.9681 23.7657C39.4553 24.5252 38.7914 25.3384 38.4999 26.4256C38.2084 27.5132 38.3839 28.5511 38.4479 29.4656C38.5123 30.3798 38.4425 31.1081 38.2751 31.4004C38.1063 31.6926 37.5098 32.1044 36.6859 32.5057C35.8619 32.9074 34.8738 33.2814 34.0776 34.0776C33.2814 34.8738 32.9075 35.8619 32.5057 36.6859C32.104 37.5098 31.6926 38.1063 31.4004 38.2752C31.1081 38.444 30.3802 38.5123 29.4656 38.4479C28.5515 38.3839 27.5132 38.2084 26.4255 38.4999C25.3379 38.7914 24.5252 39.4553 23.7657 39.9681C23.0061 40.4809 22.3414 40.797 22.0037 40.797C21.6663 40.797 21.0017 40.4805 20.2417 39.9681C19.4821 39.4553 18.669 38.7914 17.5818 38.4999C16.4941 38.2085 15.4563 38.3839 14.5417 38.4479C13.6276 38.5123 12.8996 38.4425 12.607 38.2752C12.3147 38.1063 11.903 37.5098 11.5016 36.6859C11.0999 35.8619 10.7259 34.8738 9.92972 34.0776C9.13354 33.2814 8.14541 32.9075 7.32146 32.5057C6.49753 32.104 5.90106 31.6926 5.73218 31.4004C5.56332 31.1081 5.49546 30.3802 5.55946 29.4656C5.62346 28.5515 5.79888 27.5132 5.50779 26.4256C5.21632 25.3379 4.5524 24.5252 4.03962 23.7657C3.52684 23.0061 3.21069 22.3414 3.21069 22.0037C3.21069 21.6663 3.52723 21.0017 4.03962 20.2417C4.5524 19.4821 5.21633 18.669 5.50779 17.5818C5.79926 16.4941 5.62384 15.4563 5.55946 14.5417C5.49545 13.6276 5.56331 12.8992 5.73218 12.607C5.90105 12.3147 6.4975 11.903 7.32146 11.5016C8.14538 11.0999 9.1335 10.7259 9.92972 9.92972C10.7259 9.13354 11.0998 8.14541 11.5016 7.32146C11.9034 6.49754 12.3148 5.90106 12.607 5.73218C12.8992 5.56332 13.6271 5.49546 14.5417 5.55946C15.4558 5.62346 16.4941 5.79889 17.5818 5.50779C18.6695 5.21632 19.4822 4.5524 20.2417 4.03962C21.0012 3.52684 21.6659 3.2107 22.0037 3.2107ZM30.709 12.0371C30.4653 12.0722 30.2405 12.1878 30.0701 12.3656L12.383 30.0527C12.1678 30.2575 12.0433 30.5401 12.0387 30.8369C12.034 31.1342 12.1493 31.4203 12.3583 31.6315C12.5672 31.8428 12.8522 31.9612 13.149 31.9597C13.4463 31.9585 13.7304 31.8374 13.9371 31.6246L31.6242 13.9375C31.9762 13.607 32.0734 13.0862 31.8637 12.6513C31.6543 12.2164 31.1866 11.9677 30.709 12.0371ZM16.4763 12.0541C14.0474 12.0541 12.0544 14.0469 12.0544 16.4759C12.0544 18.905 14.0473 20.8978 16.4763 20.8978C18.9054 20.8978 20.8982 18.905 20.8982 16.4759C20.8982 14.0469 18.9054 12.0541 16.4763 12.0541ZM16.4763 14.2648C17.7105 14.2648 18.687 15.2417 18.687 16.4755C18.687 17.7096 17.71 18.6861 16.4763 18.6861C15.2422 18.6861 14.2656 17.7096 14.2656 16.4755C14.2656 15.2413 15.2422 14.2648 16.4763 14.2648ZM27.5308 23.1085C25.1019 23.1085 23.1089 25.1014 23.1089 27.5304C23.1089 29.9594 25.1018 31.9523 27.5308 31.9523C29.9598 31.9523 31.9527 29.9594 31.9527 27.5304C31.9527 25.1014 29.9598 23.1085 27.5308 23.1085ZM27.5308 25.3192C28.7649 25.3192 29.7415 26.2958 29.7415 27.5303C29.7415 28.7645 28.7649 29.741 27.5308 29.741C26.2967 29.741 25.3201 28.7644 25.3201 27.5303C25.3201 26.2962 26.2971 25.3192 27.5308 25.3192Z"/>
</mask>
<path d="M22.0037 1C20.7653 1 19.8342 1.65659 19.0157 2.20908C18.1968 2.76158 17.4469 3.24968 17.012 3.36654C16.5771 3.48298 15.683 3.43556 14.6975 3.36654C13.7121 3.29753 12.5747 3.19651 11.5021 3.81571C10.4295 4.4349 9.94837 5.46697 9.51577 6.35498C9.08319 7.2429 8.67681 8.04019 8.35831 8.3587C8.03984 8.67717 7.2425 9.08314 6.35459 9.51616C5.46667 9.94875 4.43496 10.4299 3.81532 11.5025C3.19613 12.5751 3.27979 13.7125 3.3488 14.6979C3.41781 15.6834 3.48259 16.5775 3.36615 17.0124C3.24971 17.4472 2.76161 18.1972 2.20869 19.0161C1.65658 19.8342 1 20.765 1 22.0038C1 23.2422 1.65659 24.1732 2.20908 24.9917C2.76158 25.8106 3.24968 26.5606 3.36654 26.9954C3.48298 27.4303 3.41859 28.3248 3.34919 29.3099C3.28018 30.2953 3.19613 31.4327 3.81571 32.5053C4.4349 33.5779 5.46697 34.059 6.35498 34.4917C7.2429 34.9246 8.0402 35.3306 8.3587 35.6491C8.67717 35.9676 9.08315 36.7649 9.51616 37.6528C9.94875 38.5408 10.4299 39.5725 11.5025 40.1921C12.5751 40.8113 13.7125 40.7276 14.6979 40.6586C15.6834 40.5896 16.5775 40.5248 17.0124 40.6417C17.4473 40.7581 18.1972 41.2462 19.0161 41.7991C19.835 42.3516 20.7658 43.0082 22.0041 43.0082C23.2424 43.0082 24.1735 42.3516 24.992 41.7991C25.8109 41.2466 26.5609 40.7585 26.9957 40.6417C27.4306 40.5252 28.3247 40.5896 29.3102 40.6586C30.2956 40.7276 31.433 40.8117 32.5056 40.1921C33.5782 39.5729 34.0593 38.5411 34.492 37.6528C34.9245 36.7649 35.3309 35.9676 35.6494 35.6491C35.9679 35.3306 36.7652 34.9247 37.6531 34.4917C38.5411 34.0591 39.5728 33.5779 40.1924 32.5053C40.8116 31.4327 40.7106 30.2953 40.6416 29.3099C40.5726 28.3244 40.5251 27.4303 40.6416 26.9954C40.758 26.5606 41.2465 25.8106 41.799 24.9917C42.3515 24.1728 43.0081 23.2421 43.0081 22.0038C43.0081 20.7655 42.3515 19.8343 41.799 19.0158C41.2465 18.1969 40.7584 17.447 40.6416 17.0121C40.5251 16.5772 40.5722 15.6827 40.6416 14.6976C40.7106 13.7122 40.8116 12.5748 40.1924 11.5022C39.5732 10.4296 38.5411 9.94887 37.6531 9.51587C36.7652 9.08328 35.9679 8.67691 35.6494 8.35841C35.3309 8.03994 34.925 7.24259 34.492 6.35468C34.0594 5.46676 33.5782 4.43506 32.5056 3.81541C31.433 3.19623 30.2956 3.29724 29.3102 3.36625C28.3247 3.43526 27.4306 3.48268 26.9957 3.36625C26.5609 3.24981 25.8109 2.76171 24.992 2.20879C24.1731 1.65629 23.242 1 22.0037 1ZM22.0037 3.2107C22.341 3.2107 23.0057 3.52723 23.7657 4.03962C24.5252 4.5524 25.3384 5.21633 26.4255 5.50779C27.5132 5.79927 28.5511 5.62385 29.4656 5.55946C30.3798 5.49546 31.1077 5.56331 31.4004 5.73218C31.6926 5.90105 32.1044 6.4975 32.5057 7.32146C32.9074 8.14538 33.2814 9.1335 34.0776 9.92972C34.8738 10.7259 35.8619 11.0998 36.6859 11.5016C37.5098 11.9034 38.1063 12.3148 38.2751 12.607C38.444 12.8992 38.5123 13.6271 38.4479 14.5417C38.3839 15.4558 38.2084 16.4941 38.4999 17.5818C38.7914 18.6695 39.4553 19.4822 39.9681 20.2417C40.4809 21.0012 40.797 21.6659 40.797 22.0037C40.797 22.341 40.4809 23.0057 39.9681 23.7657C39.4553 24.5252 38.7914 25.3384 38.4999 26.4256C38.2084 27.5132 38.3839 28.5511 38.4479 29.4656C38.5123 30.3798 38.4425 31.1081 38.2751 31.4004C38.1063 31.6926 37.5098 32.1044 36.6859 32.5057C35.8619 32.9074 34.8738 33.2814 34.0776 34.0776C33.2814 34.8738 32.9075 35.8619 32.5057 36.6859C32.104 37.5098 31.6926 38.1063 31.4004 38.2752C31.1081 38.444 30.3802 38.5123 29.4656 38.4479C28.5515 38.3839 27.5132 38.2084 26.4255 38.4999C25.3379 38.7914 24.5252 39.4553 23.7657 39.9681C23.0061 40.4809 22.3414 40.797 22.0037 40.797C21.6663 40.797 21.0017 40.4805 20.2417 39.9681C19.4821 39.4553 18.669 38.7914 17.5818 38.4999C16.4941 38.2085 15.4563 38.3839 14.5417 38.4479C13.6276 38.5123 12.8996 38.4425 12.607 38.2752C12.3147 38.1063 11.903 37.5098 11.5016 36.6859C11.0999 35.8619 10.7259 34.8738 9.92972 34.0776C9.13354 33.2814 8.14541 32.9075 7.32146 32.5057C6.49753 32.104 5.90106 31.6926 5.73218 31.4004C5.56332 31.1081 5.49546 30.3802 5.55946 29.4656C5.62346 28.5515 5.79888 27.5132 5.50779 26.4256C5.21632 25.3379 4.5524 24.5252 4.03962 23.7657C3.52684 23.0061 3.21069 22.3414 3.21069 22.0037C3.21069 21.6663 3.52723 21.0017 4.03962 20.2417C4.5524 19.4821 5.21633 18.669 5.50779 17.5818C5.79926 16.4941 5.62384 15.4563 5.55946 14.5417C5.49545 13.6276 5.56331 12.8992 5.73218 12.607C5.90105 12.3147 6.4975 11.903 7.32146 11.5016C8.14538 11.0999 9.1335 10.7259 9.92972 9.92972C10.7259 9.13354 11.0998 8.14541 11.5016 7.32146C11.9034 6.49754 12.3148 5.90106 12.607 5.73218C12.8992 5.56332 13.6271 5.49546 14.5417 5.55946C15.4558 5.62346 16.4941 5.79889 17.5818 5.50779C18.6695 5.21632 19.4822 4.5524 20.2417 4.03962C21.0012 3.52684 21.6659 3.2107 22.0037 3.2107ZM30.709 12.0371C30.4653 12.0722 30.2405 12.1878 30.0701 12.3656L12.383 30.0527C12.1678 30.2575 12.0433 30.5401 12.0387 30.8369C12.034 31.1342 12.1493 31.4203 12.3583 31.6315C12.5672 31.8428 12.8522 31.9612 13.149 31.9597C13.4463 31.9585 13.7304 31.8374 13.9371 31.6246L31.6242 13.9375C31.9762 13.607 32.0734 13.0862 31.8637 12.6513C31.6543 12.2164 31.1866 11.9677 30.709 12.0371ZM16.4763 12.0541C14.0474 12.0541 12.0544 14.0469 12.0544 16.4759C12.0544 18.905 14.0473 20.8978 16.4763 20.8978C18.9054 20.8978 20.8982 18.905 20.8982 16.4759C20.8982 14.0469 18.9054 12.0541 16.4763 12.0541ZM16.4763 14.2648C17.7105 14.2648 18.687 15.2417 18.687 16.4755C18.687 17.7096 17.71 18.6861 16.4763 18.6861C15.2422 18.6861 14.2656 17.7096 14.2656 16.4755C14.2656 15.2413 15.2422 14.2648 16.4763 14.2648ZM27.5308 23.1085C25.1019 23.1085 23.1089 25.1014 23.1089 27.5304C23.1089 29.9594 25.1018 31.9523 27.5308 31.9523C29.9598 31.9523 31.9527 29.9594 31.9527 27.5304C31.9527 25.1014 29.9598 23.1085 27.5308 23.1085ZM27.5308 25.3192C28.7649 25.3192 29.7415 26.2958 29.7415 27.5303C29.7415 28.7645 28.7649 29.741 27.5308 29.741C26.2967 29.741 25.3201 28.7644 25.3201 27.5303C25.3201 26.2962 26.2971 25.3192 27.5308 25.3192Z" fill="white"/>
<path d="M22.0037 1C20.7653 1 19.8342 1.65659 19.0157 2.20908C18.1968 2.76158 17.4469 3.24968 17.012 3.36654C16.5771 3.48298 15.683 3.43556 14.6975 3.36654C13.7121 3.29753 12.5747 3.19651 11.5021 3.81571C10.4295 4.4349 9.94837 5.46697 9.51577 6.35498C9.08319 7.2429 8.67681 8.04019 8.35831 8.3587C8.03984 8.67717 7.2425 9.08314 6.35459 9.51616C5.46667 9.94875 4.43496 10.4299 3.81532 11.5025C3.19613 12.5751 3.27979 13.7125 3.3488 14.6979C3.41781 15.6834 3.48259 16.5775 3.36615 17.0124C3.24971 17.4472 2.76161 18.1972 2.20869 19.0161C1.65658 19.8342 1 20.765 1 22.0038C1 23.2422 1.65659 24.1732 2.20908 24.9917C2.76158 25.8106 3.24968 26.5606 3.36654 26.9954C3.48298 27.4303 3.41859 28.3248 3.34919 29.3099C3.28018 30.2953 3.19613 31.4327 3.81571 32.5053C4.4349 33.5779 5.46697 34.059 6.35498 34.4917C7.2429 34.9246 8.0402 35.3306 8.3587 35.6491C8.67717 35.9676 9.08315 36.7649 9.51616 37.6528C9.94875 38.5408 10.4299 39.5725 11.5025 40.1921C12.5751 40.8113 13.7125 40.7276 14.6979 40.6586C15.6834 40.5896 16.5775 40.5248 17.0124 40.6417C17.4473 40.7581 18.1972 41.2462 19.0161 41.7991C19.835 42.3516 20.7658 43.0082 22.0041 43.0082C23.2424 43.0082 24.1735 42.3516 24.992 41.7991C25.8109 41.2466 26.5609 40.7585 26.9957 40.6417C27.4306 40.5252 28.3247 40.5896 29.3102 40.6586C30.2956 40.7276 31.433 40.8117 32.5056 40.1921C33.5782 39.5729 34.0593 38.5411 34.492 37.6528C34.9245 36.7649 35.3309 35.9676 35.6494 35.6491C35.9679 35.3306 36.7652 34.9247 37.6531 34.4917C38.5411 34.0591 39.5728 33.5779 40.1924 32.5053C40.8116 31.4327 40.7106 30.2953 40.6416 29.3099C40.5726 28.3244 40.5251 27.4303 40.6416 26.9954C40.758 26.5606 41.2465 25.8106 41.799 24.9917C42.3515 24.1728 43.0081 23.2421 43.0081 22.0038C43.0081 20.7655 42.3515 19.8343 41.799 19.0158C41.2465 18.1969 40.7584 17.447 40.6416 17.0121C40.5251 16.5772 40.5722 15.6827 40.6416 14.6976C40.7106 13.7122 40.8116 12.5748 40.1924 11.5022C39.5732 10.4296 38.5411 9.94887 37.6531 9.51587C36.7652 9.08328 35.9679 8.67691 35.6494 8.35841C35.3309 8.03994 34.925 7.24259 34.492 6.35468C34.0594 5.46676 33.5782 4.43506 32.5056 3.81541C31.433 3.19623 30.2956 3.29724 29.3102 3.36625C28.3247 3.43526 27.4306 3.48268 26.9957 3.36625C26.5609 3.24981 25.8109 2.76171 24.992 2.20879C24.1731 1.65629 23.242 1 22.0037 1ZM22.0037 3.2107C22.341 3.2107 23.0057 3.52723 23.7657 4.03962C24.5252 4.5524 25.3384 5.21633 26.4255 5.50779C27.5132 5.79927 28.5511 5.62385 29.4656 5.55946C30.3798 5.49546 31.1077 5.56331 31.4004 5.73218C31.6926 5.90105 32.1044 6.4975 32.5057 7.32146C32.9074 8.14538 33.2814 9.1335 34.0776 9.92972C34.8738 10.7259 35.8619 11.0998 36.6859 11.5016C37.5098 11.9034 38.1063 12.3148 38.2751 12.607C38.444 12.8992 38.5123 13.6271 38.4479 14.5417C38.3839 15.4558 38.2084 16.4941 38.4999 17.5818C38.7914 18.6695 39.4553 19.4822 39.9681 20.2417C40.4809 21.0012 40.797 21.6659 40.797 22.0037C40.797 22.341 40.4809 23.0057 39.9681 23.7657C39.4553 24.5252 38.7914 25.3384 38.4999 26.4256C38.2084 27.5132 38.3839 28.5511 38.4479 29.4656C38.5123 30.3798 38.4425 31.1081 38.2751 31.4004C38.1063 31.6926 37.5098 32.1044 36.6859 32.5057C35.8619 32.9074 34.8738 33.2814 34.0776 34.0776C33.2814 34.8738 32.9075 35.8619 32.5057 36.6859C32.104 37.5098 31.6926 38.1063 31.4004 38.2752C31.1081 38.444 30.3802 38.5123 29.4656 38.4479C28.5515 38.3839 27.5132 38.2084 26.4255 38.4999C25.3379 38.7914 24.5252 39.4553 23.7657 39.9681C23.0061 40.4809 22.3414 40.797 22.0037 40.797C21.6663 40.797 21.0017 40.4805 20.2417 39.9681C19.4821 39.4553 18.669 38.7914 17.5818 38.4999C16.4941 38.2085 15.4563 38.3839 14.5417 38.4479C13.6276 38.5123 12.8996 38.4425 12.607 38.2752C12.3147 38.1063 11.903 37.5098 11.5016 36.6859C11.0999 35.8619 10.7259 34.8738 9.92972 34.0776C9.13354 33.2814 8.14541 32.9075 7.32146 32.5057C6.49753 32.104 5.90106 31.6926 5.73218 31.4004C5.56332 31.1081 5.49546 30.3802 5.55946 29.4656C5.62346 28.5515 5.79888 27.5132 5.50779 26.4256C5.21632 25.3379 4.5524 24.5252 4.03962 23.7657C3.52684 23.0061 3.21069 22.3414 3.21069 22.0037C3.21069 21.6663 3.52723 21.0017 4.03962 20.2417C4.5524 19.4821 5.21633 18.669 5.50779 17.5818C5.79926 16.4941 5.62384 15.4563 5.55946 14.5417C5.49545 13.6276 5.56331 12.8992 5.73218 12.607C5.90105 12.3147 6.4975 11.903 7.32146 11.5016C8.14538 11.0999 9.1335 10.7259 9.92972 9.92972C10.7259 9.13354 11.0998 8.14541 11.5016 7.32146C11.9034 6.49754 12.3148 5.90106 12.607 5.73218C12.8992 5.56332 13.6271 5.49546 14.5417 5.55946C15.4558 5.62346 16.4941 5.79889 17.5818 5.50779C18.6695 5.21632 19.4822 4.5524 20.2417 4.03962C21.0012 3.52684 21.6659 3.2107 22.0037 3.2107ZM30.709 12.0371C30.4653 12.0722 30.2405 12.1878 30.0701 12.3656L12.383 30.0527C12.1678 30.2575 12.0433 30.5401 12.0387 30.8369C12.034 31.1342 12.1493 31.4203 12.3583 31.6315C12.5672 31.8428 12.8522 31.9612 13.149 31.9597C13.4463 31.9585 13.7304 31.8374 13.9371 31.6246L31.6242 13.9375C31.9762 13.607 32.0734 13.0862 31.8637 12.6513C31.6543 12.2164 31.1866 11.9677 30.709 12.0371ZM16.4763 12.0541C14.0474 12.0541 12.0544 14.0469 12.0544 16.4759C12.0544 18.905 14.0473 20.8978 16.4763 20.8978C18.9054 20.8978 20.8982 18.905 20.8982 16.4759C20.8982 14.0469 18.9054 12.0541 16.4763 12.0541ZM16.4763 14.2648C17.7105 14.2648 18.687 15.2417 18.687 16.4755C18.687 17.7096 17.71 18.6861 16.4763 18.6861C15.2422 18.6861 14.2656 17.7096 14.2656 16.4755C14.2656 15.2413 15.2422 14.2648 16.4763 14.2648ZM27.5308 23.1085C25.1019 23.1085 23.1089 25.1014 23.1089 27.5304C23.1089 29.9594 25.1018 31.9523 27.5308 31.9523C29.9598 31.9523 31.9527 29.9594 31.9527 27.5304C31.9527 25.1014 29.9598 23.1085 27.5308 23.1085ZM27.5308 25.3192C28.7649 25.3192 29.7415 26.2958 29.7415 27.5303C29.7415 28.7645 28.7649 29.741 27.5308 29.741C26.2967 29.741 25.3201 28.7644 25.3201 27.5303C25.3201 26.2962 26.2971 25.3192 27.5308 25.3192Z" stroke="white" mask="url(#path-1-outside-1_2352_6262)"/>
</svg>
