<svg width="587" height="557" viewBox="0 0 587 557" fill="none" xmlns="http://www.w3.org/2000/svg">
<path opacity="0.5" d="M89.4068 173.815C40.4334 269.373 91.8849 393.703 204.56 451.448C317.235 509.194 448.209 478.357 497.182 382.799C546.156 287.24 494.704 162.911 382.029 105.165C269.354 47.4194 138.38 78.2565 89.4068 173.815Z" stroke="#A064E3"/>
<ellipse rx="151.486" ry="133.343" transform="matrix(0.904012 -0.427506 -0.427506 -0.904012 285.654 275.911)" fill="#EDE6F5"/>
<ellipse rx="85.9361" ry="75.6434" transform="matrix(-0.949715 -0.313114 -0.313114 0.949715 285.653 275.911)" fill="#E5D7F5"/>
<path d="M423.322 246.458C409.022 179.621 335.832 138.51 259.74 154.79C183.647 171.07 133.685 238.528 147.985 305.365C162.284 372.202 235.474 413.312 311.567 397.032C387.659 380.753 437.621 313.294 423.322 246.458Z" stroke="#803CC9"/>
<path d="M218.028 226.47C194.047 259.271 204.771 308.045 242.168 335.386C279.566 362.728 329.294 358.151 353.275 325.35C377.256 292.55 366.532 243.776 329.135 216.434C291.737 189.093 242.009 193.669 218.028 226.47Z" stroke="#5204A8"/>
<path d="M524.852 278.606C524.852 278.054 524.404 277.606 523.852 277.606H318.852V279.606H523.852C524.404 279.606 524.852 279.159 524.852 278.606Z" fill="#A042D2"/>
<mask id="path-7-outside-1_2588_7907" maskUnits="userSpaceOnUse" x="341.881" y="268.707" width="19.799" height="19.799" fill="black">
<rect fill="white" x="341.881" y="268.707" width="19.799" height="19.799"/>
<path fill-rule="evenodd" clip-rule="evenodd" d="M358.074 277.829C358.503 278.258 358.503 278.955 358.074 279.384L352.629 284.829C352.2 285.258 351.503 285.258 351.074 284.829C350.644 284.399 350.644 283.703 351.074 283.273L355.74 278.606L351.074 273.94C350.644 273.51 350.644 272.814 351.074 272.384C351.503 271.955 352.2 271.955 352.629 272.384L358.074 277.829Z"/>
</mask>
<path fill-rule="evenodd" clip-rule="evenodd" d="M358.074 277.829C358.503 278.258 358.503 278.955 358.074 279.384L352.629 284.829C352.2 285.258 351.503 285.258 351.074 284.829C350.644 284.399 350.644 283.703 351.074 283.273L355.74 278.606L351.074 273.94C350.644 273.51 350.644 272.814 351.074 272.384C351.503 271.955 352.2 271.955 352.629 272.384L358.074 277.829Z" fill="#A042D2"/>
<path d="M358.074 277.829L359.488 276.414L358.074 277.829ZM351.074 283.273L352.488 284.687L351.074 283.273ZM355.74 278.606L357.155 277.192L358.569 278.606L357.155 280.021L355.74 278.606ZM352.629 272.384L351.215 273.798L352.629 272.384ZM356.66 277.97C356.308 278.322 356.308 278.891 356.66 279.243L359.488 276.414C360.699 277.625 360.699 279.588 359.488 280.798L356.66 277.97ZM351.215 283.414L356.66 277.97L359.488 280.798L354.044 286.243L351.215 283.414ZM352.488 283.414C352.137 283.063 351.567 283.063 351.215 283.414L354.044 286.243C352.833 287.453 350.87 287.453 349.66 286.243L352.488 283.414ZM352.488 284.687C352.84 284.336 352.84 283.766 352.488 283.414L349.66 286.243C348.449 285.032 348.449 283.069 349.66 281.859L352.488 284.687ZM357.155 280.021L352.488 284.687L349.66 281.859L354.326 277.192L357.155 280.021ZM352.488 272.526L357.155 277.192L354.326 280.021L349.66 275.354L352.488 272.526ZM352.488 273.798C352.84 273.447 352.84 272.877 352.488 272.526L349.66 275.354C348.449 274.143 348.449 272.181 349.66 270.97L352.488 273.798ZM351.215 273.798C351.567 274.15 352.137 274.15 352.488 273.798L349.66 270.97C350.87 269.759 352.833 269.759 354.044 270.97L351.215 273.798ZM356.66 279.243L351.215 273.798L354.044 270.97L359.488 276.414L356.66 279.243Z" fill="#E5D7F5" mask="url(#path-7-outside-1_2588_7907)"/>
<mask id="path-9-outside-2_2588_7907" maskUnits="userSpaceOnUse" x="459.295" y="270.121" width="16.9706" height="16.9706" fill="black">
<rect fill="white" x="459.295" y="270.121" width="16.9706" height="16.9706"/>
<path fill-rule="evenodd" clip-rule="evenodd" d="M474.074 277.829C474.503 278.258 474.503 278.955 474.074 279.384L468.629 284.829C468.2 285.258 467.503 285.258 467.074 284.829C466.644 284.399 466.644 283.703 467.074 283.273L471.74 278.606L467.074 273.94C466.644 273.51 466.644 272.814 467.074 272.384C467.503 271.955 468.2 271.955 468.629 272.384L474.074 277.829Z"/>
</mask>
<path fill-rule="evenodd" clip-rule="evenodd" d="M474.074 277.829C474.503 278.258 474.503 278.955 474.074 279.384L468.629 284.829C468.2 285.258 467.503 285.258 467.074 284.829C466.644 284.399 466.644 283.703 467.074 283.273L471.74 278.606L467.074 273.94C466.644 273.51 466.644 272.814 467.074 272.384C467.503 271.955 468.2 271.955 468.629 272.384L474.074 277.829Z" fill="#A042D2"/>
<path d="M474.074 279.384L473.367 278.677L474.074 279.384ZM468.629 284.829L469.336 285.536L468.629 284.829ZM467.074 283.273L467.781 283.98L467.074 283.273ZM471.74 278.606L472.448 277.899L473.155 278.606L472.448 279.314L471.74 278.606ZM473.367 278.677C473.406 278.638 473.406 278.575 473.367 278.536L474.781 277.122C475.601 277.942 475.601 279.271 474.781 280.091L473.367 278.677ZM467.922 284.122L473.367 278.677L474.781 280.091L469.336 285.536L467.922 284.122ZM467.781 284.122C467.82 284.161 467.883 284.161 467.922 284.122L469.336 285.536C468.516 286.356 467.187 286.356 466.367 285.536L467.781 284.122ZM467.781 283.98C467.742 284.019 467.742 284.083 467.781 284.122L466.367 285.536C465.547 284.716 465.547 283.386 466.367 282.566L467.781 283.98ZM472.448 279.314L467.781 283.98L466.367 282.566L471.033 277.899L472.448 279.314ZM467.781 273.233L472.448 277.899L471.033 279.314L466.367 274.647L467.781 273.233ZM467.781 273.091C467.742 273.13 467.742 273.194 467.781 273.233L466.367 274.647C465.547 273.827 465.547 272.497 466.367 271.677L467.781 273.091ZM467.922 273.091C467.883 273.052 467.82 273.052 467.781 273.091L466.367 271.677C467.187 270.857 468.516 270.857 469.336 271.677L467.922 273.091ZM473.367 278.536L467.922 273.091L469.336 271.677L474.781 277.122L473.367 278.536Z" fill="white" mask="url(#path-9-outside-2_2588_7907)"/>
<path d="M169.457 355.606C173.875 355.606 177.457 352.025 177.457 347.606C177.457 343.188 173.875 339.606 169.457 339.606C165.039 339.606 161.457 343.188 161.457 347.606C161.457 352.025 165.039 355.606 169.457 355.606ZM503.457 375.606C507.875 375.606 511.457 372.025 511.457 367.606C511.457 363.188 507.875 359.606 503.457 359.606C499.039 359.606 495.457 363.188 495.457 367.606C495.457 372.025 499.039 375.606 503.457 375.606ZM354.457 486.606C358.875 486.606 362.457 483.025 362.457 478.606C362.457 474.188 358.875 470.606 354.457 470.606C350.039 470.606 346.457 474.188 346.457 478.606C346.457 483.025 350.039 486.606 354.457 486.606ZM166.457 434.606C170.875 434.606 174.457 431.025 174.457 426.606C174.457 422.188 170.875 418.606 166.457 418.606C162.039 418.606 158.457 422.188 158.457 426.606C158.457 431.025 162.039 434.606 166.457 434.606ZM70.457 269.606C74.8753 269.606 78.457 266.025 78.457 261.606C78.457 257.188 74.8753 253.606 70.457 253.606C66.0388 253.606 62.457 257.188 62.457 261.606C62.457 266.025 66.0388 269.606 70.457 269.606ZM155.457 110.606C159.875 110.606 163.457 107.025 163.457 102.606C163.457 98.1882 159.875 94.6064 155.457 94.6064C151.039 94.6064 147.457 98.1882 147.457 102.606C147.457 107.025 151.039 110.606 155.457 110.606ZM325.457 91.6064C329.875 91.6064 333.457 88.0247 333.457 83.6064C333.457 79.1882 329.875 75.6064 325.457 75.6064C321.039 75.6064 317.457 79.1882 317.457 83.6064C317.457 88.0247 321.039 91.6064 325.457 91.6064ZM318.457 162.606C322.875 162.606 326.457 159.025 326.457 154.606C326.457 150.188 322.875 146.606 318.457 146.606C314.039 146.606 310.457 150.188 310.457 154.606C310.457 159.025 314.039 162.606 318.457 162.606ZM256.457 209.606C260.875 209.606 264.457 206.025 264.457 201.606C264.457 197.188 260.875 193.606 256.457 193.606C252.039 193.606 248.457 197.188 248.457 201.606C248.457 206.025 252.039 209.606 256.457 209.606ZM299.457 358.606C303.875 358.606 307.457 355.025 307.457 350.606C307.457 346.188 303.875 342.606 299.457 342.606C295.039 342.606 291.457 346.188 291.457 350.606C291.457 355.025 295.039 358.606 299.457 358.606ZM387.457 367.606C391.875 367.606 395.457 364.025 395.457 359.606C395.457 355.188 391.875 351.606 387.457 351.606C383.039 351.606 379.457 355.188 379.457 359.606C379.457 364.025 383.039 367.606 387.457 367.606ZM460.457 176.606C464.875 176.606 468.457 173.025 468.457 168.606C468.457 164.188 464.875 160.606 460.457 160.606C456.039 160.606 452.457 164.188 452.457 168.606C452.457 173.025 456.039 176.606 460.457 176.606Z" fill="url(#paint0_radial_2588_7907)" stroke="#EDE6F5" stroke-width="2"/>
<path d="M320.951 296.291C330.858 279.131 323.086 256.096 303.592 244.841C284.097 233.586 260.263 238.373 250.356 255.532C240.449 272.692 248.221 295.726 267.715 306.981C287.21 318.237 311.044 313.45 320.951 296.291Z" fill="url(#paint1_linear_2588_7907)"/>
<path d="M450.124 260.318C442.544 247.918 424.978 244.847 410.891 253.459C396.803 262.07 391.528 279.104 399.108 291.505C406.688 303.905 424.254 306.976 438.342 298.365C452.43 289.753 457.705 272.719 450.124 260.318Z" fill="url(#paint2_linear_2588_7907)"/>
<path d="M509.454 248.108C493.994 252.251 484.98 268.744 489.321 284.947C493.663 301.151 509.716 310.928 525.177 306.785C540.638 302.642 549.652 286.148 545.31 269.945C540.969 253.742 524.915 243.965 509.454 248.108Z" fill="url(#paint3_linear_2588_7907)"/>
<path d="M264.051 271.044V267.546H270.145V283.606H266.229V271.044H264.051ZM274.853 283.782C274.193 283.782 273.65 283.592 273.225 283.21C272.814 282.814 272.609 282.33 272.609 281.758C272.609 281.172 272.814 280.68 273.225 280.284C273.65 279.888 274.193 279.69 274.853 279.69C275.498 279.69 276.026 279.888 276.437 280.284C276.862 280.68 277.075 281.172 277.075 281.758C277.075 282.33 276.862 282.814 276.437 283.21C276.026 283.592 275.498 283.782 274.853 283.782ZM290.236 270.824H283.372V273.86C283.665 273.538 284.076 273.274 284.604 273.068C285.132 272.863 285.704 272.76 286.32 272.76C287.42 272.76 288.329 273.01 289.047 273.508C289.781 274.007 290.316 274.652 290.654 275.444C290.991 276.236 291.16 277.094 291.16 278.018C291.16 279.734 290.676 281.098 289.708 282.11C288.74 283.108 287.376 283.606 285.616 283.606C284.442 283.606 283.423 283.408 282.558 283.012C281.692 282.602 281.025 282.037 280.556 281.318C280.086 280.6 279.83 279.771 279.786 278.832H283.46C283.548 279.287 283.76 279.668 284.098 279.976C284.435 280.27 284.897 280.416 285.484 280.416C286.173 280.416 286.686 280.196 287.024 279.756C287.361 279.316 287.53 278.73 287.53 277.996C287.53 277.278 287.354 276.728 287.002 276.346C286.65 275.965 286.136 275.774 285.462 275.774C284.963 275.774 284.552 275.899 284.23 276.148C283.907 276.383 283.694 276.698 283.591 277.094H279.962V267.524H290.236V270.824ZM292.928 271.594C292.928 270.406 293.265 269.49 293.94 268.844C294.629 268.199 295.517 267.876 296.602 267.876C297.687 267.876 298.567 268.199 299.242 268.844C299.917 269.49 300.254 270.406 300.254 271.594C300.254 272.782 299.917 273.699 299.242 274.344C298.567 274.99 297.687 275.312 296.602 275.312C295.517 275.312 294.629 274.99 293.94 274.344C293.265 273.699 292.928 272.782 292.928 271.594ZM307.866 268.118L299.396 283.606H295.766L304.236 268.118H307.866ZM296.58 270.076C295.876 270.076 295.524 270.582 295.524 271.594C295.524 272.592 295.876 273.09 296.58 273.09C296.917 273.09 297.181 272.966 297.372 272.716C297.563 272.467 297.658 272.093 297.658 271.594C297.658 270.582 297.299 270.076 296.58 270.076ZM303.4 280.13C303.4 278.942 303.737 278.026 304.412 277.38C305.087 276.735 305.967 276.412 307.052 276.412C308.137 276.412 309.017 276.735 309.692 277.38C310.367 278.026 310.704 278.942 310.704 280.13C310.704 281.318 310.367 282.235 309.692 282.88C309.017 283.526 308.137 283.848 307.052 283.848C305.967 283.848 305.087 283.526 304.412 282.88C303.737 282.235 303.4 281.318 303.4 280.13ZM307.03 278.612C306.693 278.612 306.429 278.737 306.238 278.986C306.062 279.236 305.974 279.617 305.974 280.13C305.974 281.128 306.326 281.626 307.03 281.626C307.367 281.626 307.631 281.502 307.822 281.252C308.013 281.003 308.108 280.629 308.108 280.13C308.108 279.632 308.013 279.258 307.822 279.008C307.631 278.744 307.367 278.612 307.03 278.612Z" fill="white"/>
<path d="M410.051 271.044V267.546H416.145V283.606H412.229V271.044H410.051ZM418.411 271.594C418.411 270.406 418.748 269.49 419.423 268.844C420.112 268.199 420.999 267.876 422.085 267.876C423.17 267.876 424.05 268.199 424.725 268.844C425.399 269.49 425.737 270.406 425.737 271.594C425.737 272.782 425.399 273.699 424.725 274.344C424.05 274.99 423.17 275.312 422.085 275.312C420.999 275.312 420.112 274.99 419.423 274.344C418.748 273.699 418.411 272.782 418.411 271.594ZM433.349 268.118L424.879 283.606H421.249L429.719 268.118H433.349ZM422.063 270.076C421.359 270.076 421.007 270.582 421.007 271.594C421.007 272.592 421.359 273.09 422.063 273.09C422.4 273.09 422.664 272.966 422.855 272.716C423.045 272.467 423.141 272.093 423.141 271.594C423.141 270.582 422.781 270.076 422.063 270.076ZM428.883 280.13C428.883 278.942 429.22 278.026 429.895 277.38C430.569 276.735 431.449 276.412 432.535 276.412C433.62 276.412 434.5 276.735 435.175 277.38C435.849 278.026 436.187 278.942 436.187 280.13C436.187 281.318 435.849 282.235 435.175 282.88C434.5 283.526 433.62 283.848 432.535 283.848C431.449 283.848 430.569 283.526 429.895 282.88C429.22 282.235 428.883 281.318 428.883 280.13ZM432.513 278.612C432.175 278.612 431.911 278.737 431.721 278.986C431.545 279.236 431.457 279.617 431.457 280.13C431.457 281.128 431.809 281.626 432.513 281.626C432.85 281.626 433.114 281.502 433.305 281.252C433.495 281.003 433.591 280.629 433.591 280.13C433.591 279.632 433.495 279.258 433.305 279.008C433.114 278.744 432.85 278.612 432.513 278.612Z" fill="white"/>
<path d="M496.267 276.856C496.267 274.792 496.663 273.166 497.455 271.978C498.259 270.79 499.549 270.196 501.325 270.196C503.101 270.196 504.385 270.79 505.177 271.978C505.981 273.166 506.383 274.792 506.383 276.856C506.383 278.944 505.981 280.582 505.177 281.77C504.385 282.958 503.101 283.552 501.325 283.552C499.549 283.552 498.259 282.958 497.455 281.77C496.663 280.582 496.267 278.944 496.267 276.856ZM503.359 276.856C503.359 275.644 503.227 274.714 502.963 274.066C502.699 273.406 502.153 273.076 501.325 273.076C500.497 273.076 499.951 273.406 499.687 274.066C499.423 274.714 499.291 275.644 499.291 276.856C499.291 277.672 499.339 278.35 499.435 278.89C499.531 279.418 499.723 279.85 500.011 280.186C500.311 280.51 500.749 280.672 501.325 280.672C501.901 280.672 502.333 280.51 502.621 280.186C502.921 279.85 503.119 279.418 503.215 278.89C503.311 278.35 503.359 277.672 503.359 276.856ZM509.755 283.75C509.215 283.75 508.771 283.594 508.423 283.282C508.087 282.958 507.919 282.562 507.919 282.094C507.919 281.614 508.087 281.212 508.423 280.888C508.771 280.564 509.215 280.402 509.755 280.402C510.283 280.402 510.715 280.564 511.051 280.888C511.399 281.212 511.573 281.614 511.573 282.094C511.573 282.562 511.399 282.958 511.051 283.282C510.715 283.594 510.283 283.75 509.755 283.75ZM522.341 273.148H516.725V275.632C516.965 275.368 517.301 275.152 517.733 274.984C518.165 274.816 518.633 274.732 519.137 274.732C520.037 274.732 520.781 274.936 521.369 275.344C521.969 275.752 522.407 276.28 522.683 276.928C522.959 277.576 523.097 278.278 523.097 279.034C523.097 280.438 522.701 281.554 521.909 282.382C521.117 283.198 520.001 283.606 518.561 283.606C517.601 283.606 516.767 283.444 516.059 283.12C515.351 282.784 514.805 282.322 514.421 281.734C514.037 281.146 513.827 280.468 513.791 279.7H516.797C516.869 280.072 517.043 280.384 517.319 280.636C517.595 280.876 517.973 280.996 518.453 280.996C519.017 280.996 519.437 280.816 519.713 280.456C519.989 280.096 520.127 279.616 520.127 279.016C520.127 278.428 519.983 277.978 519.695 277.666C519.407 277.354 518.987 277.198 518.435 277.198C518.027 277.198 517.691 277.3 517.427 277.504C517.163 277.696 516.989 277.954 516.905 278.278H513.935V270.448H522.341V273.148ZM524.544 273.778C524.544 272.806 524.82 272.056 525.372 271.528C525.936 271 526.662 270.736 527.55 270.736C528.438 270.736 529.158 271 529.71 271.528C530.262 272.056 530.538 272.806 530.538 273.778C530.538 274.75 530.262 275.5 529.71 276.028C529.158 276.556 528.438 276.82 527.55 276.82C526.662 276.82 525.936 276.556 525.372 276.028C524.82 275.5 524.544 274.75 524.544 273.778ZM536.766 270.934L529.836 283.606H526.866L533.796 270.934H536.766ZM527.532 272.536C526.956 272.536 526.668 272.95 526.668 273.778C526.668 274.594 526.956 275.002 527.532 275.002C527.808 275.002 528.024 274.9 528.18 274.696C528.336 274.492 528.414 274.186 528.414 273.778C528.414 272.95 528.12 272.536 527.532 272.536ZM533.112 280.762C533.112 279.79 533.388 279.04 533.94 278.512C534.492 277.984 535.212 277.72 536.1 277.72C536.988 277.72 537.708 277.984 538.26 278.512C538.812 279.04 539.088 279.79 539.088 280.762C539.088 281.734 538.812 282.484 538.26 283.012C537.708 283.54 536.988 283.804 536.1 283.804C535.212 283.804 534.492 283.54 533.94 283.012C533.388 282.484 533.112 281.734 533.112 280.762ZM536.082 279.52C535.806 279.52 535.59 279.622 535.434 279.826C535.29 280.03 535.218 280.342 535.218 280.762C535.218 281.578 535.506 281.986 536.082 281.986C536.358 281.986 536.574 281.884 536.73 281.68C536.886 281.476 536.964 281.17 536.964 280.762C536.964 280.354 536.886 280.048 536.73 279.844C536.574 279.628 536.358 279.52 536.082 279.52Z" fill="white"/>
<defs>
<radialGradient id="paint0_radial_2588_7907" cx="0" cy="0" r="1" gradientUnits="userSpaceOnUse" gradientTransform="translate(294.5 281) scale(228.5 249.73)">
<stop stop-color="#5204A8"/>
<stop offset="1" stop-color="#FF54DC"/>
</radialGradient>
<linearGradient id="paint1_linear_2588_7907" x1="546" y1="261.5" x2="267.5" y2="282.5" gradientUnits="userSpaceOnUse">
<stop stop-color="#FF54DC"/>
<stop offset="1" stop-color="#5204A8"/>
</linearGradient>
<linearGradient id="paint2_linear_2588_7907" x1="546" y1="261.5" x2="267.5" y2="282.5" gradientUnits="userSpaceOnUse">
<stop stop-color="#FF54DC"/>
<stop offset="1" stop-color="#5204A8"/>
</linearGradient>
<linearGradient id="paint3_linear_2588_7907" x1="546" y1="261.5" x2="267.5" y2="282.5" gradientUnits="userSpaceOnUse">
<stop stop-color="#FF54DC"/>
<stop offset="1" stop-color="#5204A8"/>
</linearGradient>
</defs>
</svg>
