<svg width="150" height="152" viewBox="0 0 150 152" fill="none" xmlns="http://www.w3.org/2000/svg">
<ellipse cx="63.6933" cy="91.3178" rx="54.646" ry="49.6782" transform="rotate(11.8657 63.6933 91.3178)" fill="#A5A5A5"/>
<ellipse cx="67.2909" cy="83.8529" rx="54.646" ry="49.6782" transform="rotate(11.8657 67.2909 83.8529)" fill="#D9D9D9"/>
<mask id="mask0_2362_3788" style="mask-type:alpha" maskUnits="userSpaceOnUse" x="12" y="33" width="110" height="101">
<ellipse cx="67.2909" cy="83.8529" rx="54.646" ry="49.6782" transform="rotate(11.8657 67.2909 83.8529)" fill="#F5DF9C"/>
</mask>
<g mask="url(#mask0_2362_3788)">
<rect x="41.1367" y="34.085" width="14.7733" height="114.166" transform="rotate(-19.4648 41.1367 34.085)" fill="#FCFCFC"/>
<rect x="9.59766" y="83.4561" width="14.7733" height="114.166" transform="rotate(-80.6476 9.59766 83.4561)" fill="#FCFCFC"/>
<rect x="36.7598" y="134.343" width="14.7733" height="114.166" transform="rotate(-140.79 36.7598 134.343)" fill="#FCFCFC"/>
</g>
<ellipse cx="67.2912" cy="83.8529" rx="42.9677" ry="39.0615" transform="rotate(11.8657 67.2912 83.8529)" fill="#A5A5A5"/>
<path fill-rule="evenodd" clip-rule="evenodd" d="M85.9099 57.7373C85.4542 57.9403 85.2493 58.4742 85.4523 58.9299L86.1873 60.58L84.5369 61.3152C84.0812 61.5181 83.8764 62.0521 84.0794 62.5078C84.2823 62.9634 84.8163 63.1683 85.272 62.9653L86.9223 62.2302L87.6574 63.8805C87.8604 64.3361 88.3943 64.541 88.85 64.338C89.3057 64.1351 89.5105 63.6011 89.3076 63.1454L88.5725 61.4952L90.2225 60.7602C90.6782 60.5572 90.883 60.0233 90.6801 59.5676C90.4771 59.1119 89.9431 58.9071 89.4875 59.11L87.8375 59.845L87.1025 58.1949C86.8995 57.7392 86.3655 57.5343 85.9099 57.7373Z" fill="#FBF8FB"/>
<path fill-rule="evenodd" clip-rule="evenodd" d="M46.8001 101.827C46.3014 101.837 45.9055 102.25 45.916 102.749L45.9539 104.555L44.148 104.593C43.6493 104.603 43.2535 105.016 43.2639 105.515C43.2744 106.013 43.6872 106.409 44.1859 106.399L45.9918 106.361L46.0296 108.167C46.0401 108.666 46.4529 109.061 46.9516 109.051C47.4504 109.04 47.8462 108.628 47.8357 108.129L47.7978 106.323L49.6042 106.285C50.1029 106.275 50.4987 105.862 50.4883 105.363C50.4778 104.864 50.065 104.468 49.5663 104.479L47.76 104.517L47.7221 102.711C47.7116 102.212 47.2988 101.816 46.8001 101.827Z" fill="#FBF8FB"/>
<path fill-rule="evenodd" clip-rule="evenodd" d="M93.736 98.6507C93.1241 98.5899 92.5787 99.0368 92.518 99.6488L92.2979 101.865L90.0813 101.645C89.4693 101.584 88.924 102.031 88.8632 102.643C88.8025 103.255 89.2493 103.8 89.8613 103.861L92.0779 104.081L91.8579 106.297C91.7972 106.909 92.244 107.455 92.856 107.515C93.468 107.576 94.0133 107.129 94.0741 106.517L94.2941 104.301L96.5099 104.521C97.1218 104.582 97.6672 104.135 97.7279 103.523C97.7887 102.911 97.3418 102.366 96.7299 102.305L94.5141 102.085L94.7341 99.8688C94.7949 99.2568 94.348 98.7114 93.736 98.6507Z" fill="#FBF8FB"/>
<path fill-rule="evenodd" clip-rule="evenodd" d="M37.0636 69.567C36.8876 69.7616 36.9027 70.062 37.0972 70.238L37.8019 70.8754L37.1645 71.58C36.9885 71.7746 37.0036 72.075 37.1981 72.251C37.3927 72.427 37.6931 72.4119 37.8691 72.2174L38.5065 71.5128L39.211 72.1501C39.4056 72.3261 39.706 72.3111 39.882 72.1165C40.058 71.9219 40.043 71.6215 39.8484 71.4455L39.1439 70.8082L39.7812 70.1036C39.9573 69.909 39.9422 69.6086 39.7476 69.4326C39.5531 69.2566 39.2527 69.2716 39.0766 69.4662L38.4393 70.1708L37.7346 69.5334C37.54 69.3574 37.2396 69.3724 37.0636 69.567Z" fill="#FBF8FB"/>
<path d="M91.6843 74.0363L77.949 86.2415L87.6763 102.71L69.4601 93.7847L55.7247 105.99L58.2018 88.2684L39.9857 79.3428L59.7328 77.3159L62.2099 59.5944L71.9372 76.0632L91.6843 74.0363Z" fill="white"/>
<ellipse cx="82.6933" cy="67.3178" rx="54.646" ry="49.6782" transform="rotate(11.8657 82.6933 67.3178)" fill="#D76E0D"/>
<ellipse cx="86.2909" cy="59.8529" rx="54.646" ry="49.6782" transform="rotate(11.8657 86.2909 59.8529)" fill="#FBA032"/>
<mask id="mask1_2362_3788" style="mask-type:alpha" maskUnits="userSpaceOnUse" x="31" y="9" width="110" height="101">
<ellipse cx="86.2909" cy="59.8529" rx="54.646" ry="49.6782" transform="rotate(11.8657 86.2909 59.8529)" fill="#F5DF9C"/>
</mask>
<g mask="url(#mask1_2362_3788)">
<rect x="60.1367" y="10.085" width="14.7733" height="114.166" transform="rotate(-19.4648 60.1367 10.085)" fill="#FFC886"/>
<rect x="28.5977" y="59.4561" width="14.7733" height="114.166" transform="rotate(-80.6476 28.5977 59.4561)" fill="#FFC886"/>
<rect x="55.7598" y="110.343" width="14.7733" height="114.166" transform="rotate(-140.79 55.7598 110.343)" fill="#FFC886"/>
</g>
<ellipse cx="86.2912" cy="59.8529" rx="42.9677" ry="39.0615" transform="rotate(11.8657 86.2912 59.8529)" fill="#E1701E"/>
<path fill-rule="evenodd" clip-rule="evenodd" d="M104.91 33.7373C104.454 33.9403 104.249 34.4742 104.452 34.9299L105.187 36.58L103.537 37.3152C103.081 37.5181 102.876 38.0521 103.079 38.5078C103.282 38.9634 103.816 39.1683 104.272 38.9653L105.922 38.2302L106.657 39.8805C106.86 40.3361 107.394 40.541 107.85 40.338C108.306 40.1351 108.511 39.6011 108.308 39.1454L107.573 37.4952L109.222 36.7602C109.678 36.5572 109.883 36.0233 109.68 35.5676C109.477 35.1119 108.943 34.9071 108.487 35.11L106.837 35.845L106.102 34.1949C105.899 33.7392 105.366 33.5343 104.91 33.7373Z" fill="#FBF8FB"/>
<path fill-rule="evenodd" clip-rule="evenodd" d="M65.8001 77.8266C65.3014 77.837 64.9055 78.2498 64.916 78.7485L64.9539 80.5547L63.148 80.5926C62.6493 80.603 62.2535 81.0158 62.2639 81.5146C62.2744 82.0133 62.6872 82.4091 63.1859 82.3987L64.9918 82.3608L65.0296 84.1668C65.0401 84.6655 65.4529 85.0613 65.9516 85.0509C66.4504 85.0404 66.8462 84.6276 66.8357 84.1289L66.7978 82.3229L68.6042 82.285C69.1029 82.2746 69.4987 81.8618 69.4883 81.363C69.4778 80.8643 69.065 80.4685 68.5663 80.4789L66.76 80.5168L66.7221 78.7107C66.7116 78.2119 66.2988 77.8161 65.8001 77.8266Z" fill="#FBF8FB"/>
<path fill-rule="evenodd" clip-rule="evenodd" d="M112.736 74.6507C112.124 74.5899 111.579 75.0368 111.518 75.6488L111.298 77.8651L109.081 77.6451C108.469 77.5843 107.924 78.0312 107.863 78.6431C107.802 79.2551 108.249 79.8005 108.861 79.8612L111.078 80.0813L110.858 82.2973C110.797 82.9093 111.244 83.4546 111.856 83.5154C112.468 83.5761 113.013 83.1293 113.074 82.5173L113.294 80.3013L115.51 80.5213C116.122 80.582 116.667 80.1352 116.728 79.5232C116.789 78.9112 116.342 78.3658 115.73 78.3051L113.514 78.0851L113.734 75.8688C113.795 75.2568 113.348 74.7114 112.736 74.6507Z" fill="#FBF8FB"/>
<path fill-rule="evenodd" clip-rule="evenodd" d="M56.0636 45.567C55.8876 45.7616 55.9027 46.062 56.0972 46.238L56.8019 46.8754L56.1645 47.58C55.9885 47.7746 56.0036 48.075 56.1981 48.251C56.3927 48.427 56.6931 48.4119 56.8691 48.2174L57.5065 47.5128L58.211 48.1501C58.4056 48.3261 58.706 48.3111 58.882 48.1165C59.058 47.9219 59.043 47.6215 58.8484 47.4455L58.1439 46.8082L58.7812 46.1036C58.9573 45.909 58.9422 45.6086 58.7476 45.4326C58.5531 45.2566 58.2527 45.2716 58.0766 45.4662L57.4393 46.1708L56.7346 45.5334C56.54 45.3574 56.2396 45.3724 56.0636 45.567Z" fill="#FBF8FB"/>
<path d="M110.684 50.0363L96.949 62.2415L106.676 78.7104L88.4601 69.7847L74.7247 81.99L77.2018 64.2684L58.9857 55.3428L78.7328 53.3159L81.2099 35.5944L90.9372 52.0632L110.684 50.0363Z" fill="white"/>
</svg>
