<svg width="44" height="46" viewBox="0 0 44 46" fill="none" xmlns="http://www.w3.org/2000/svg">
<path d="M28.8772 19.8713C28.7479 20.0066 28.5946 20.1143 28.426 20.1881C28.2574 20.2619 28.0769 20.3004 27.8948 20.3013C27.7126 20.3023 27.5325 20.2657 27.3646 20.1937C27.1967 20.1217 27.0444 20.0157 26.9165 19.8817L24.9657 17.8439C24.707 17.5737 24.5627 17.2061 24.5645 16.822C24.5664 16.4379 24.7143 16.0688 24.9756 15.7958C25.2369 15.5228 25.5903 15.3684 25.9581 15.3664C26.3258 15.3645 26.6777 15.5152 26.9364 15.7854L28.8872 17.8231C29.0155 17.9568 29.117 18.1159 29.1859 18.2913C29.2549 18.4666 29.2899 18.6548 29.2889 18.8451C29.288 19.0353 29.2512 19.2239 29.1805 19.4C29.1099 19.5761 29.0068 19.7362 28.8772 19.8713Z" fill="white"/>
<path d="M36.7604 11.6376C36.8897 11.5022 37.0431 11.3946 37.2116 11.3208C37.3802 11.247 37.5608 11.2085 37.7429 11.2075C37.925 11.2066 38.1052 11.2431 38.273 11.3151C38.4409 11.3872 38.5932 11.4932 38.7212 11.6272L43.5982 16.7215C43.7265 16.8552 43.828 17.0143 43.897 17.1896C43.9659 17.365 44.0009 17.5532 44 17.7434C43.9991 17.9337 43.9622 18.1222 43.8916 18.2983C43.8209 18.4744 43.7179 18.6346 43.5883 18.7696L17.969 45.5304C17.8397 45.6658 17.6864 45.7735 17.5178 45.8472C17.3492 45.921 17.1687 45.9595 16.9866 45.9605C16.8044 45.9615 16.6243 45.9249 16.4564 45.8529C16.2885 45.7809 16.1362 45.6748 16.0082 45.5408L11.1312 40.4465C11.0029 40.3128 10.9014 40.1537 10.8325 39.9784C10.7635 39.803 10.7285 39.6148 10.7295 39.4246C10.7304 39.2344 10.7672 39.0458 10.8379 38.8697C10.9085 38.6936 11.0116 38.5334 11.1412 38.3984C11.6638 37.8524 11.9596 37.1141 11.9633 36.3459C11.967 35.5778 11.6785 34.8426 11.1611 34.3021C10.6437 33.7617 9.93987 33.4603 9.20444 33.4642C8.46902 33.4681 7.76223 33.777 7.23956 34.3229C7.11027 34.4583 6.95694 34.5659 6.78836 34.6397C6.61977 34.7135 6.43925 34.752 6.25712 34.753C6.07499 34.754 5.89482 34.7174 5.72695 34.6454C5.55908 34.5734 5.40679 34.4673 5.2788 34.3333L0.401786 29.239C0.273505 29.1053 0.171988 28.9462 0.103046 28.7709C0.0341051 28.5955 -0.000906671 28.4073 1.78426e-05 28.2171C0.000942356 28.0268 0.037785 27.8383 0.108434 27.6622C0.179083 27.4861 0.282152 27.3259 0.411739 27.1909L26.031 0.430086C26.1603 0.294725 26.3136 0.187063 26.4822 0.113266C26.6508 0.0394691 26.8313 0.000984378 27.0134 1.86395e-05C27.1956 -0.000947099 27.3757 0.0356233 27.5436 0.107636C27.7115 0.179649 27.8638 0.285692 27.9918 0.419689L32.8688 5.51401C32.9971 5.6477 33.0986 5.80677 33.1675 5.98212C33.2365 6.15748 33.2715 6.34567 33.2705 6.53592C33.2696 6.72616 33.2328 6.91473 33.1621 7.09083C33.0915 7.26692 32.9884 7.42708 32.8588 7.56214C32.3362 8.10809 32.0404 8.84637 32.0367 9.61457C32.033 10.3828 32.3215 11.1179 32.8389 11.6584C33.3563 12.1988 34.0601 12.5002 34.7956 12.4964C35.531 12.4925 36.2378 12.1835 36.7604 11.6376ZM30.0609 6.69806L26.9953 3.49591L21.0832 9.67148L23.034 11.7092C23.2927 11.9794 23.437 12.347 23.4351 12.7311C23.4332 13.1152 23.2854 13.4844 23.0241 13.7573C22.7627 14.0303 22.4093 14.1848 22.0416 14.1867C21.6739 14.1887 21.322 14.0379 21.0633 13.7677L19.1125 11.73L3.34679 28.1982L6.41234 31.4003C7.47007 30.7408 8.70439 30.4659 9.92043 30.619C11.1365 30.772 12.265 31.3443 13.1277 32.2455C13.9905 33.1467 14.5384 34.3255 14.6849 35.5957C14.8314 36.866 14.5682 38.1553 13.9369 39.2601L17.0024 42.4623L32.7681 25.9941L30.8173 23.9564C30.5586 23.6862 30.4144 23.3186 30.4162 22.9345C30.4181 22.5504 30.5659 22.1812 30.8273 21.9082C31.0886 21.6353 31.442 21.4808 31.8097 21.4789C32.1774 21.4769 32.5293 21.6276 32.788 21.8978L34.7388 23.9356L40.651 17.76L37.5854 14.5579C36.5277 15.2174 35.2934 15.4923 34.0773 15.3392C32.8613 15.1862 31.7328 14.6139 30.87 13.7127C30.0073 12.8115 29.4594 11.6327 29.3129 10.3625C29.1663 9.09223 29.4295 7.80291 30.0609 6.69806Z" fill="white"/>
</svg>
